<svg width="33" height="33" viewBox="0 0 33 33" fill="none" xmlns="http://www.w3.org/2000/svg">
<g opacity="0.7" clip-path="url(#clip0_2_2647)">
<path d="M31.7075 26.1251H27.9978C29.3881 25.5263 30.5693 24.5282 31.3918 23.2574C31.5671 22.9658 31.5895 22.6071 31.4518 22.296C31.4155 22.2135 31.3704 22.1145 31.3198 22.0067C31.9726 21.0637 32.459 20.0158 32.758 18.9085C33.0106 17.7086 33.0686 16.4759 32.9296 15.2576C32.873 14.7417 32.5242 14.3046 32.0337 14.1351C31.476 11.4588 30.7252 11.0314 30.4711 10.8901C30.1482 10.7051 29.7586 10.6775 29.4129 10.8153C28.0511 11.3339 28.0462 12.5511 28.0418 13.6241C28.0418 13.881 28.0335 14.1433 28.017 14.4051C27.4886 14.5285 27.0622 14.9172 26.8906 15.432C26.7809 15.7527 26.6284 16.0572 26.4374 16.3373C26.2104 16.2165 25.9767 16.1088 25.7373 16.015C25.5096 15.9306 25.2591 15.9316 25.0322 16.0177L22.2079 17.0968C21.9861 17.1827 21.8012 17.3432 21.6849 17.5506C21.5541 17.7891 21.4364 18.0346 21.3323 18.2859C21.185 18.2409 21.0407 18.1869 20.9 18.1242V11.8251C20.9 11.2176 20.4075 10.7251 19.8 10.7251H6.6C5.99249 10.7251 5.5 11.2176 5.5 11.8251V12.5742C4.99172 12.442 4.46868 12.3751 3.9435 12.3751C0 12.3751 0 16.7091 0 18.1336C0 21.3175 1.5477 23.3751 3.9435 23.3751C4.57817 23.3716 5.20937 23.2813 5.81955 23.1067C6.2256 24.3272 7.01254 25.3852 8.06465 26.1251H3.4925C3.17491 26.098 2.85968 26.1991 2.61694 26.4056C2.3742 26.6122 2.22409 26.9072 2.2 27.2251V28.3251C2.2 29.5587 3.4199 30.5251 4.9775 30.5251H30.2225C31.7801 30.5251 33 29.5587 33 28.3251V27.2251C32.9759 26.9072 32.8258 26.6122 32.5831 26.4056C32.3403 26.1991 32.0251 26.098 31.7075 26.1251ZM29.8034 11.8394C29.8445 11.8172 29.8945 11.8198 29.9332 11.846C30.0273 11.8982 30.4788 12.2453 30.8941 14.0663C30.4315 14.0856 29.832 14.1263 29.1341 14.2165C29.1412 14.0113 29.1429 13.8111 29.1434 13.6247C29.1462 12.4851 29.2017 12.0687 29.8034 11.8394ZM27.94 15.7653C27.9961 15.6016 28.1377 15.4822 28.3085 15.4545C28.4103 15.4336 28.5109 15.4188 28.6226 15.3995C29.5829 15.2372 30.5548 15.1521 31.5288 15.1449H31.5651C31.6994 15.1357 31.8181 15.2316 31.8373 15.3649C31.964 16.4596 31.9147 17.5676 31.691 18.6467C31.4834 19.4315 31.1615 20.1815 30.7357 20.8726C29.9028 19.3335 28.7583 17.9848 27.3752 16.9126C27.613 16.5566 27.803 16.1709 27.94 15.7653ZM22.6325 18.1088L25.3897 17.0556C28.3338 18.2133 30.1197 21.9902 30.4497 22.6986C30.1455 23.2244 29.1665 24.5515 26.6497 25.5118C25.7865 25.8516 24.8767 26.0584 23.9514 26.1251H23.226C22.8421 26.1074 22.4622 26.039 22.0963 25.9216C22.0649 25.7868 22.0226 25.602 21.9802 25.3798C21.7184 24.0175 21.2614 20.5937 22.6303 18.1088H22.6325ZM19.2825 25.2764C19.8247 25.5396 20.3887 25.7553 20.9682 25.921C20.9847 25.998 21.0001 26.0635 21.0139 26.1251H18.315C18.6666 25.8773 18.9909 25.5928 19.2825 25.2764ZM20.7526 24.6951C20.0123 24.4503 19.3157 24.0892 18.689 23.6253C17.869 22.9391 17.1711 22.119 16.6249 21.1998C16.5595 21.0594 16.6007 20.8923 16.7239 20.7983C16.731 20.7917 16.7382 20.7851 16.7442 20.7785C17.5025 20.1252 18.3099 19.5311 19.1593 19.0015C19.2467 18.9465 19.3342 18.8876 19.4403 18.826C19.5684 18.7427 19.7327 18.739 19.8644 18.8167C20.2087 19.035 20.5817 19.2043 20.9726 19.3199C20.5433 21.0793 20.4685 22.9065 20.7526 24.6951ZM15.9918 17.1755C16.0091 17.1173 16.0539 17.0714 16.1117 17.0528C16.6947 16.8328 16.9615 17.0957 17.6407 17.9664C17.7573 18.1154 17.8822 18.2749 18.0164 18.435C17.4169 18.837 16.9235 19.2099 16.5506 19.5102C15.9786 18.2353 15.8763 17.4736 15.9918 17.1755ZM5.5 19.7302C5.01012 19.9501 4.48042 20.0675 3.9435 20.0751C3.5255 20.0751 3.3 19.0746 3.3 18.1336C3.3 15.6751 3.6718 15.6751 3.9435 15.6751C4.50661 15.6521 5.05915 15.8327 5.5 16.1838V19.7302ZM1.1 18.1352C1.1 15.9649 1.4234 13.4751 3.9435 13.4751C4.47195 13.4724 4.99742 13.5543 5.5 13.7176V14.8996C5.01107 14.6791 4.4798 14.5684 3.9435 14.5751C2.3331 14.5751 2.2 16.2586 2.2 18.1336C2.2 20.0382 2.85175 21.1751 3.9435 21.1751C4.47393 21.1696 4.99982 21.0767 5.5 20.9001V21.1751C5.50234 21.4626 5.5255 21.7495 5.5693 22.0336C5.04129 22.1896 4.49404 22.2708 3.9435 22.2751C2.16315 22.2751 1.1 20.7268 1.1 18.1336V18.1352ZM6.72815 22.2883C6.64248 21.9234 6.59947 21.5499 6.6 21.1751L6.6 11.8251H19.8V17.6798C19.5118 17.653 19.222 17.7103 18.9657 17.8448C18.8067 17.6633 18.6538 17.4763 18.5081 17.2893C17.8849 16.4907 17.1111 15.4947 15.7207 16.0243C15.3721 16.1531 15.0969 16.4271 14.9666 16.7751C14.6801 17.5137 14.9298 18.6775 15.7141 20.3121C15.4266 20.7561 15.417 21.325 15.6893 21.7784C16.3049 22.8093 17.0914 23.7279 18.0153 24.4949C18.1115 24.5691 18.2111 24.6368 18.3106 24.705C17.3897 25.6165 16.1458 26.127 14.85 26.1251H11.55C9.2415 26.1346 7.23652 24.5385 6.72815 22.2866V22.2883ZM31.9 28.3251C31.9 28.9213 31.13 29.4251 30.2225 29.4251H4.9775C4.07 29.4251 3.3 28.9213 3.3 28.3251V27.2751C3.358 27.2402 3.42485 27.2228 3.4925 27.2251H31.7075C31.7752 27.2228 31.842 27.2402 31.9 27.2751V28.3251Z" fill="#AA8B4E"/>
<path d="M12.0997 8.52508C12.0997 8.82884 12.3459 9.07508 12.6497 9.07508C12.9534 9.07508 13.1997 8.82884 13.1997 8.52508C13.196 8.1371 13.3512 7.7645 13.6292 7.49383C14.5232 6.52236 14.5232 5.0278 13.6292 4.05633C13.3512 3.78566 13.196 3.41307 13.1997 3.02508C13.1997 2.72133 12.9534 2.47508 12.6497 2.47508C12.3459 2.47508 12.0997 2.72133 12.0997 3.02508C12.0948 3.66271 12.3348 4.2779 12.7701 4.74383C13.0451 5.01657 13.1997 5.38781 13.1997 5.77508C13.1997 6.16236 13.0451 6.5336 12.7701 6.80633C12.3348 7.27226 12.0948 7.88745 12.0997 8.52508Z" fill="#AA8B4E"/>
<path d="M8.79988 8.52508C8.79988 8.82884 9.04612 9.07508 9.34988 9.07508C9.65363 9.07508 9.89987 8.82884 9.89987 8.52508C9.89622 8.1371 10.0514 7.7645 10.3294 7.49383C11.2234 6.52236 11.2234 5.0278 10.3294 4.05633C10.0514 3.78566 9.89622 3.41307 9.89987 3.02508C9.89987 2.72133 9.65363 2.47508 9.34988 2.47508C9.04612 2.47508 8.79988 2.72133 8.79988 3.02508C8.79503 3.66271 9.035 4.2779 9.47032 4.74383C9.74527 5.01657 9.89992 5.38781 9.89992 5.77508C9.89992 6.16236 9.74527 6.5336 9.47032 6.80633C9.035 7.27226 8.79503 7.88745 8.79988 8.52508Z" fill="#AA8B4E"/>
<path d="M15.3995 8.52508C15.3995 8.82884 15.6457 9.07508 15.9495 9.07508C16.2532 9.07508 16.4995 8.82884 16.4995 8.52508C16.4958 8.1371 16.651 7.7645 16.929 7.49383C17.823 6.52236 17.823 5.0278 16.929 4.05633C16.651 3.78566 16.4958 3.41307 16.4995 3.02508C16.4995 2.72133 16.2532 2.47508 15.9495 2.47508C15.6457 2.47508 15.3995 2.72133 15.3995 3.02508C15.3946 3.66271 15.6346 4.2779 16.0699 4.74383C16.3449 5.01657 16.4995 5.38781 16.4995 5.77508C16.4995 6.16236 16.3449 6.5336 16.0699 6.80633C15.6346 7.27226 15.3946 7.88745 15.3995 8.52508Z" fill="#AA8B4E"/>
</g>
<defs>
<clipPath id="clip0_2_2647">
<rect width="33" height="33" fill="white"/>
</clipPath>
</defs>
</svg>
