<svg width="31" height="31" viewBox="0 0 31 31" fill="none" xmlns="http://www.w3.org/2000/svg">
<path d="M0.431287 30.9967C0.182258 30.9668 0.00467448 30.7407 0.034524 30.4918C0.881452 23.4339 1.66281 17.8611 2.72316 13.6044C3.879 8.96437 5.31711 6.18019 7.24752 4.84592C8.33421 2.20753 9.86169 1.64572 12.0562 1.68829C12.4394 1.17267 13.5279 0 15.501 0C17.474 0 18.5626 1.17267 18.9458 1.68829C21.088 1.64778 22.6435 2.19367 23.7257 4.77575C23.7356 4.79912 23.7452 4.82249 23.755 4.84622C25.6852 6.18061 27.1231 8.96461 28.2788 13.6043C29.3392 17.861 30.1205 23.4338 30.9674 30.4917C30.9973 30.7407 30.8197 30.9668 30.5707 30.9967C30.3219 31.0265 30.0956 30.8489 30.0657 30.5999C29.2228 23.5759 28.4465 18.0349 27.3975 13.8239C26.5426 10.3916 25.5528 8.04606 24.3376 6.60795C25.0121 9.10544 25.5762 13.001 26.2516 19.5963C26.2771 19.8458 26.0956 20.0688 25.8461 20.0943C25.5969 20.1198 25.3736 19.9383 25.3481 19.6888C24.6503 12.8754 24.0096 8.07633 23.0163 5.4489C22.149 4.92118 21.1607 4.72598 20.0197 4.85942C21.336 6.07702 22.1611 7.81792 22.1611 9.74803V10.754C22.2566 10.7297 22.3565 10.7168 22.4595 10.7168C23.1272 10.7168 23.6704 11.26 23.6704 11.9277V13.2455C23.6704 13.9214 23.4079 14.711 22.2469 14.8953C22.3478 15.106 22.5315 15.244 22.7668 15.4208C23.1756 15.7278 23.7353 16.1482 23.7353 17.1045C23.7353 18.0607 23.1756 18.4811 22.7668 18.7881C22.4021 19.0621 22.1611 19.2432 22.1611 19.7456C22.1611 19.9964 21.9578 20.1997 21.707 20.1997C21.4562 20.1997 21.2529 19.9964 21.2529 19.7456C21.2529 18.7894 21.8126 18.369 22.2214 18.0619C22.5861 17.788 22.8271 17.6069 22.8271 17.1045C22.8271 16.602 22.5861 16.4209 22.2214 16.1469C22.0844 16.044 21.9305 15.9285 21.7864 15.7842C21.255 17.5417 20.1929 19.0108 18.8246 19.9306C18.8601 21.7758 19.3632 22.39 21.2071 22.968C23.192 23.5901 24.7102 24.2443 25.6684 25.4144C26.584 26.5324 26.9746 28.0671 26.9746 30.5458C26.9746 30.7966 26.7712 30.9999 26.5205 30.9999C26.2697 30.9999 26.0664 30.7966 26.0664 30.5458C26.0664 26.1466 24.8481 25.061 20.9354 23.8347C18.8913 23.1939 18.0878 22.3247 17.9402 20.4278C17.1845 20.7748 16.3614 20.9656 15.501 20.9656C14.6405 20.9656 13.8174 20.7748 13.0617 20.4278C12.9141 22.3247 12.1106 23.1939 10.0665 23.8347C9.11163 24.1339 8.399 24.402 7.82393 24.6781C7.59784 24.7865 7.32659 24.6913 7.21803 24.4652C7.10947 24.2392 7.20477 23.9679 7.43086 23.8594C8.04619 23.5639 8.79734 23.2807 9.79484 22.968C11.6387 22.3901 12.1418 21.7759 12.1773 19.9307C10.809 19.0108 9.74701 17.5417 9.21553 15.7843C9.07143 15.9285 8.91752 16.0441 8.78056 16.147C8.41577 16.4209 8.17479 16.602 8.17479 17.1045C8.17479 17.6069 8.41577 17.788 8.7805 18.062C9.18925 18.369 9.74901 18.7895 9.74901 19.7456C9.74901 19.9964 9.54569 20.1997 9.29491 20.1997C9.04412 20.1997 8.84081 19.9964 8.84081 19.7456C8.84081 19.2432 8.59983 19.0621 8.2351 18.7881C7.82641 18.4811 7.26659 18.0607 7.26659 17.1045C7.26659 16.1482 7.82635 15.7278 8.2351 15.4208C8.47044 15.244 8.6542 15.1059 8.75501 14.8953C7.59397 14.711 7.3315 13.9213 7.3315 13.2455V11.9277C7.3315 11.26 7.87472 10.7168 8.54243 10.7168C8.64536 10.7168 8.74533 10.7297 8.84081 10.754V9.74803C8.84081 8.96201 8.97655 8.19234 9.24417 7.46045C9.33033 7.22492 9.5911 7.10389 9.82663 7.18993C10.0622 7.27608 10.1833 7.53686 10.0972 7.77239C9.86617 8.40401 9.74901 9.06875 9.74901 9.74803V11.4384C9.79218 11.4028 9.83692 11.3679 9.8833 11.3337C10.241 11.0699 10.672 10.8618 11.1778 10.6605C11.34 10.5778 11.519 10.5109 11.7079 10.46C11.9062 10.3879 12.114 10.3147 12.3315 10.238C12.451 10.1959 12.5733 10.1528 12.6983 10.1084C12.7935 10.0745 12.89 10.0405 12.9874 10.0061C15.0614 9.27461 17.4121 8.44542 17.4121 5.93116C17.4121 5.68038 17.6154 5.47706 17.8662 5.47706C18.117 5.47706 18.3203 5.68038 18.3203 5.93116C18.3203 7.05497 19.144 7.7294 20.0161 8.44343C20.1169 8.52589 20.2169 8.60787 20.3151 8.69003C20.6733 8.9898 20.9887 9.36701 21.2529 9.8007V9.74803C21.2529 7.79673 20.2762 6.06927 18.786 5.02877C18.7163 5.00352 18.6533 4.9615 18.6032 4.90628C17.7076 4.33036 16.6427 3.99609 15.501 3.99609C14.3884 3.99609 13.319 4.31462 12.4053 4.89884C12.3519 4.96047 12.2827 5.00655 12.2058 5.03234C11.7877 5.3249 11.406 5.67523 11.0719 6.0778C10.9117 6.27083 10.6255 6.29747 10.4325 6.13732C10.2394 5.97718 10.2128 5.69091 10.3729 5.49789C10.5618 5.27029 10.764 5.05699 10.9777 4.85894C9.83862 4.72676 8.85146 4.92203 7.98534 5.44915C7.96064 5.51442 7.93612 5.58114 7.91172 5.64931C6.85748 8.59661 6.1822 14.0958 5.30488 23.2126C5.28084 23.4623 5.05888 23.6454 4.80936 23.6211C4.55973 23.5971 4.37682 23.3752 4.40085 23.1256C5.1744 15.0873 5.79543 9.82983 6.66585 6.60613C5.44983 8.04406 4.4597 10.39 3.60436 13.8239C2.55545 18.035 1.77912 23.5759 0.936247 30.6C0.908577 30.8306 0.712587 31 0.485961 31C0.467918 31 0.449633 30.9989 0.431287 30.9967ZM19.7323 9.38644C19.6366 9.3064 19.539 9.22648 19.4408 9.14613C18.9202 8.71982 18.3615 8.26239 17.9626 7.68066C17.6755 8.30847 17.2144 8.85436 16.5737 9.3285C15.8172 9.88837 14.9028 10.2754 14.0222 10.6002C14.0773 10.6243 14.1308 10.6501 14.1825 10.6775C14.404 10.7952 14.4882 11.0701 14.3705 11.2916C14.2529 11.5131 13.9779 11.5974 13.7565 11.4797C13.2924 11.2333 12.5776 11.1799 12.0049 11.3196C10.413 11.9039 9.75337 12.3066 9.75337 13.4819C9.75337 13.484 9.75337 13.4861 9.75331 13.4882C9.87125 17.1344 12.4042 20.0573 15.501 20.0573C18.6726 20.0573 21.2529 16.991 21.2529 13.222C21.2529 11.6413 20.6702 10.1716 19.7323 9.38644ZM8.84081 11.8764C8.81641 11.7338 8.69186 11.625 8.54243 11.625C8.37551 11.625 8.2397 11.7608 8.2397 11.9277V13.2455C8.2397 13.5806 8.29334 13.8879 8.84081 13.9907V13.222V11.8764ZM22.1611 11.8764V13.9906C22.7086 13.8879 22.7622 13.5806 22.7622 13.2455V11.9277C22.7622 11.7608 22.6264 11.625 22.4595 11.625C22.31 11.625 22.1856 11.7338 22.1611 11.8764ZM11.9552 4.10858C13.0045 3.44771 14.2283 3.08788 15.501 3.08788C16.8014 3.08788 18.0159 3.46249 19.0425 4.10955C20.2907 3.82274 21.4019 3.84145 22.4019 4.16931C21.5349 2.78491 20.4191 2.53782 18.7274 2.60321C18.5595 2.6092 18.4014 2.52129 18.3168 2.3767C18.2817 2.3167 17.4355 0.908201 15.501 0.908201C13.5664 0.908201 12.7202 2.3167 12.6863 2.3747C12.6023 2.52159 12.4433 2.6092 12.2745 2.60315C10.5717 2.5377 9.46141 2.78624 8.59795 4.16992C9.13052 3.99512 9.69458 3.90793 10.2941 3.90793C10.8197 3.90799 11.3726 3.97495 11.9552 4.10858ZM15.2146 30.8983C15.0335 30.7512 14.8628 30.6184 14.7122 30.5014C13.9692 29.9238 13.4323 29.5066 13.4323 28.6438C13.4323 28.2319 13.6195 27.8628 13.9134 27.6173C13.0343 27.1292 12.2885 26.8828 11.6865 26.8828C10.0339 26.8828 8.68944 28.2273 8.68944 29.8798V30.5458C8.68944 30.7966 8.48612 30.9999 8.23534 30.9999C7.98456 30.9999 7.78124 30.7966 7.78124 30.5458V29.8798C7.78124 27.7265 9.53316 25.9746 11.6865 25.9746C12.6887 25.9746 13.8943 26.4563 15.3622 27.4449C15.4099 27.4685 15.4563 27.495 15.501 27.5242C15.5456 27.495 15.592 27.4685 15.6398 27.4449C17.1076 26.4563 18.3133 25.9746 19.3154 25.9746C21.4687 25.9746 23.2207 27.7265 23.2207 29.8798V30.5458C23.2207 30.7966 23.0173 30.9999 22.7666 30.9999C22.5158 30.9999 22.3125 30.7966 22.3125 30.5458V29.8798C22.3125 28.2273 20.968 26.8828 19.3154 26.8828C18.7134 26.8828 17.9677 27.1292 17.0885 27.6174C17.3823 27.8629 17.5695 28.2319 17.5695 28.6439C17.5695 29.5066 17.0327 29.9239 16.2896 30.5015C16.1391 30.6185 15.9683 30.7512 15.7872 30.8983C15.7039 30.966 15.6024 30.9999 15.501 30.9999C15.3995 30.9999 15.2981 30.966 15.2146 30.8983ZM16.0832 28.2415C16.0257 28.2807 15.9678 28.3205 15.9095 28.3612C15.8978 28.3746 15.8868 28.3887 15.8768 28.4036C15.7922 28.5282 15.6515 28.6027 15.501 28.6027C15.3505 28.6027 15.2098 28.5281 15.1253 28.4036C15.1151 28.3887 15.1042 28.3746 15.0926 28.3612C15.0342 28.3205 14.9763 28.2806 14.9189 28.2415C14.8718 28.224 14.8214 28.2148 14.7697 28.2148C14.5331 28.2148 14.3406 28.4073 14.3406 28.6439C14.3406 29.0432 14.5639 29.2358 15.2697 29.7843C15.3424 29.8409 15.4198 29.901 15.5011 29.9649C15.5823 29.901 15.6597 29.8409 15.7325 29.7843C16.4382 29.2358 16.6615 29.0432 16.6615 28.6439C16.6615 28.4073 16.469 28.2148 16.2324 28.2148C16.1806 28.2148 16.1303 28.224 16.0832 28.2415ZM4.02734 30.5458C4.02734 27.901 4.4852 26.2902 5.55827 25.1596C5.73094 24.9777 6.0183 24.9701 6.20024 25.1428C6.38212 25.3155 6.38963 25.6029 6.21701 25.7848C5.30681 26.7438 4.93554 28.1231 4.93554 30.5458C4.93554 30.7966 4.73223 30.9999 4.48144 30.9999C4.23066 30.9999 4.02734 30.7966 4.02734 30.5458ZM25.697 23.2126C25.6505 22.7295 25.6046 22.2572 25.5593 21.7956C25.5348 21.546 25.7172 21.3238 25.9668 21.2993C26.2166 21.2741 26.4386 21.4572 26.4631 21.7068C26.5085 22.169 26.5544 22.6419 26.601 23.1256C26.625 23.3752 26.4421 23.5971 26.1925 23.6211C26.1776 23.6226 26.163 23.6232 26.1484 23.6232C25.9173 23.6232 25.7196 23.4474 25.697 23.2126ZM13.5277 17.5832C13.361 17.3958 13.3778 17.1088 13.5653 16.9421C13.7527 16.7754 14.0397 16.7923 14.2063 16.9797C14.5555 17.3721 15.0152 17.5883 15.501 17.5883C15.9868 17.5883 16.4466 17.3722 16.7957 16.9797C16.9624 16.7923 17.2493 16.7754 17.4368 16.9421C17.6241 17.1088 17.6409 17.3958 17.4743 17.5832C16.9505 18.1721 16.2497 18.4965 15.501 18.4965C14.7523 18.4965 14.0515 18.1721 13.5277 17.5832ZM11.6076 13.7167C11.4303 13.5393 11.4303 13.2518 11.6076 13.0745C11.785 12.8972 12.0725 12.8972 12.2498 13.0745C12.4264 13.2511 12.6612 13.3484 12.911 13.3484C13.1608 13.3484 13.3956 13.2511 13.5722 13.0745C13.7495 12.8972 14.0371 12.8972 14.2143 13.0745C14.3917 13.2518 14.3917 13.5393 14.2143 13.7167C13.8662 14.0649 13.4033 14.2566 12.9109 14.2566C12.4187 14.2566 11.9558 14.0649 11.6076 13.7167ZM16.7875 13.7167C16.6102 13.5393 16.6102 13.2518 16.7875 13.0745C16.9648 12.8971 17.2524 12.8972 17.4297 13.0745C17.6063 13.2511 17.8411 13.3484 18.0909 13.3484C18.3407 13.3484 18.5755 13.2511 18.7521 13.0745C18.9295 12.8972 19.217 12.8972 19.3943 13.0745C19.5716 13.2519 19.5716 13.5394 19.3943 13.7167C19.0461 14.0649 18.5832 14.2566 18.0909 14.2566C17.5986 14.2566 17.1357 14.0649 16.7875 13.7167ZM19.4309 11.4797C18.8386 11.1651 17.8378 11.1651 17.2454 11.4797C17.0238 11.5974 16.749 11.5131 16.6314 11.2916C16.5137 11.0701 16.5979 10.7952 16.8195 10.6775C17.6711 10.2253 19.0053 10.2253 19.8569 10.6775C20.0783 10.7952 20.1626 11.0701 20.0449 11.2916C19.9633 11.4453 19.8061 11.5328 19.6435 11.5328C19.5717 11.5328 19.4988 11.5157 19.4309 11.4797Z" fill="#AA8B4E"/>
</svg>
