<svg width="32" height="32" viewBox="0 0 32 32" fill="none" xmlns="http://www.w3.org/2000/svg">
<path d="M31.4667 22.3986H29.8667V15.9986C29.8667 14.8204 28.9115 13.8653 27.7333 13.8653H25.6V8.53193C25.6 7.35373 24.6449 6.39859 23.4667 6.39859H17.0763L19.8933 4.21193C20.9188 3.4136 21.1029 1.9352 20.3047 0.909729C19.5064 -0.115738 18.0279 -0.299871 17.0025 0.498396C16.7605 0.686795 16.5577 0.920662 16.4054 1.18686L16.1446 1.6434L15.8838 1.18686C15.2377 0.0592622 13.7999 -0.331138 12.6723 0.314929C11.5447 0.960995 11.1543 2.3988 11.8004 3.5264C11.9521 3.79126 12.154 4.02406 12.3947 4.21186L15.2097 6.39853H8.53333C7.35513 6.39853 6.4 7.35366 6.4 8.53186V13.8652H4.26667C3.08847 13.8652 2.13333 14.8203 2.13333 15.9985V22.3985H0.533333C0.2388 22.3985 0 22.6373 0 22.9319C0.00173333 24.4039 1.19467 25.5968 2.66667 25.5985H14.4V28.7985H12.2667C10.7947 28.8003 9.60173 29.9932 9.6 31.4652C9.6 31.7597 9.8388 31.9985 10.1333 31.9985H21.8667C22.1612 31.9985 22.4 31.7597 22.4 31.4652C22.3983 29.9932 21.2053 28.8003 19.7333 28.7985H17.6V25.5985H29.3333C30.8053 25.5968 31.9983 24.4039 32 22.9319C32 22.6373 31.7612 22.3986 31.4667 22.3986ZM13.0501 3.36713C12.5037 2.94453 12.3897 2.1654 12.792 1.60393C13.0299 1.264 13.4197 1.0626 13.8347 1.06526C13.8576 1.06526 13.8811 1.06526 13.904 1.06526C14.3433 1.08306 14.7418 1.32786 14.9563 1.71166L15.68 2.97993C15.8263 3.2356 16.1521 3.32426 16.4078 3.178C16.4903 3.1308 16.5587 3.0624 16.6059 2.97993L17.3301 1.71326C17.6823 1.0966 18.4677 0.882195 19.0845 1.2344C19.2459 1.3266 19.3854 1.45266 19.4933 1.60393C19.896 2.165 19.7827 2.94406 19.2368 3.36713L16.1435 5.77353L13.0501 3.36713ZM7.46667 9.5986H8V8.53193H7.46667C7.46667 7.94279 7.9442 7.46526 8.53333 7.46526H23.4667C24.0558 7.46526 24.5333 7.94279 24.5333 8.53193H24V9.5986H24.5333V11.0146C23.8313 10.7658 23.2384 10.2795 22.8571 9.63966C22.7053 9.38726 22.3776 9.30566 22.1251 9.45746C22.0504 9.5024 21.9878 9.565 21.9429 9.63966C21.0407 11.1545 19.0813 11.6512 17.5663 10.749C17.1101 10.4773 16.7287 10.0959 16.457 9.63966C16.3052 9.38726 15.9775 9.30566 15.7251 9.45746C15.6503 9.5024 15.5878 9.565 15.5429 9.63966C14.6407 11.1545 12.6813 11.6512 11.1663 10.749C10.71 10.4773 10.3287 10.0959 10.057 9.63966C9.884 9.38726 9.53907 9.32286 9.28667 9.49586C9.23027 9.53453 9.18153 9.58326 9.14287 9.63966C8.76153 10.2795 8.1686 10.7658 7.4666 11.0146V9.5986H7.46667ZM7.46667 12.1255C8.2934 11.9142 9.037 11.458 9.6 10.8167C11.1528 12.5841 13.8443 12.7579 15.6117 11.2051C15.7493 11.0841 15.8791 10.9544 16 10.8167C17.5528 12.5841 20.2443 12.7579 22.0117 11.2051C22.1493 11.0841 22.2791 10.9544 22.4 10.8167C22.963 11.458 23.7066 11.9142 24.5333 12.1255V13.8653H7.46667V12.1255ZM3.2 17.0653H4.26667V15.9986H3.2C3.2 15.4095 3.67753 14.9319 4.26667 14.9319H27.7333C28.3225 14.9319 28.8 15.4095 28.8 15.9986H27.7333V17.0653H28.8V18.6653C27.6741 18.6684 26.6305 18.0753 26.0571 17.1063C25.9053 16.8539 25.5776 16.7723 25.3251 16.9241C25.2504 16.9691 25.1878 17.0317 25.1429 17.1063C24.2407 18.6212 22.2813 19.1179 20.7663 18.2157C20.3101 17.9439 19.9287 17.5626 19.657 17.1063C19.484 16.8539 19.1391 16.7895 18.8867 16.9625C18.8303 17.0012 18.7815 17.0499 18.7429 17.1063C17.8407 18.6212 15.8813 19.1179 14.3663 18.2157C13.91 17.9439 13.5287 17.5626 13.257 17.1063C13.084 16.8539 12.7391 16.7895 12.4867 16.9625C12.4303 17.0012 12.3815 17.0499 12.3429 17.1063C11.4407 18.6212 9.48127 19.1179 7.96633 18.2157C7.51 17.9439 7.12873 17.5626 6.857 17.1063C6.684 16.8539 6.33907 16.7895 6.08667 16.9625C6.03027 17.0012 5.98153 17.0499 5.94287 17.1063C5.36947 18.0753 4.32593 18.6683 3.2 18.6653V17.0653ZM3.2 19.7319C4.42633 19.7367 5.59413 19.2083 6.4 18.2839C7.9528 20.0513 10.6443 20.2251 12.4117 18.6723C12.5493 18.5513 12.6791 18.4216 12.8 18.2839C14.3528 20.0513 17.0443 20.2251 18.8117 18.6723C18.9493 18.5513 19.0791 18.4216 19.2 18.2839C20.7528 20.0513 23.4443 20.2251 25.2117 18.6723C25.3493 18.5513 25.4791 18.4216 25.6 18.2839C26.4059 19.2083 27.5737 19.7367 28.8 19.7319V22.3986H3.2V19.7319ZM19.7333 29.8653C20.4112 29.8661 21.0153 30.2931 21.2421 30.9319H10.7579C10.9847 30.2931 11.5888 29.8661 12.2667 29.8653H19.7333ZM15.4667 28.7986V25.5986H16.5333V28.7986H15.4667ZM29.3333 24.5319H2.66667C1.9888 24.5311 1.38473 24.1041 1.15787 23.4653H30.8421C30.6153 24.104 30.0112 24.5311 29.3333 24.5319Z" fill="#AA8B4E"/>
</svg>
