<svg width="65" height="49" viewBox="0 0 65 49" fill="none" xmlns="http://www.w3.org/2000/svg">
<rect opacity="0.2" x="15.2002" width="49" height="49" rx="2" fill="url(#paint0_linear_131_1237)"/>
<g clip-path="url(#clip0_131_1237)">
<path d="M39.6279 39.4219H38.227V28.4506C38.227 26.9004 36.9659 25.6393 35.4157 25.6393H34.9458V18.6048C34.9458 17.3439 34.1113 16.2744 32.9657 15.919V8.41404C32.9657 8.18591 32.8724 7.9796 32.7221 7.83096C33.2952 6.79556 33.1439 5.4633 32.2662 4.58573L30.9207 3.24025C30.6004 2.91992 30.081 2.92 29.7607 3.24025L28.4152 4.58573C27.5376 5.46338 27.3862 6.79556 27.9593 7.83096C27.809 7.97969 27.7157 8.18591 27.7157 8.41404V15.7934H23.6359V8.41404C23.6359 8.18591 23.5426 7.9796 23.3922 7.83096C23.9654 6.79556 23.814 5.46338 22.9364 4.58573L21.5909 3.24025C21.2706 2.91992 20.7512 2.91992 20.4307 3.24025L19.0853 4.58573C18.2077 5.46338 18.0563 6.79556 18.6294 7.83096C18.4791 7.97969 18.3858 8.18591 18.3858 8.41404V15.7934H14.306V8.41404C14.306 8.18591 14.2127 7.9796 14.0623 7.83096C14.6355 6.79556 14.4841 5.46338 13.6065 4.58573L12.2612 3.24025C11.9408 2.92 11.4214 2.92 11.1011 3.24025L9.75553 4.58573C8.87796 5.46338 8.72653 6.79556 9.29968 7.83096C9.14932 7.97969 9.05605 8.18591 9.05605 8.41404V15.913C7.89982 16.2618 7.05514 17.3363 7.05514 18.6047V25.6392H6.58519C5.03504 25.6393 3.77389 26.9004 3.77389 28.4506V39.4219H2.37305C1.91999 39.4219 1.55273 39.7891 1.55273 40.2422C1.55273 42.8656 3.68702 45 6.31055 45H35.6904C38.3138 45 40.4482 42.8656 40.4482 40.2422C40.4482 39.7891 40.0809 39.4219 39.6279 39.4219ZM29.5753 5.74581L30.3407 4.98038L31.1061 5.74581C31.5283 6.16786 31.5283 6.85463 31.1061 7.27668C30.6842 7.69873 29.9973 7.69881 29.5753 7.27668C29.1532 6.85463 29.1532 6.16786 29.5753 5.74581ZM29.3563 9.23435H31.3251V15.7934H29.3563V9.23435ZM20.2455 5.74581L21.011 4.98038L21.7763 5.74581C22.1984 6.16786 22.1984 6.85463 21.7763 7.27668C21.3543 7.69881 20.6675 7.69881 20.2455 7.27668C19.8234 6.85463 19.8234 6.16786 20.2455 5.74581ZM20.0265 9.23435H21.9953V15.7934H20.0265V9.23435ZM10.6967 9.23435H12.6654V15.7934H10.6967V9.23435ZM10.9156 5.74581L11.6811 4.98038L12.4466 5.74581C12.8687 6.16786 12.8687 6.85463 12.4466 7.27668C12.0245 7.69881 11.3377 7.69873 10.9157 7.27668C10.4936 6.85463 10.4936 6.16786 10.9156 5.74581ZM8.69577 18.6047C8.69577 17.9592 9.22093 17.434 9.86644 17.434H9.87636H32.1345C32.78 17.434 33.3051 17.9592 33.3051 18.6047V25.6392H8.69577V18.6047ZM6.58519 27.2799H35.4157C36.0612 27.2799 36.5864 27.8051 36.5864 28.4506V29.3654H35.063C33.3183 29.3654 31.8989 30.7848 31.8989 32.5294V33.0132C31.8989 33.8532 31.2155 34.5366 30.3755 34.5366C29.5355 34.5366 28.8521 33.8532 28.8521 33.0132V32.5294C28.8521 30.7848 27.4327 29.3654 25.6881 29.3654C23.9433 29.3654 22.5239 30.7848 22.5239 32.5294V33.0132C22.5239 33.8532 21.8405 34.5366 21.0005 34.5366C20.1605 34.5366 19.4771 33.8532 19.4771 33.0132V32.5294C19.4771 30.7848 18.0577 29.3654 16.313 29.3654C14.5684 29.3654 13.149 30.7848 13.149 32.5294V33.0132C13.149 33.8532 12.4656 34.5366 11.6256 34.5366C10.7856 34.5366 10.1022 33.8532 10.1022 33.0132V32.5294C10.1022 30.7848 8.68281 29.3654 6.93809 29.3654H5.41452V28.4506C5.41452 27.8051 5.93968 27.2799 6.58519 27.2799ZM35.6904 43.3594H6.31055C4.87549 43.3594 3.66381 42.3847 3.30287 41.0625H17.3091C17.7621 41.0625 18.1294 40.6952 18.1294 40.2422C18.1294 39.7891 17.7621 39.4219 17.3091 39.4219H5.41452V31.006H6.93792C7.778 31.006 8.46141 31.6894 8.46141 32.5294V33.0132C8.46141 34.7578 9.88079 36.1772 11.6254 36.1772C13.3701 36.1772 14.7895 34.7578 14.7895 33.0132V32.5294C14.7895 31.6894 15.4729 31.006 16.3129 31.006C17.1529 31.006 17.8363 31.6894 17.8363 32.5294V33.0132C17.8363 34.7578 19.2557 36.1772 21.0004 36.1772C22.745 36.1772 24.1644 34.7578 24.1644 33.0132V32.5294C24.1644 31.6894 24.8478 31.006 25.6879 31.006C26.5279 31.006 27.2113 31.6894 27.2113 32.5294V33.0132C27.2113 34.7578 28.6307 36.1772 30.3753 36.1772C32.12 36.1772 33.5393 34.7578 33.5393 33.0132V32.5294C33.5393 31.6894 34.2227 31.006 35.0628 31.006H36.5864V39.4219H24.6919C24.2388 39.4219 23.8715 39.7891 23.8715 40.2422C23.8715 40.6952 24.2388 41.0625 24.6919 41.0625H38.698C38.3371 42.3847 37.1254 43.3594 35.6904 43.3594Z" fill="#AA8B4E"/>
<path d="M21 39.4219C20.7843 39.4219 20.5726 39.5096 20.42 39.6622C20.2675 39.8148 20.1797 40.0264 20.1797 40.2422C20.1797 40.4579 20.2675 40.6696 20.42 40.8221C20.5726 40.9747 20.7843 41.0625 21 41.0625C21.2157 41.0625 21.4274 40.9747 21.58 40.8221C21.7325 40.6696 21.8203 40.4579 21.8203 40.2422C21.8203 40.0264 21.7325 39.8148 21.58 39.6622C21.4274 39.5096 21.2157 39.4219 21 39.4219Z" fill="#AA8B4E"/>
</g>
<defs>
<linearGradient id="paint0_linear_131_1237" x1="64.0002" y1="25" x2="15.0002" y2="25" gradientUnits="userSpaceOnUse">
<stop stop-color="#AA8B4E"/>
<stop offset="1" stop-color="#AA8B4E" stop-opacity="0"/>
</linearGradient>
<clipPath id="clip0_131_1237">
<rect width="42" height="42" fill="white" transform="translate(0 3)"/>
</clipPath>
</defs>
</svg>
