<svg width="31" height="31" viewBox="0 0 31 31" fill="none" xmlns="http://www.w3.org/2000/svg">
<g opacity="0.7">
<path d="M28.6032 6.39178H25.6786L23.9007 3.4288C23.8989 3.42589 23.8969 3.42329 23.8951 3.42044C23.89 3.41233 23.8847 3.40446 23.8791 3.39664C23.875 3.39089 23.8708 3.38526 23.8665 3.37981C23.8616 3.37346 23.8564 3.36722 23.851 3.3611C23.8456 3.35499 23.8403 3.34899 23.8347 3.34318C23.8298 3.3381 23.8248 3.33319 23.8197 3.32835C23.8134 3.32241 23.8071 3.31654 23.8006 3.31097C23.7953 3.30649 23.7899 3.30219 23.7846 3.29795C23.778 3.29281 23.7712 3.28772 23.7645 3.28294C23.7582 3.27858 23.7519 3.27452 23.7455 3.27046C23.7391 3.26641 23.7328 3.26247 23.7262 3.25878C23.7187 3.25454 23.7111 3.25061 23.7034 3.24679C23.6977 3.24388 23.6919 3.24104 23.686 3.23844C23.6774 3.23462 23.6687 3.23111 23.6599 3.22778C23.6543 3.22566 23.6488 3.2236 23.6433 3.22172C23.6343 3.2187 23.6252 3.21603 23.6159 3.21349C23.61 3.21186 23.6041 3.21028 23.5981 3.20889C23.5894 3.20689 23.5806 3.2052 23.5719 3.20362C23.5648 3.20235 23.5576 3.20126 23.5504 3.20029C23.5427 3.19932 23.5349 3.19854 23.5271 3.19793C23.5183 3.1972 23.5096 3.19678 23.5007 3.1966C23.497 3.19648 23.4933 3.19605 23.4896 3.19605H13.9023C13.8987 3.19605 13.8955 3.19648 13.892 3.1966C13.8826 3.19684 13.8733 3.19726 13.8639 3.19799C13.8567 3.19854 13.8495 3.19932 13.8423 3.20017C13.8346 3.20114 13.8268 3.20235 13.8191 3.20374C13.8108 3.2052 13.8026 3.20683 13.7945 3.20865C13.788 3.21016 13.7815 3.21186 13.775 3.21361C13.7663 3.21603 13.7576 3.21852 13.7491 3.22142C13.7431 3.22342 13.7371 3.22572 13.7312 3.22796C13.7228 3.23117 13.7145 3.2345 13.7063 3.23813C13.7001 3.24092 13.694 3.24395 13.6879 3.24703C13.6804 3.25073 13.6731 3.25454 13.6659 3.2586C13.6592 3.26241 13.6526 3.26647 13.6461 3.27059C13.6399 3.27452 13.6337 3.27852 13.6276 3.28282C13.6207 3.28766 13.6139 3.29275 13.6073 3.29801C13.6018 3.30225 13.5965 3.30649 13.5913 3.31091C13.5848 3.31648 13.5785 3.32229 13.5723 3.32823C13.5671 3.33313 13.562 3.3381 13.5571 3.34324C13.5516 3.34899 13.5462 3.35493 13.541 3.36098C13.5356 3.36716 13.5304 3.37346 13.5253 3.37987C13.521 3.38532 13.5169 3.39089 13.5128 3.39658C13.5072 3.40433 13.5019 3.41233 13.4968 3.42044C13.495 3.42335 13.493 3.42589 13.4912 3.4288L11.7133 6.39178H7.35059V4.95373C7.35059 4.68896 7.13601 4.47438 6.87124 4.47438H3.03619C2.77142 4.47438 2.55684 4.68902 2.55684 4.95373V6.39178H2.39693C1.07525 6.39178 0 7.46704 0 8.78866V25.4072C0 26.7289 1.07525 27.8041 2.39687 27.8041H28.6031C29.9248 27.8041 31 26.7289 31 25.4072V8.78866C31.0001 7.46704 29.9248 6.39178 28.6032 6.39178ZM3.51554 5.43308H6.39183V6.39178H3.51554V5.43308ZM28.6032 26.8454H7.35059V8.78872C7.35059 8.52395 7.13601 8.30937 6.87124 8.30937C6.60646 8.30937 6.39189 8.52401 6.39189 8.78872V26.8454H2.39687C1.60389 26.8454 0.958762 26.2003 0.958762 25.4073V22.0196H2.397C2.66177 22.0196 2.87635 21.8049 2.87635 21.5402C2.87635 21.2754 2.66177 21.0609 2.397 21.0609H0.958762V19.4789H2.397C2.66177 19.4789 2.87635 19.2643 2.87635 18.9995C2.87635 18.7348 2.66177 18.5202 2.397 18.5202H0.958762V16.9381H2.397C2.66177 16.9381 2.87635 16.7235 2.87635 16.4588C2.87635 16.194 2.66177 15.9794 2.397 15.9794H0.958762V14.3974H2.397C2.66177 14.3974 2.87635 14.1828 2.87635 13.9181C2.87635 13.6533 2.66177 13.4387 2.397 13.4387H0.958762V8.78878C0.958762 7.99579 1.60395 7.35067 2.39687 7.35067H11.9833C11.9836 7.35067 11.9839 7.35073 11.9842 7.35073C11.9853 7.35073 11.9863 7.35055 11.9873 7.35055C12.0054 7.35042 12.0231 7.34915 12.0405 7.34715C12.0454 7.34655 12.0503 7.34564 12.0552 7.34491C12.0694 7.34279 12.0834 7.34019 12.0972 7.33686C12.102 7.33565 12.1068 7.33444 12.1116 7.33311C12.1264 7.32905 12.1408 7.32433 12.1549 7.31894C12.1583 7.31767 12.1617 7.31664 12.1649 7.31531C12.1824 7.30822 12.1993 7.30029 12.2157 7.29133C12.2184 7.28976 12.2212 7.28788 12.224 7.28624C12.2368 7.27874 12.2495 7.27074 12.2617 7.26209C12.267 7.25833 12.2721 7.2544 12.2773 7.2504C12.2875 7.24253 12.2973 7.23423 12.3068 7.22558C12.3111 7.22164 12.3156 7.21783 12.3199 7.21365C12.3331 7.20087 12.3454 7.18737 12.3569 7.17308C12.3593 7.17018 12.3613 7.16709 12.3636 7.16412C12.3736 7.15122 12.3828 7.13778 12.3915 7.12398C12.3928 7.12186 12.3944 7.12004 12.3957 7.11792L14.1736 4.15494H23.2183L24.9962 7.11792C24.9975 7.1201 24.9991 7.12186 25.0003 7.12398C25.009 7.13784 25.0183 7.15129 25.0283 7.16412C25.0306 7.16703 25.0326 7.17018 25.035 7.17308C25.0465 7.18731 25.0589 7.20081 25.072 7.21365C25.0762 7.21783 25.0807 7.22158 25.085 7.22558C25.0945 7.23423 25.1044 7.24253 25.1145 7.2504C25.1197 7.2544 25.1248 7.25833 25.1302 7.26209C25.1423 7.27074 25.1549 7.27874 25.1679 7.28624C25.1707 7.28788 25.1734 7.28976 25.1762 7.29133C25.1925 7.30035 25.2095 7.30822 25.2268 7.31531C25.2302 7.31664 25.2336 7.31773 25.2369 7.31894C25.2511 7.32433 25.2655 7.32905 25.2802 7.33311C25.285 7.33444 25.2899 7.33565 25.2947 7.33686C25.3085 7.34019 25.3224 7.34279 25.3366 7.34491C25.3415 7.34564 25.3464 7.34655 25.3513 7.34715C25.3688 7.34915 25.3864 7.35042 25.4045 7.35055C25.4055 7.35055 25.4065 7.35073 25.4075 7.35073C25.4078 7.35073 25.4081 7.35067 25.4085 7.35067H28.6031C29.3961 7.35067 30.0412 7.99579 30.0412 8.78878V25.4073H30.0413C30.0413 26.2003 29.3961 26.8454 28.6032 26.8454Z" fill="#AA8B4E"/>
<path d="M18.695 10.866C15.0825 10.866 12.1436 13.805 12.1436 17.4175C12.1436 21.0299 15.0826 23.9689 18.695 23.9689C22.3075 23.9689 25.2465 21.0299 25.2465 17.4175C25.2465 13.8049 22.3075 10.866 18.695 10.866ZM18.695 23.0102C15.6111 23.0102 13.1023 20.5013 13.1023 17.4175C13.1023 14.3336 15.6112 11.8247 18.695 11.8247C21.779 11.8247 24.2878 14.3336 24.2878 17.4175C24.2878 20.5013 21.7789 23.0102 18.695 23.0102Z" fill="#AA8B4E"/>
<path d="M21.417 15.1892C21.0082 14.7804 20.4648 14.5553 19.8867 14.5553C19.4567 14.5553 19.0457 14.6799 18.6953 14.9119C18.3447 14.6799 17.9339 14.5553 17.5039 14.5553C16.9259 14.5553 16.3823 14.7803 15.9734 15.1892C15.1299 16.0332 15.1299 17.4063 15.9735 18.2501L18.3564 20.6328C18.45 20.7264 18.5727 20.7732 18.6953 20.7732C18.818 20.7732 18.9407 20.7264 19.0344 20.6328L21.4169 18.2501C21.8258 17.8413 22.0511 17.2977 22.0511 16.7196C22.0511 16.1415 21.8258 15.5979 21.417 15.1892ZM20.739 17.5721L18.6953 19.6158L16.6514 17.5722C16.1815 17.1022 16.1816 16.3372 16.6514 15.8671C16.8791 15.6394 17.1819 15.514 17.5038 15.514C17.8258 15.514 18.1286 15.6395 18.3564 15.8672C18.5436 16.0543 18.847 16.0543 19.0343 15.8671C19.2619 15.6394 19.5646 15.514 19.8866 15.514C20.2086 15.514 20.5113 15.6394 20.739 15.8671C20.9668 16.0948 21.0923 16.3976 21.0923 16.7196C21.0923 17.0416 20.9669 17.3444 20.739 17.5721Z" fill="#AA8B4E"/>
<path d="M23.2953 6.69299L22.784 5.41478C22.7836 5.41375 22.783 5.41291 22.7827 5.41188C22.7784 5.40152 22.7736 5.39153 22.7687 5.3816C22.7664 5.37706 22.7644 5.37234 22.7621 5.36792C22.7578 5.35975 22.7529 5.352 22.7481 5.34413C22.7445 5.33825 22.7412 5.33214 22.7374 5.32639C22.734 5.32136 22.7302 5.31676 22.7268 5.31192C22.721 5.30392 22.7153 5.29581 22.709 5.2883C22.7077 5.28661 22.7061 5.28503 22.7046 5.28328C22.686 5.26136 22.6659 5.24107 22.644 5.22303C22.6421 5.22146 22.64 5.22013 22.6381 5.21861C22.6282 5.21074 22.6182 5.20299 22.6077 5.19591C22.5966 5.18834 22.5849 5.18144 22.5731 5.17484C22.5717 5.17405 22.5704 5.17308 22.569 5.17229C22.5439 5.15849 22.5172 5.14717 22.4896 5.13802C22.4878 5.13742 22.486 5.13669 22.4842 5.13609C22.4747 5.13306 22.4647 5.1307 22.455 5.12828C22.4494 5.12688 22.444 5.12519 22.4385 5.12404C22.4315 5.12252 22.4243 5.12168 22.4171 5.12047C22.4084 5.11901 22.3996 5.11738 22.3907 5.11641C22.3855 5.11586 22.3802 5.11574 22.3749 5.11532C22.364 5.11453 22.3531 5.11374 22.3421 5.11368C22.341 5.11368 22.34 5.1135 22.3389 5.1135H15.0523C15.0514 5.1135 15.0505 5.11362 15.0496 5.11362C15.0378 5.11374 15.026 5.11447 15.0144 5.11538C15.0099 5.11574 15.0055 5.11586 15.001 5.11629C14.9911 5.11732 14.9814 5.11907 14.9717 5.12077C14.9656 5.12186 14.9593 5.12258 14.9533 5.12386C14.9465 5.12531 14.9399 5.12725 14.9333 5.129C14.9246 5.13124 14.9158 5.13324 14.9073 5.1359C14.9041 5.13687 14.9011 5.13827 14.8979 5.13936C14.8863 5.14329 14.8749 5.14735 14.8636 5.15213C14.863 5.15243 14.8623 5.15274 14.8617 5.15304C14.8483 5.15885 14.8351 5.16515 14.8224 5.17211C14.8193 5.17381 14.8164 5.17587 14.8134 5.17762C14.8034 5.18343 14.7933 5.18925 14.7837 5.19573C14.7726 5.20317 14.7621 5.21129 14.7516 5.2197C14.7503 5.22085 14.7487 5.22182 14.7473 5.22291C14.7255 5.24089 14.7054 5.26106 14.6869 5.28297C14.6853 5.28473 14.6836 5.28636 14.6822 5.28824C14.676 5.29575 14.6704 5.30374 14.6647 5.31167C14.6611 5.31658 14.6572 5.3213 14.6539 5.32639C14.6502 5.33202 14.6468 5.33807 14.6433 5.34394C14.6385 5.35188 14.6335 5.35969 14.6292 5.36786C14.6269 5.37228 14.6249 5.377 14.6226 5.38154C14.6177 5.39147 14.6129 5.40146 14.6086 5.41182C14.6083 5.41285 14.6078 5.41375 14.6073 5.41472L14.096 6.69293C13.9976 6.93881 14.1171 7.21775 14.3629 7.31614C14.4214 7.33951 14.4816 7.35059 14.5409 7.35059C14.7311 7.35059 14.9111 7.23658 14.9861 7.04913L15.377 6.07226H22.0143L22.4051 7.04913C22.4801 7.23658 22.6601 7.35059 22.8504 7.35059C22.9096 7.35059 22.9699 7.33951 23.0283 7.31614C23.2741 7.21781 23.3937 6.93881 23.2953 6.69299Z" fill="#AA8B4E"/>
<path d="M27.6436 8.30923C26.8504 8.30923 26.2051 8.95454 26.2051 9.74776C26.2051 10.5409 26.8504 11.1863 27.6436 11.1863C28.4368 11.1863 29.0821 10.541 29.0821 9.74776C29.0821 8.95454 28.4368 8.30923 27.6436 8.30923ZM27.6436 10.2275C27.3791 10.2275 27.1638 10.0122 27.1638 9.7477C27.1638 9.48317 27.3791 9.26793 27.6436 9.26793C27.9081 9.26793 28.1234 9.48317 28.1234 9.7477C28.1234 10.0122 27.9081 10.2275 27.6436 10.2275Z" fill="#AA8B4E"/>
<path d="M26.9085 15.3524C25.9843 11.6774 22.6524 8.94837 18.6946 8.94837C14.0248 8.94837 10.2256 12.7476 10.2256 17.4174C10.2256 22.0872 14.0248 25.8864 18.6946 25.8864C22.6523 25.8864 25.9843 23.1574 26.9085 19.4823C27.9488 19.3701 28.7616 18.4869 28.7616 17.4174C28.7616 16.3477 27.9489 15.4646 26.9085 15.3524ZM18.6947 24.9276C14.5535 24.9276 11.1844 21.5586 11.1844 17.4174C11.1844 13.2762 14.5535 9.90713 18.6947 9.90713C22.3042 9.90713 25.3267 12.4668 26.0434 15.8661C26.0437 15.8695 26.0436 15.8728 26.0439 15.8762C26.0475 15.9118 26.0553 15.9458 26.066 15.9785C26.1568 16.4443 26.2049 16.9253 26.2049 17.4174C26.2049 21.5586 22.8358 24.9276 18.6947 24.9276ZM27.1 18.4549C27.1418 18.1148 27.1636 17.7686 27.1636 17.4174C27.1636 17.0661 27.1417 16.7199 27.0999 16.3798C27.5113 16.5453 27.8027 16.9476 27.8027 17.4174C27.8028 17.8872 27.5113 18.2895 27.1 18.4549Z" fill="#AA8B4E"/>
<path d="M10.7064 9.5876H8.78892C8.52415 9.5876 8.30957 9.80224 8.30957 10.067C8.30957 10.3317 8.52415 10.5463 8.78892 10.5463H10.7064C10.9712 10.5463 11.1858 10.3317 11.1858 10.067C11.1858 9.80218 10.9712 9.5876 10.7064 9.5876Z" fill="#AA8B4E"/>
</g>
</svg>
