<svg width="22" height="22" viewBox="0 0 22 22" fill="none" xmlns="http://www.w3.org/2000/svg">
    <g clip-path="url(#clip0_2_2392)">
    <path d="M21.371 3.00745C21.0473 2.68325 20.5222 2.68269 20.1986 3.00607L10.2516 12.9268L6.66275 9.02896C6.35265 8.69234 5.82834 8.67051 5.49117 8.98058C5.15425 9.29068 5.13268 9.81525 5.44278 10.1522L9.61617 14.6845C9.76901 14.8507 9.98291 14.9471 10.2085 14.9518C10.2145 14.9521 10.2204 14.9521 10.2262 14.9521C10.4453 14.9521 10.6562 14.865 10.8115 14.7102L21.3693 4.18011C21.6938 3.85677 21.6943 3.33165 21.371 3.00745Z" fill="#AA8B4E"/>
    <path d="M21.1708 10.1708C20.7129 10.1708 20.3417 10.542 20.3417 11C20.3417 16.1512 16.1512 20.3417 11 20.3417C5.84908 20.3417 1.65829 16.1512 1.65829 11C1.65829 5.84908 5.84908 1.65829 11 1.65829C11.458 1.65829 11.8292 1.28713 11.8292 0.829168C11.8292 0.371164 11.458 0 11 0C4.93453 0 0 4.93453 0 11C0 17.0652 4.93453 22 11 22C17.0652 22 22 17.0652 22 11C22 10.542 21.6288 10.1708 21.1708 10.1708Z" fill="#AA8B4E"/>
    </g>
    <defs>
    <clipPath id="clip0_2_2392">
    <rect width="22" height="22" fill="white"/>
    </clipPath>
    </defs>
</svg>
