<svg width="51" height="45" viewBox="0 0 51 45" fill="none" xmlns="http://www.w3.org/2000/svg">
<path d="M41.875 36.1523V37.9314C41.875 38.344 42.2094 38.6784 42.6221 38.6784C43.0348 38.6784 43.3691 38.344 43.3691 37.9314V36.1523C43.3691 35.7397 43.0348 35.4053 42.6221 35.4053C42.2094 35.4053 41.875 35.7397 41.875 36.1523Z" fill="#AA8B4E"/>
<path d="M50.2529 29.8922H39.6674C39.0389 29.8922 38.5277 30.4036 38.5277 31.0321V31.7444H35.3432C34.5259 31.7444 33.8386 32.3032 33.6381 33.0581L30.1398 32.0779C29.8765 32.0042 29.7082 31.7445 29.748 31.4741L30.4602 26.6447C30.5187 26.2486 30.4724 25.8499 30.3334 25.4843H36.3306C37.8963 25.4843 39.17 24.2106 39.17 22.645V20.4609C39.17 20.0482 38.8356 19.7139 38.4229 19.7139H36.3108V18.6037C36.3108 10.5365 29.9173 3.93553 21.9314 3.59905V3.15499C21.9314 1.86127 20.8788 0.808594 19.585 0.808594C18.2912 0.808594 17.2386 1.86117 17.2386 3.15499V3.59905C15.1919 3.68362 13.2231 4.1733 11.3776 5.06072C11.0057 5.23952 10.8493 5.68587 11.0281 6.05771C11.2069 6.42955 11.6531 6.58584 12.025 6.40724C13.8586 5.5256 15.8279 5.07855 17.8784 5.07855H21.2916C28.7494 5.07855 34.8167 11.1459 34.8167 18.6036V19.7138H4.35333V18.6036C4.35333 14.3835 6.27151 10.4807 9.61599 7.8959C9.94241 7.64359 10.0026 7.17443 9.75036 6.84791C9.49805 6.52149 9.02889 6.46143 8.70237 6.71354C4.98894 9.58348 2.85919 13.9171 2.85919 18.6035V19.7137H0.74707C0.334389 19.7137 0 20.048 0 20.4607V22.6448C0 24.2104 1.27371 25.4841 2.83937 25.4841H8.11876C7.88727 26.2274 8.07464 27.015 8.63215 27.5818L12.2901 31.3006C14.652 33.7018 17.3681 35.701 20.363 37.2422C23.358 38.7835 26.5632 39.832 29.8902 40.3585L33.6186 40.9485C33.7914 41.7423 34.4986 42.3388 35.3434 42.3388H38.5279V43.0512C38.5279 43.6798 39.0392 44.1911 39.6676 44.1911H43.2712C43.6839 44.1911 44.0183 43.8567 44.0183 43.444C44.0183 43.0313 43.6839 42.6969 43.2712 42.6969H40.0221V31.3864H49.5059V42.6973H46.258C45.8453 42.6973 45.5109 43.0317 45.5109 43.4444C45.5109 43.8571 45.8453 44.1915 46.258 44.1915H50.2529C50.6656 44.1915 51 43.8571 51 43.4444V30.6393C51 30.2266 50.6656 29.8922 50.2529 29.8922ZM19.585 2.30293C20.055 2.30293 20.4373 2.68523 20.4373 3.15519V3.58471H18.7328V3.15519C18.7327 2.68523 19.115 2.30293 19.585 2.30293ZM1.49414 22.6451V21.2081H37.6758V22.6451C37.6758 23.3868 37.0723 23.9903 36.3306 23.9903H23.0407C22.6281 23.9903 22.2937 24.3247 22.2937 24.7374C22.2937 25.15 22.6281 25.4844 23.0407 25.4844H25.9459L23.3741 29.5269C23.0108 30.0981 22.26 30.2922 21.6655 29.9686L13.4212 25.4844H20.0537C20.4663 25.4844 20.8007 25.15 20.8007 24.7374C20.8007 24.3247 20.4663 23.9903 20.0537 23.9903H2.83937C2.09767 23.9903 1.49414 23.3868 1.49414 22.6451ZM21.0467 35.9139C18.1933 34.4455 15.6055 32.5409 13.3551 30.253L9.69717 26.5342C9.20371 26.0325 9.80595 25.2188 10.4319 25.5594L20.9516 31.2812C22.2334 31.9783 23.8515 31.5601 24.6349 30.3287L27.4746 25.8653C27.9489 25.1199 29.1108 25.5537 28.9821 26.4266L28.2699 31.2562C28.1206 32.2685 28.7512 33.2403 29.7367 33.5165L33.5773 34.5927V39.4294L30.1236 38.8829C26.9539 38.3815 23.9001 37.3824 21.0467 35.9139ZM35.3432 40.845C35.1933 40.845 35.0714 40.723 35.0714 40.5732V33.5106C35.0714 33.3606 35.1934 33.2387 35.3432 33.2387H38.5277V40.8451H35.3432V40.845Z" fill="#AA8B4E"/>
</svg>
