<svg width="65" height="54" viewBox="0 0 65 54" fill="none" xmlns="http://www.w3.org/2000/svg">
<rect opacity="0.2" x="15.2051" y="5" width="49" height="49" rx="2" fill="url(#paint0_linear_131_1239)"/>
<g clip-path="url(#clip0_131_1239)">
<path d="M8.95189 45.7078C11.08 46.4766 13.3267 46.8651 15.5894 46.8555C18.0602 46.847 20.5121 46.4248 22.8434 45.6063C27.5296 43.9763 31.4207 40.9431 33.7997 37.0656C36.2109 33.1358 36.787 28.8105 35.4221 24.8863C35.3957 24.8116 35.3651 24.7383 35.3307 24.6669C35.6732 24.9094 36.0653 25.0728 36.4786 25.1452C36.892 25.2177 37.3162 25.1975 37.7208 25.086L50.6174 18.8281C50.9088 18.6881 51.1695 18.4915 51.3842 18.2497C51.5989 18.008 51.7633 17.726 51.868 17.4201C51.9726 17.1141 52.0154 16.7905 51.9937 16.4679C51.9721 16.1453 51.8865 15.8302 51.7419 15.541L51.5516 15.1605C51.2708 14.5966 50.7824 14.1636 50.1889 13.9525C49.5955 13.7414 48.9433 13.7686 48.3695 14.0285L36.2246 19.5738C35.6194 19.7417 35.0862 20.1037 34.7068 20.6041C34.3274 21.1046 34.1228 21.7158 34.1246 22.3438C34.1244 22.6662 34.1794 22.9863 34.2871 23.2902L34.0481 23.4495C30.8599 21.855 23.1278 23.1405 15.9034 25.6534C15.479 25.801 15.0558 25.9532 14.6339 26.1098C13.8355 23.152 15.9016 20.9992 16.014 20.8852L14.8629 19.7383C14.0756 20.5897 13.4867 21.605 13.1385 22.7111C12.7274 24.0068 12.716 25.3963 13.1059 26.6985C11.8059 27.2176 10.5567 27.7663 9.37459 28.3366C8.719 25.903 8.66081 23.3919 8.75008 21.5774C8.7676 21.2112 8.71175 20.8451 8.58581 20.5008C8.45988 20.1564 8.2664 19.8407 8.01674 19.5722C7.76708 19.3037 7.46628 19.0877 7.132 18.9371C6.79772 18.7865 6.4367 18.7041 6.07016 18.695C5.70362 18.6858 5.33895 18.75 4.99756 18.8837C4.65617 19.0175 4.34495 19.2181 4.08219 19.4738C3.81942 19.7295 3.61041 20.0352 3.46742 20.3728C3.32444 20.7104 3.25037 21.0732 3.24956 21.4399V27.1863C3.24932 27.3027 3.20294 27.4142 3.12061 27.4965C3.03827 27.5787 2.92668 27.6249 2.8103 27.625C2.5382 27.6249 2.26877 27.6787 2.01751 27.7831C1.76625 27.8875 1.53812 28.0406 1.34626 28.2336C1.15439 28.4265 1.00258 28.6555 0.899554 28.9073C0.796527 29.1592 0.744321 29.4289 0.745942 29.701C0.781963 31.0193 1.01689 32.3246 1.44276 33.5728C0.199536 34.9037 -0.245105 36.1102 0.121434 37.1643C1.48654 41.0885 4.62258 44.1227 8.95189 45.7078ZM22.3096 44.071C17.9767 45.578 13.4314 45.6176 9.51058 44.182C6.61361 43.1213 4.32074 41.3478 2.84808 39.0698C3.69765 39.2361 4.56216 39.3139 5.42777 39.302C5.92549 39.302 6.457 39.2826 7.0223 39.2439C9.8237 39.0517 13.1952 38.3834 16.7334 37.3329C16.8045 37.3443 18.7419 36.7096 19.6407 36.397C21.6909 35.6874 23.703 34.8722 25.6689 33.9545L25.7103 33.9352C27.8359 32.9349 29.7381 31.8711 31.3021 30.7987C32.7015 29.8392 33.7556 28.9313 34.4644 28.0749C35.0757 34.5634 30.119 41.3547 22.3096 44.071ZM30.7684 27.7194C30.5972 29.1758 30.312 29.4758 30.3 29.4879L30.3158 29.5036C29.6431 29.9617 28.9054 30.4185 28.1119 30.8694C28.642 29.8199 28.9923 28.6889 29.148 27.5235C29.1748 27.3267 29.2719 27.1463 29.4215 27.0156C29.571 26.8849 29.7628 26.8128 29.9614 26.8125C30.0761 26.8125 30.1895 26.8368 30.2942 26.8837C30.3988 26.9306 30.4923 26.9992 30.5686 27.0849C30.6449 27.1706 30.7021 27.2714 30.7366 27.3808C30.7711 27.4902 30.782 27.6057 30.7686 27.7196L30.7684 27.7194ZM49.0392 15.5086C49.2303 15.4225 49.4474 15.4137 49.6449 15.4842C49.8423 15.5547 50.0047 15.6989 50.0981 15.8867L50.2884 16.2672C50.3368 16.3639 50.3654 16.4693 50.3725 16.5772C50.3796 16.6851 50.3651 16.7934 50.3298 16.8956C50.2945 16.9978 50.2392 17.092 50.167 17.1726C50.0949 17.2531 50.0074 17.3185 49.9097 17.3648L39.8106 22.2844C39.8024 21.8826 39.7089 21.4872 39.5364 21.1243C39.3639 20.7614 39.1163 20.4392 38.8099 20.1792L49.0392 15.5086ZM36.9683 21.125C37.2226 21.1247 37.4705 21.204 37.6774 21.3518C37.8843 21.4996 38.0397 21.7085 38.1218 21.9491C38.204 22.1897 38.2087 22.45 38.1354 22.6935C38.062 22.9369 37.9143 23.1513 37.713 23.3065L37.2661 23.5244C37.1216 23.5625 36.971 23.5722 36.8228 23.553L37.0131 23.4261C37.103 23.3675 37.1804 23.2916 37.2408 23.2028C37.3012 23.114 37.3434 23.0141 37.365 22.909C37.3866 22.8038 37.3871 22.6954 37.3665 22.59C37.346 22.4846 37.3047 22.3843 37.2451 22.295C37.1856 22.2056 37.1089 22.129 37.0195 22.0695C36.9302 22.0099 36.8299 21.9687 36.7245 21.9482C36.6191 21.9277 36.5107 21.9282 36.4055 21.9498C36.3003 21.9715 36.2005 22.0137 36.1117 22.0741L35.7514 22.3143C35.7592 21.9966 35.8908 21.6945 36.1181 21.4724C36.3454 21.2502 36.6505 21.1256 36.9683 21.125ZM14.8129 29.7703L16.0613 28.7299C15.7662 28.3785 15.5012 28.0028 15.2691 27.607C15.6567 27.4639 16.047 27.3239 16.437 27.1881C20.8804 25.6426 25.212 24.6622 28.6329 24.4276C30.2247 24.3185 31.5664 24.3821 32.5126 24.6117C33.2825 24.7984 33.7705 25.0854 33.8868 25.4198C34.0031 25.7543 33.7984 26.2821 33.3107 26.9063C33.0285 27.2587 32.7184 27.5879 32.3836 27.8907C32.4522 27.2526 32.2667 26.613 31.8672 26.1106C31.4677 25.6082 30.8865 25.2834 30.2492 25.2064C29.612 25.1294 28.9701 25.3065 28.4625 25.6994C27.9549 26.0922 27.6224 26.6692 27.5371 27.3053C27.1244 30.3432 25.3285 32.1135 24.8276 32.5543C22.9603 33.4189 21.0507 34.1891 19.1061 34.8622C18.2772 35.1505 17.454 35.4187 16.6365 35.6668C13.4264 35.0472 11.1567 33.1074 9.88575 29.8931C11.0976 29.302 12.3883 28.7337 13.7332 28.197C14.0408 28.7555 14.4024 29.2824 14.8129 29.7703ZM2.498 29.3798C2.53881 29.3385 2.58745 29.3058 2.64107 29.2835C2.6947 29.2612 2.75223 29.2498 2.8103 29.25C3.35759 29.2494 3.88228 29.0317 4.26927 28.6448C4.65626 28.2578 4.87394 27.7331 4.87456 27.1858V21.4399C4.87475 21.141 4.99358 20.8543 5.20496 20.6429C5.41634 20.4316 5.70297 20.3127 6.0019 20.3125C6.15473 20.3126 6.30595 20.3438 6.44637 20.4041C6.58678 20.4644 6.71347 20.5527 6.81872 20.6635C6.92397 20.7743 7.00559 20.9054 7.05863 21.0487C7.11166 21.192 7.13499 21.3446 7.12721 21.4973C7.01103 23.8579 7.13179 27.3307 8.36699 30.4695C9.07843 32.2773 10.0847 33.765 11.3577 34.8908C12.0826 35.5302 12.8986 36.0582 13.7787 36.4577C11.9205 36.9386 10.0313 37.2906 8.12456 37.5112L7.44582 37.3861C5.6311 37.0837 4.25289 35.9371 3.3494 33.9785C2.74622 32.6269 2.41387 31.1702 2.37114 29.6908C2.37058 29.6332 2.3815 29.576 2.40328 29.5226C2.42506 29.4692 2.45726 29.4207 2.498 29.3798ZM1.65635 36.6305C1.54392 36.3074 1.72998 35.8146 2.16335 35.2363C2.64299 36.1475 3.29844 36.9547 4.09182 37.6111C3.73459 37.5777 3.38006 37.5201 3.03069 37.4384C2.26115 37.2517 1.77325 36.965 1.65665 36.6309V36.6304L1.65635 36.6305Z" fill="#AA8B4E"/>
<path d="M7.3125 10.5625C6.83041 10.5625 6.35914 10.7055 5.9583 10.9733C5.55745 11.2411 5.24503 11.6218 5.06054 12.0672C4.87606 12.5126 4.82779 13.0027 4.92184 13.4755C5.01589 13.9484 5.24804 14.3827 5.58893 14.7236C5.92982 15.0645 6.36414 15.2966 6.83697 15.3907C7.3098 15.4847 7.7999 15.4364 8.24529 15.252C8.69069 15.0675 9.07137 14.755 9.33921 14.3542C9.60704 13.9534 9.75 13.4821 9.75 13C9.74928 12.3538 9.49223 11.7342 9.03527 11.2772C8.57831 10.8203 7.95874 10.5632 7.3125 10.5625ZM7.3125 13.8125C7.1518 13.8125 6.99471 13.7648 6.8611 13.6756C6.72748 13.5863 6.62335 13.4594 6.56185 13.3109C6.50035 13.1625 6.48426 12.9991 6.51561 12.8415C6.54696 12.6839 6.62435 12.5391 6.73798 12.4255C6.85161 12.3118 6.99638 12.2345 7.15399 12.2031C7.3116 12.1718 7.47497 12.1879 7.62343 12.2493C7.7719 12.3108 7.89879 12.415 7.98807 12.5486C8.07735 12.6822 8.125 12.8393 8.125 13C8.12476 13.2154 8.03908 13.4219 7.88676 13.5743C7.73444 13.7266 7.52792 13.8123 7.3125 13.8125Z" fill="#AA8B4E"/>
<path d="M15.4375 7.3125C15.4375 6.83041 15.2945 6.35914 15.0267 5.9583C14.7589 5.55745 14.3782 5.24503 13.9328 5.06054C13.4874 4.87606 12.9973 4.82779 12.5245 4.92184C12.0516 5.01589 11.6173 5.24804 11.2764 5.58893C10.9355 5.92982 10.7034 6.36414 10.6093 6.83697C10.5153 7.3098 10.5636 7.7999 10.748 8.24529C10.9325 8.69069 11.245 9.07137 11.6458 9.33921C12.0466 9.60704 12.5179 9.75 13 9.75C13.6462 9.74928 14.2658 9.49223 14.7228 9.03527C15.1797 8.57831 15.4368 7.95874 15.4375 7.3125ZM12.1875 7.3125C12.1875 7.1518 12.2352 6.99471 12.3244 6.8611C12.4137 6.72748 12.5406 6.62335 12.6891 6.56185C12.8375 6.50035 13.0009 6.48426 13.1585 6.51561C13.3161 6.54696 13.4609 6.62435 13.5745 6.73798C13.6882 6.85161 13.7655 6.99638 13.7969 7.15399C13.8282 7.3116 13.8121 7.47497 13.7507 7.62343C13.6892 7.7719 13.585 7.89879 13.4514 7.98807C13.3178 8.07735 13.1607 8.125 13 8.125C12.7846 8.12476 12.5781 8.03908 12.4257 7.88676C12.2734 7.73444 12.1877 7.52792 12.1875 7.3125Z" fill="#AA8B4E"/>
<path d="M10.5625 16.25H12.1875V17.875H10.5625V16.25Z" fill="#AA8B4E"/>
<path d="M9.75 23.5625H11.375V25.1875H9.75V23.5625Z" fill="#AA8B4E"/>
<path d="M14.625 30.875H16.25V32.5H14.625V30.875Z" fill="#AA8B4E"/>
<path d="M1.625 15.4375H3.25V17.0625H1.625V15.4375Z" fill="#AA8B4E"/>
<path d="M8.48687 37.2385L9.38824 35.8865C7.40248 34.5626 7.31484 33.343 7.3125 33.2917C7.31321 33.3054 7.3125 33.3125 7.3125 33.3125H5.6875C5.6875 33.5233 5.76601 35.425 8.48687 37.2385Z" fill="#AA8B4E"/>
<path d="M16.5028 12.5622C16.8384 12.0544 17.2182 11.5773 17.6378 11.1363L16.488 9.98798C16.3788 10.0973 13.8125 12.6953 13.8125 15.4375H15.4375C15.4375 14.609 15.8059 13.6147 16.5028 12.5622Z" fill="#AA8B4E"/>
</g>
<defs>
<linearGradient id="paint0_linear_131_1239" x1="64.0051" y1="30" x2="15.0051" y2="30" gradientUnits="userSpaceOnUse">
<stop stop-color="#AA8B4E"/>
<stop offset="1" stop-color="#AA8B4E" stop-opacity="0"/>
</linearGradient>
<clipPath id="clip0_131_1239">
<rect width="52" height="52" fill="white"/>
</clipPath>
</defs>
</svg>
