<svg width="33" height="33" viewBox="0 0 33 33" fill="none" xmlns="http://www.w3.org/2000/svg">
<g opacity="0.7">
<path d="M32.6854 23.4433C32.484 22.9667 32.1953 22.5395 31.8287 22.1715C31.4614 21.8042 31.0334 21.5162 30.5568 21.3149C30.0666 21.1073 29.5454 21.0015 29.0077 21.0004C29.0051 21.0004 29.0024 21.0001 28.9999 21.0001H26.9999V20.6567C27.4666 20.4913 27.9069 20.2696 28.3127 19.9999H32.4998C32.776 19.9999 32.9997 19.776 32.9997 19.4999V12.0022C32.9997 12.0013 32.9999 12.0006 32.9999 11.9997C32.9999 11.1671 32.8719 10.3452 32.6199 9.55852C32.376 8.79662 32.0193 8.07662 31.5601 7.42003C31.4661 7.28668 31.3128 7.2067 31.1494 7.2067C31.0468 7.2067 30.9481 7.23802 30.8635 7.29732C30.7541 7.37331 30.6808 7.48797 30.6581 7.61932C30.6348 7.75068 30.6641 7.88332 30.7402 7.99263V7.99328C31.5637 9.17141 31.999 10.5561 32 11.998C32 11.9986 31.9999 11.9993 31.9999 11.9999V18.9998H29.4679C30.4198 17.9376 30.9998 16.5353 30.9998 14.9999V12.5V11.9999C30.9998 10.5698 30.4967 9.25527 29.6584 8.22331C29.6388 8.19373 29.6165 8.16685 29.5918 8.14268C28.4902 6.83351 26.8408 6.00001 25 6.00001C21.6917 6.00001 19.0001 8.69156 19.0001 11.9999V12.4936C19.0001 12.4947 19.0001 12.4959 19.0001 12.497V12.5V14.9999C19.0001 16.5352 19.5801 17.9375 20.5321 18.9998H18.0001V12C18.0001 11.9992 17.9999 11.9985 17.9999 11.9977C18.0008 11.0529 18.1855 10.1368 18.5499 9.27518C18.9019 8.44258 19.4071 7.69402 20.0498 7.05072C20.6938 6.40677 21.4423 5.90217 22.2749 5.55013C23.1375 5.18481 24.0541 5.00015 25 5.00015C25.8346 5.00015 26.6505 5.14549 27.4251 5.43147C28.173 5.70746 28.865 6.1081 29.4809 6.62204C29.5709 6.69739 29.6849 6.7387 29.8015 6.7387C29.9502 6.7387 30.0901 6.6727 30.1855 6.55869C30.2708 6.45608 30.3114 6.32672 30.2995 6.19337C30.2875 6.06072 30.2241 5.94007 30.1222 5.85473C29.4189 5.26744 28.6283 4.8095 27.7711 4.49349C26.8852 4.1662 25.9525 4.00023 24.9999 4.00023C23.92 4.00023 22.8721 4.21157 21.8856 4.62884C20.9329 5.03212 20.0777 5.60871 19.3431 6.34335C18.6085 7.07798 18.0319 7.93392 17.6286 8.88647C17.2119 9.8724 17 10.9196 17 11.9995C17 12.0004 17.0001 12.0012 17.0001 12.0021V19.4998C17.0001 19.7759 17.2239 19.9998 17.5 19.9998H21.6872C22.093 20.2696 22.5332 20.4911 22.9999 20.6566V20.9999H21C20.9979 20.9999 20.9958 21.0003 20.9938 21.0003C20.033 21.0015 19.1051 21.3479 18.3805 21.9767C18.1725 22.1574 18.1498 22.4733 18.3305 22.682C18.4251 22.7913 18.5631 22.8546 18.7084 22.8546C18.8284 22.8546 18.9444 22.8106 19.0357 22.732C19.303 22.5007 19.605 22.3193 19.933 22.1947C20.2728 22.0654 20.6314 22.0001 20.9999 22V23.7662C20.3866 24.3158 19.9999 25.1134 19.9999 25.9998V27.9996H17.9998V24.9998C17.9998 24.4598 17.8938 23.9359 17.6858 23.4433C17.4838 22.9666 17.1958 22.5394 16.8285 22.1714C16.4612 21.8041 16.0333 21.5161 15.5572 21.3141C15.0662 21.1065 14.5447 21.0013 14.0073 21.0004C14.0048 21.0003 14.0024 21 13.9999 21H12.9999V19.4681C14.2266 18.369 14.9999 16.7736 14.9999 15.0009V12.5456C15.4039 10.4822 15.2064 8.94357 14.4107 7.97336C13.9513 7.4132 13.3941 7.17569 12.9999 7.07508V5.50018C12.9999 5.22406 12.7761 5.00022 12.4999 5.00022C12.1162 5.00022 11.717 4.99093 11.2941 4.98114C10.8512 4.97082 10.3931 4.96019 9.9318 4.96019C7.86273 4.96019 5.559 5.17372 4.16088 6.75752C3.05584 8.00933 2.67615 9.89773 3.00002 12.5295V15.0009C3.00002 16.7736 3.77326 18.369 5 19.4681V21H4.00014C3.99756 21 3.99498 21.0004 3.9924 21.0004C3.45461 21.0014 2.93331 21.1065 2.44322 21.3141C1.96659 21.5161 1.53862 21.8041 1.1713 22.1714C0.804694 22.5387 0.51601 22.9666 0.314723 23.4433C0.105961 23.936 0 24.4599 0 24.9999V28.499C0 28.7749 0.224683 28.9989 0.499961 28.9989C0.775948 28.9989 0.999922 28.7749 0.999922 28.499V24.9999C1.00063 24.1993 1.31258 23.446 1.87854 22.8787C2.44579 22.3121 3.19905 22.0001 4.00033 22.0001C4.00162 22.0001 4.00285 21.9999 4.0042 21.9999H5.14998L7.33287 27.9996H4.00014V26.4998C4.00014 26.2236 3.77636 25.9998 3.50018 25.9998C3.22406 25.9998 3.00022 26.2236 3.00022 26.4998V27.9996H2.49916C2.22388 27.9996 1.9992 28.2243 1.9992 28.4995C1.9992 28.7755 2.22388 28.9995 2.49916 28.9995H3.49625C3.4976 28.9995 3.49882 28.9997 3.50018 28.9997C3.50147 28.9997 3.50269 28.9995 3.50411 28.9995H8.04282C8.04423 28.9995 8.04559 28.9998 8.04707 28.9998C8.04958 28.9998 8.0521 28.9996 8.05461 28.9995H10.043C10.0443 28.9995 10.0456 28.9998 10.047 28.9998C10.0484 28.9998 10.0497 28.9995 10.0512 28.9995H14.4962C14.4976 28.9995 14.4988 28.9997 14.5002 28.9997C14.5014 28.9997 14.5027 28.9995 14.5041 28.9995H17.5H20.496C20.4974 28.9995 20.4986 28.9997 20.4999 28.9997C20.5013 28.9997 20.5025 28.9995 20.5039 28.9995H25.9866C25.9906 28.9995 25.9946 28.9995 25.9986 28.9995C25.9993 28.9995 25.9993 28.9995 25.9999 28.9995H29.496C29.4973 28.9995 29.4985 28.9997 29.4999 28.9997C29.5012 28.9997 29.5024 28.9995 29.5038 28.9995H32.5C32.6314 28.9995 32.7607 28.9462 32.8533 28.8535C32.9466 28.7602 33 28.6315 33 28.4995V24.9998C33 24.4598 32.894 23.9359 32.6854 23.4433ZM4.91066 7.41926C5.54765 6.69771 6.64232 5.96018 9.93199 5.96018C10.3817 5.96018 10.8339 5.97068 11.2711 5.9808C11.5213 5.9866 11.7634 5.99221 12.0001 5.99588V7.50105C12.0001 7.63369 12.0502 7.76086 12.144 7.85457C12.2377 7.94829 12.3623 8.00095 12.4948 8.00095C12.4949 8.00095 12.495 8.00095 12.495 8.00095C12.5222 8.00153 13.1684 8.02215 13.6501 8.62273C14.0364 9.10438 14.2216 9.83901 14.2019 10.7858L13.9472 10.2764C13.8369 10.056 13.5828 9.94891 13.3481 10.0237C13.3175 10.0334 10.2652 11.0001 8.50017 11.0001C6.80693 11.0001 5.2756 10.0823 5.26084 10.0734C5.04112 9.93905 4.75495 9.99383 4.60019 10.2L3.89231 11.1439C3.84262 9.47305 4.17912 8.24787 4.91066 7.41926ZM4.00014 15.0009V12.6668L5.14173 11.1446C5.7715 11.459 7.06403 12.0001 8.50017 12.0001C10.0308 12.0001 12.3137 11.3754 13.2417 11.1013L14.0001 12.6181V15.0009C14.0001 17.7574 11.7572 19.9999 9.0002 19.9999C6.24323 19.9999 4.00014 17.7574 4.00014 15.0009ZM12.0002 20.1945V21.191H12.0001L10.536 21.923L9.5001 21.2323V20.9789C10.4048 20.9038 11.2532 20.6275 12.0002 20.1945ZM6.00005 20.1945C6.74699 20.6275 7.59538 20.9039 8.50011 20.9789V21.2324L7.46416 21.923L6.00005 21.191V20.1945ZM9.69236 27.9996H8.39692L6.39901 22.5084L7.26783 22.9427C7.2679 22.9428 7.26796 22.9429 7.26803 22.9429L7.27654 22.9471C7.28388 22.9508 7.29142 22.9534 7.29897 22.9567C7.30831 22.9608 7.31759 22.9653 7.3272 22.9688C7.33931 22.9734 7.35156 22.9767 7.3638 22.9802C7.37025 22.982 7.37657 22.9843 7.38301 22.9859C7.3999 22.9899 7.41672 22.9928 7.43367 22.9951C7.43606 22.9954 7.43844 22.996 7.44083 22.9963C7.46048 22.9986 7.48014 23 7.49974 23C7.49993 23 7.50019 22.9999 7.50038 22.9999C7.50045 22.9999 7.50051 22.9999 7.50057 22.9999C7.50328 22.9999 7.50605 22.9994 7.5087 22.9993C7.52906 22.9989 7.5493 22.9978 7.56935 22.9949C7.58037 22.9934 7.59113 22.9904 7.60209 22.9881C7.61395 22.9856 7.626 22.9837 7.6376 22.9802C7.64817 22.9772 7.65835 22.973 7.6688 22.9692C7.68091 22.9648 7.69297 22.9608 7.7047 22.9556C7.71366 22.9515 7.72236 22.9465 7.73112 22.9419C7.74401 22.9352 7.75677 22.9284 7.76908 22.9205C7.77179 22.9188 7.77476 22.9176 7.7774 22.9158L9.00007 22.1007L10.2227 22.9158C10.2254 22.9176 10.2283 22.9187 10.2309 22.9204C10.2434 22.9284 10.2564 22.9353 10.2695 22.9422C10.278 22.9467 10.2865 22.9515 10.2953 22.9555C10.3072 22.9608 10.3196 22.965 10.3319 22.9694C10.3421 22.9731 10.3522 22.9773 10.3625 22.9802C10.3743 22.9836 10.3865 22.9857 10.3986 22.9882C10.4093 22.9904 10.42 22.9934 10.4309 22.9949C10.4509 22.9976 10.4711 22.9989 10.4915 22.9993C10.4942 22.9993 10.4969 22.9998 10.4996 22.9998H10.4998C10.5 22.9998 10.5003 22.9999 10.5005 22.9999C10.5201 22.9999 10.5397 22.9986 10.5594 22.9962C10.5618 22.9959 10.5642 22.9953 10.5666 22.995C10.5835 22.9928 10.6004 22.9898 10.6172 22.9858C10.6236 22.9842 10.6299 22.982 10.6363 22.9802C10.6486 22.9766 10.6609 22.9733 10.673 22.9688C10.6826 22.9652 10.6919 22.9608 10.7012 22.9567C10.7087 22.9534 10.7163 22.9507 10.7237 22.9471L10.7322 22.9428C10.7322 22.9427 10.7324 22.9427 10.7324 22.9427L11.6202 22.4988L9.69236 27.9996ZM16.9999 25.0006V27.9996H14.9999V26.4998C14.9999 26.2237 14.7761 25.9999 14.5 25.9999C14.2238 25.9999 14 26.2237 14 26.4998V27.9996H10.7519L12.8546 22H13.9963C13.9976 22 13.9988 22.0002 14.0002 22.0002C14.8008 22.0001 15.554 22.3121 16.1213 22.8787C16.6879 23.446 16.9999 24.1993 16.9999 24.9999V25.0006ZM29.9948 11.7988L25.9198 10.4046L29.0754 9.10889C29.6202 9.87466 29.9549 10.7992 29.9948 11.7988ZM24.9999 7.00006C26.2999 7.00006 27.4853 7.49912 28.3756 8.31535L20.0063 11.7518C20.136 9.10967 22.3262 7.00006 24.9999 7.00006ZM19.9999 15V12.8353H19.9999L24.5157 10.9811L29.9998 12.8575V15C29.9998 17.757 27.7569 20 24.9999 20C22.2428 20 19.9999 17.757 19.9999 15ZM21.9999 21.9999H23.4999C23.7761 21.9999 23.9999 21.7761 23.9999 21.5V20.9161C24.3252 20.9709 24.6592 20.9999 24.9999 20.9999C25.3406 20.9999 25.6746 20.9709 26 20.9161V21.5C26 21.7761 26.2237 21.9999 26.4999 21.9999H27.9999V23.172C27.687 23.0609 27.3504 23 26.9999 23C26.2493 23 25.5458 23.276 24.9999 23.7721C24.454 23.276 23.7506 23 22.9999 23C22.6494 23 22.3129 23.0609 21.9999 23.172V21.9999ZM28.9999 27.9996H20.9998V25.9999C20.9998 25.3597 21.3026 24.7892 21.772 24.423C21.7913 24.4104 21.8096 24.3965 21.827 24.3814C22.1568 24.1418 22.562 23.9999 22.9999 23.9999C23.6316 23.9999 24.2144 24.296 24.599 24.8121C24.6933 24.9388 24.8419 25.0135 24.9999 25.0135C25.1578 25.0135 25.3065 24.9388 25.4009 24.8121C25.7854 24.2959 26.3682 23.9999 26.9999 23.9999C28.1027 23.9999 28.9999 24.8971 28.9999 25.9999V27.9996ZM29.9997 27.9996V25.9999C29.9997 25.1135 29.613 24.316 28.9998 23.7663V22.0001C29.801 22.0002 30.5541 22.3121 31.1213 22.8787C31.6873 23.446 31.9992 24.1993 31.9999 24.9999V27.9996H29.9997Z" fill="#AA8B4E"/>
</g>
</svg>
