<svg width="69" height="49" viewBox="0 0 69 49" fill="none" xmlns="http://www.w3.org/2000/svg">
<rect opacity="0.3" x="19.2002" width="49" height="49" rx="2" fill="url(#paint0_linear_2_2501)"/>
<g clip-path="url(#clip0_2_2501)">
<path d="M24.1019 27.6933L24.4054 27.4581C27.2246 25.269 28.9776 22.0199 29.2983 18.5186C33.5526 18.1814 36.9111 14.6118 36.9111 10.2725C36.9111 8.78669 36.5125 7.3294 35.7584 6.05796C35.581 5.75872 35.1945 5.66004 34.8953 5.8375C34.5961 6.01496 34.4975 6.40137 34.675 6.70061C35.3137 7.77762 35.6514 9.0127 35.6514 10.2725C35.6514 13.8989 32.8843 16.8913 29.3507 17.2492C29.3491 17.0505 29.3444 16.8515 29.3335 16.652L29.3327 16.6412L29.0015 12.0418C28.9778 11.7124 28.7035 11.4572 28.3733 11.4572H21.7282C21.6623 11.0718 21.6261 10.6764 21.6261 10.2725C21.6261 6.40565 24.7719 3.25977 28.6388 3.25977C30.2517 3.25977 31.8263 3.8207 33.0727 4.83918C33.3423 5.05938 33.7391 5.01932 33.9591 4.74998C34.1792 4.48056 34.1393 4.08382 33.8699 3.8637C32.399 2.66188 30.5413 2 28.6387 2C24.0772 2 20.3662 5.71102 20.3662 10.2725C20.3662 10.6747 20.3957 11.0701 20.4514 11.4572H13.4375C13.0896 11.4572 12.8076 11.7392 12.8076 12.0871C12.8076 12.435 13.0896 12.717 13.4375 12.717H20.735C21.7226 15.9037 24.5884 18.2721 28.0326 18.5227C27.9163 19.6627 27.6317 20.7719 27.1938 21.8154C26.4399 21.073 25.0536 20.0733 23.0556 20.0733C22.5675 20.0733 22.0796 20.1559 21.5931 20.2953C21.6141 20.1198 21.6259 19.9423 21.6259 19.7628C21.6259 17.3315 19.6479 15.3536 17.2167 15.3536C14.7855 15.3536 12.8075 17.3315 12.8075 19.7628C12.8075 19.869 12.8123 19.9741 12.8196 20.0786C10.9479 20.1527 9.64972 21.0886 8.91839 21.8131C8.25373 20.2281 7.94165 18.4922 8.03739 16.7261L8.32613 12.7171H10.723C11.071 12.7171 11.3529 12.4351 11.3529 12.0872C11.3529 11.7393 11.071 11.4573 10.723 11.4573H7.73992C7.40961 11.4573 7.1354 11.7125 7.11171 12.0419L6.78048 16.6412L6.77972 16.6521C6.55036 20.8442 8.39256 24.8839 11.7077 27.4582L12.0112 27.6933C14.7785 29.8349 16.1675 30.9098 16.1675 36.5698V38.8095C16.1675 40.1392 15.0864 41.2208 13.7577 41.2208H8.70901C7.26431 41.2207 6.08887 42.3966 6.08887 43.8419C6.08887 44.4805 6.60823 45 7.24659 45H21.5C21.8479 45 22.1299 44.718 22.1299 44.3701C22.1299 44.0223 21.8479 43.7402 21.5 43.7402H7.35241C7.40457 43.0369 7.99313 42.4805 8.7091 42.4805H13.7578C15.7813 42.4805 17.4273 40.8336 17.4273 38.8094V36.5697C17.4273 33.0904 16.8595 31.1004 15.8773 29.6489C16.616 29.8678 17.3487 29.9844 18.0565 29.9844C18.7601 29.9844 19.4909 29.8722 20.2285 29.6597C19.2508 31.1103 18.6859 33.0991 18.6859 36.5698V38.8095C18.6859 40.8338 20.332 42.4806 22.3554 42.4806H27.4041C28.1201 42.4806 28.7086 43.0369 28.7608 43.7403H24.223C23.8751 43.7403 23.5931 44.0223 23.5931 44.3702C23.5931 44.7181 23.8751 45.0001 24.223 45.0001H28.8666C29.5051 45.0001 30.0243 44.4806 30.0243 43.842C30.0243 42.3967 28.8489 41.2208 27.4041 41.2208H22.3554C21.0267 41.2208 19.9456 40.1391 19.9456 38.8095V36.5698C19.9456 30.9097 21.3346 29.8348 24.1019 27.6933ZM22.0663 12.717H27.787L28.0757 16.726C28.0855 16.905 28.0896 17.0835 28.091 17.2617C25.3225 17.0466 22.9998 15.2185 22.0663 12.717ZM17.2168 16.6133C18.9534 16.6133 20.3662 18.0261 20.3662 19.7627C20.3662 20.1367 20.3012 20.4991 20.1747 20.8436C19.4824 21.17 18.7958 21.5642 18.1189 21.9531C17.5644 22.2716 17.0256 22.581 16.5156 22.8331C15.367 22.5742 14.4834 21.7087 14.1807 20.6072C14.1771 20.59 14.1729 20.5731 14.1678 20.5564C14.1026 20.3024 14.0673 20.0365 14.0673 19.7627C14.0674 18.0261 15.4802 16.6133 17.2168 16.6133ZM14.755 23.4259C12.8872 23.6994 10.8634 23.1012 9.80543 22.7116C10.395 22.1326 11.4921 21.3333 13.058 21.3333C13.0697 21.3333 13.082 21.3344 13.0938 21.3345C13.4173 22.1899 13.9994 22.9201 14.755 23.4259ZM13.1446 26.9778C13.0256 26.8852 12.4803 26.4631 12.4803 26.4631C11.6331 25.8052 10.8929 25.0409 10.2714 24.1976C11.2395 24.4899 12.4732 24.7572 13.7494 24.7572C14.2901 24.7572 14.8383 24.7092 15.377 24.5949C15.862 24.492 16.3581 24.3023 16.8663 24.0625C16.8683 24.0616 16.8703 24.0606 16.8723 24.0597C17.479 23.773 18.1029 23.4151 18.7463 23.0455C19.4611 22.6349 20.1877 22.2177 20.8988 21.8977C20.9159 21.8909 20.9327 21.8834 20.9492 21.875C21.6784 21.5514 22.3904 21.333 23.0556 21.333C24.9325 21.333 26.1264 22.4654 26.601 23.0243C25.8594 24.3382 24.8579 25.5118 23.6329 26.4631C23.6329 26.4631 23.0873 26.8856 22.9683 26.9782C21.367 28.0815 19.5778 28.7248 18.0565 28.7248C16.5352 28.7246 14.746 28.0813 13.1446 26.9778Z" fill="#AA8B4E"/>
<path d="M28.0928 5.19141V6.53516C28.0928 6.88302 28.3747 7.16504 28.7227 7.16504C29.0706 7.16504 29.3525 6.88302 29.3525 6.53516V5.19141C29.3525 4.84354 29.0706 4.56152 28.7227 4.56152C28.3747 4.56152 28.0928 4.84354 28.0928 5.19141Z" fill="#AA8B4E"/>
<path d="M26.7536 7.6901C26.8604 7.6901 26.9688 7.66289 27.0679 7.60561C27.3692 7.43168 27.4724 7.04644 27.2985 6.74519L26.6266 5.5815C26.4528 5.28017 26.0673 5.17695 25.7662 5.35097C25.4649 5.5249 25.3617 5.91013 25.5357 6.21139L26.2075 7.37507C26.3242 7.57714 26.5359 7.6901 26.7536 7.6901Z" fill="#AA8B4E"/>
<path d="M30.8267 15.3757C30.9433 15.5777 31.1551 15.6907 31.3727 15.6907C31.4796 15.6907 31.588 15.6635 31.6871 15.6062C31.9883 15.4323 32.0916 15.047 31.9176 14.7458L31.2458 13.5821C31.0718 13.2808 30.6864 13.1776 30.3853 13.3515C30.0841 13.5255 29.9809 13.9107 30.1548 14.212L30.8267 15.3757Z" fill="#AA8B4E"/>
<path d="M25.8548 8.81454C26.0287 8.51329 25.9255 8.12805 25.6242 7.95412L24.4605 7.28224C24.159 7.10823 23.774 7.21153 23.6001 7.51278C23.4262 7.81403 23.5294 8.19927 23.8307 8.3732L24.9943 9.04508C25.0936 9.10236 25.2019 9.12957 25.3087 9.12957C25.5263 9.12965 25.7381 9.01661 25.8548 8.81454Z" fill="#AA8B4E"/>
<path d="M33.3087 13.7488C33.5264 13.7488 33.7381 13.6358 33.8548 13.4338C34.0287 13.1325 33.9255 12.7473 33.6242 12.5733L32.4605 11.9015C32.1591 11.7275 31.774 11.8308 31.6001 12.132C31.4262 12.4333 31.5294 12.8185 31.8307 12.9924L32.9943 13.6643C33.0936 13.7215 33.2019 13.7488 33.3087 13.7488Z" fill="#AA8B4E"/>
<path d="M24.7783 9.83842H23.4346C23.0866 9.83842 22.8047 10.1204 22.8047 10.4683C22.8047 10.8162 23.0866 11.0982 23.4346 11.0982H24.7783C25.1263 11.0982 25.4082 10.8162 25.4082 10.4683C25.4082 10.1204 25.1263 9.83842 24.7783 9.83842Z" fill="#AA8B4E"/>
<path d="M34.6465 10.4683C34.6465 10.1204 34.3645 9.83842 34.0166 9.83842H32.6729C32.3249 9.83842 32.043 10.1204 32.043 10.4683C32.043 10.8162 32.3249 11.0982 32.6729 11.0982H34.0166C34.3645 11.0982 34.6465 10.8162 34.6465 10.4683Z" fill="#AA8B4E"/>
<path d="M31.5952 8.80582C31.7119 9.00789 31.9236 9.12085 32.1413 9.12085C32.2481 9.12085 32.3565 9.09364 32.4556 9.03636L33.6193 8.36448C33.9206 8.19055 34.0238 7.80532 33.8499 7.50406C33.676 7.20273 33.2906 7.09951 32.9895 7.27353L31.8258 7.9454C31.5245 8.11933 31.4213 8.50457 31.5952 8.80582Z" fill="#AA8B4E"/>
<path d="M31.6773 5.33567C31.3762 5.16165 30.9908 5.26487 30.8169 5.56621L30.145 6.72989C29.9711 7.03115 30.0743 7.41638 30.3756 7.59032C30.4748 7.64759 30.5831 7.6748 30.6899 7.6748C30.9076 7.6748 31.1193 7.56184 31.236 7.35978L31.9079 6.19609C32.0818 5.89484 31.9786 5.5096 31.6773 5.33567Z" fill="#AA8B4E"/>
</g>
<defs>
<linearGradient id="paint0_linear_2_2501" x1="68.0002" y1="25" x2="19.0002" y2="25" gradientUnits="userSpaceOnUse">
<stop stop-color="#AA8B4E"/>
<stop offset="1" stop-color="#AA8B4E" stop-opacity="0"/>
</linearGradient>
<clipPath id="clip0_2_2501">
<rect width="43" height="43" fill="white" transform="translate(0 2)"/>
</clipPath>
</defs>
</svg>
