<svg width="62" height="37" viewBox="0 0 62 37" fill="none" xmlns="http://www.w3.org/2000/svg">
<path opacity="0.9" d="M22.6858 34.8644C24.5249 35.468 26.4559 35.8 28.4176 35.8C30.8084 35.8 33.1073 35.3473 35.2835 34.4418C36.4176 33.9589 37.4904 33.3854 38.5019 32.6912C38.5939 32.7214 38.6858 32.7516 38.7778 32.7516C40.5862 33.2345 42.3027 33.476 43.9272 33.476C45.092 33.476 46.1954 33.3553 47.2682 33.1138C48.2797 32.8723 49.2299 32.5403 50.1188 32.0876C52.1724 31.2425 54.8697 28.9788 57.1686 26.1719C59.59 23.1839 61 20.3467 61 18.3849C61 16.5438 59.682 13.8576 57.3525 10.9601C55.1149 8.18335 52.4176 5.85932 50.1494 4.74258C49.2605 4.28985 48.3103 3.92767 47.2682 3.68621C44.7241 3.11275 41.8736 3.23348 38.7778 4.01821C38.6858 4.04839 38.5632 4.07858 38.4713 4.10876C37.4598 3.41457 36.4176 2.84111 35.2835 2.35819C33.1073 1.45273 30.8084 0.999999 28.4176 0.999999C26.5172 0.999999 24.6169 1.30182 22.8391 1.87528L22.6552 1.99601C22.5939 2.02619 22.5632 2.08656 22.5326 2.14692L22.4713 2.38838C22.4406 3.92767 22.8391 5.46696 23.6667 7.00624C24.2184 8.06262 24.9847 9.08881 25.9042 10.0546C25.3525 10.447 24.7701 10.8394 24.2184 11.2016C21.9195 12.8012 19.5594 14.4311 16.5556 15.9402C16.4636 15.9703 16.3716 16.0307 16.3103 16.0609C12.295 13.0427 9.04597 9.75282 6.40996 7.09679C5.82758 6.49315 5.27586 5.94987 4.72414 5.40659C4.57088 5.25568 4.35632 5.16513 4.11111 5.16513C3.89655 5.16513 3.68199 5.25568 3.52874 5.43677C3.00766 6.01023 1.75096 7.54952 1.22988 9.57173C0.92337 10.7488 0.954021 11.8958 1.22988 13.0125C1.5977 14.3405 2.36398 15.6383 3.55939 16.8154C3.55939 16.8154 4.54023 17.7511 6.47126 18.3245C4.54023 18.898 3.55939 19.8337 3.55939 19.8337C2.36398 21.0108 1.5977 22.3086 1.22988 23.6366C0.923369 24.7533 0.923369 25.9304 1.22988 27.0774C1.75096 29.1298 3.00766 30.669 3.52873 31.2123C3.68199 31.3632 3.89655 31.484 4.11111 31.484C4.32567 31.484 4.54023 31.3934 4.72414 31.2425C5.24521 30.7294 5.79693 30.1559 6.40996 29.5523C9.01532 26.8963 12.2644 23.6064 16.3103 20.5882C16.4023 20.6184 16.4943 20.6788 16.5556 20.7089C19.59 22.218 21.9502 23.8479 24.2184 25.4475C24.7701 25.8399 25.3218 26.2021 25.8736 26.5945C24.9847 27.5603 24.249 28.5563 23.6667 29.6127C22.8697 31.1218 22.4713 32.6912 22.4713 34.2305L22.4713 34.472C22.4713 34.5324 22.5019 34.5625 22.5326 34.5927L22.6858 34.8644ZM54.2261 17.1173C54.2261 17.1474 54.1954 17.1776 54.1954 17.1776C53.3372 15.7892 52.1418 14.582 50.7011 13.6161C50.8238 13.5256 50.9464 13.4049 51.069 13.3143C52.1418 12.3485 53.0613 11.2016 53.8276 9.90373C54.9004 12.107 55.0536 14.7027 54.2261 17.1173ZM54.2261 19.6827C55.0843 22.0973 54.9004 24.6628 53.8582 26.8661C53.092 25.5381 52.1724 24.361 51.069 23.4253C50.977 23.3348 50.8544 23.2442 50.7625 23.1537C52.1724 22.1879 53.3372 21.0108 54.1954 19.6224C54.1954 19.6224 54.1954 19.6526 54.2261 19.6827ZM50.7011 21.886C50.4253 22.0973 50.1494 22.2784 49.8736 22.4595C48.9234 21.8257 47.9119 21.3126 46.8084 20.9202C46.5326 20.8297 46.2261 20.7391 45.9195 20.6486C46.0115 19.9242 46.0728 19.1696 46.0728 18.4151C46.0728 17.6304 46.0115 16.8456 45.9195 16.0911C46.2261 16.0005 46.5326 15.91 46.8084 15.8194C47.9119 15.4271 48.9234 14.9441 49.8429 14.3103C50.1494 14.4914 50.4559 14.7027 50.7318 14.914C51.9885 15.8798 53 17.0569 53.705 18.3849C52.9694 19.7129 51.9579 20.9202 50.7011 21.886ZM38.2874 31.5141C33.567 30.1861 30.3793 28.4356 27.4674 26.5341C27.4981 26.5039 27.5287 26.5039 27.5287 26.4737C28.3563 25.7192 29.3065 24.9948 30.3487 24.3912C33.8429 25.357 37.4598 25.8399 41.1686 25.8399C41.8429 25.8399 42.5172 25.8097 43.1916 25.7795C42.3946 27.3188 41.3831 28.7072 40.0958 29.9749C39.5441 30.5181 38.931 31.0614 38.2874 31.5141ZM43.59 24.693C39.4828 24.9344 35.4981 24.5722 31.6667 23.6064C33.3831 22.701 35.2222 22.0068 37.092 21.5842C39.7586 20.9806 42.364 20.9202 44.6935 21.4031C44.4789 22.5199 44.1418 23.6064 43.7126 24.6628C43.682 24.693 43.6513 24.693 43.59 24.693ZM40.1264 6.85533C41.3831 8.0928 42.4253 9.48118 43.1916 11.0205C38.8084 10.8092 34.5172 11.2921 30.4406 12.4088C29.3985 11.775 28.4176 11.0507 27.5594 10.2659L27.5287 10.2357C30.41 8.33426 33.5977 6.61388 38.2567 5.28586C38.931 5.7386 39.5441 6.28187 40.1264 6.85533ZM43.59 12.0768C43.6207 12.0768 43.6513 12.0768 43.7126 12.107C44.1418 13.1332 44.4789 14.1896 44.6935 15.3063C42.364 15.7892 39.7893 15.7289 37.1226 15.1252C35.2835 14.7027 33.4444 14.0387 31.7893 13.1634C35.5594 12.1976 39.5441 11.8354 43.59 12.0768ZM44.9387 12.3485C46.3487 12.6805 47.636 13.1332 48.7701 13.7067C48.0345 14.1594 47.2682 14.5216 46.41 14.8234C46.1648 14.914 45.9502 14.9743 45.705 15.0347C45.5517 14.1292 45.2759 13.2238 44.9387 12.3485ZM31.4521 14.1594C33.1992 15.0347 35.0077 15.6987 36.8774 16.1213C38.4406 16.4834 40.0038 16.6645 41.4751 16.6645C42.6399 16.6645 43.7739 16.5438 44.8467 16.3325C44.9387 17.0267 44.9694 17.7209 44.9694 18.4151C44.9694 19.0791 44.9387 19.7431 44.8467 20.4071C42.3946 19.894 39.6667 19.9846 36.8467 20.6184C34.977 21.0409 33.1379 21.7049 31.4215 22.5802C30.9923 22.7915 30.5939 23.033 30.1954 23.2442C29.5211 23.033 28.8161 22.8217 28.1418 22.5802C25.1992 21.554 22.3487 20.1657 19.5594 18.3849C22.3793 16.6042 25.1992 15.2158 28.1418 14.1896C28.8467 13.9481 29.5517 13.7067 30.2567 13.5256C30.6552 13.7369 31.0536 13.9481 31.4521 14.1594ZM45.7356 21.6748C45.9808 21.7351 46.1954 21.8257 46.4406 21.886C47.2989 22.1879 48.1264 22.5802 48.8621 23.033C47.6973 23.6366 46.41 24.1195 44.9694 24.4213C45.3065 23.5461 45.5517 22.6104 45.7356 21.6748ZM47.023 4.7124C49.1073 5.19532 50.9157 6.19133 52.2337 7.60989C52.6015 8.00226 52.908 8.39462 53.1839 8.81717C52.295 10.5376 51.1609 11.9561 49.751 13.0427C48.2184 12.1674 46.4406 11.5336 44.4483 11.1714C43.5594 9.30009 42.364 7.60989 40.8927 6.13096C40.4636 5.70841 40.0345 5.31604 39.5747 4.95386C42.272 4.28985 44.7854 4.19931 47.023 4.7124ZM23.5134 2.78075C25.0766 2.29783 26.7318 2.05637 28.387 2.05637C31.5134 2.05637 34.5172 2.90147 37.1226 4.50113C32.6475 5.85932 29.5824 7.5797 26.7318 9.451C24.7395 7.39861 23.6054 5.04441 23.5134 2.78075ZM24.8008 12.0768C25.4138 11.6543 26.0268 11.2317 26.6398 10.8092C26.7011 10.8696 26.7931 10.9299 26.8544 10.9903C27.5594 11.6241 28.295 12.1976 29.1226 12.7409C28.6935 12.8616 28.2644 13.0125 27.8353 13.1634C24.6782 14.2801 21.6437 15.7892 18.6398 17.7209C18.1801 17.4191 17.6897 17.0871 17.2299 16.7551C20.2031 15.2762 22.5326 13.6463 24.8008 12.0768ZM2.24138 9.87355C2.63984 8.24371 3.59004 6.97606 4.14176 6.37242C4.60153 6.85533 5.09195 7.33825 5.61303 7.88153C8.15709 10.447 11.2835 13.6463 15.1762 16.6042C13.8276 17.1474 12.5096 17.5096 11.2835 17.6907C9.96552 17.8718 8.67816 17.8416 7.51341 17.6002C5.39846 17.1474 4.35632 16.1816 4.32567 16.1514C2.36398 14.2198 1.659 12.107 2.24138 9.87355ZM5.61302 28.9185C5.09195 29.4316 4.60153 29.9447 4.14176 30.4276C3.62069 29.8239 2.6705 28.5563 2.24138 26.9265C1.68965 24.693 2.36398 22.5802 4.29502 20.6486C4.32567 20.6184 5.36781 19.6526 7.48276 19.1998C8.64751 18.9584 9.93487 18.9282 11.2529 19.1093C12.5096 19.2904 13.7969 19.6526 15.1456 20.1958C11.2835 23.1839 8.15709 26.353 5.61302 28.9185ZM16.1264 19.4715C15.0536 18.9886 14.0115 18.6264 13 18.3849C14.0115 18.1435 15.0536 17.7813 16.1264 17.2984C16.6475 17.6605 17.1686 18.0227 17.659 18.3849C17.1379 18.7471 16.6475 19.1093 16.1264 19.4715ZM17.1992 19.9846C17.659 19.6526 18.1494 19.3206 18.6092 19.0187C21.613 20.9504 24.6475 22.4595 27.8046 23.5762C28.2031 23.7272 28.6015 23.8479 29.0307 23.9686C28.2337 24.5119 27.4981 25.0853 26.8238 25.689C26.7318 25.7795 26.6398 25.8399 26.5785 25.9304C25.9655 25.5381 25.3831 25.1155 24.8008 24.693C22.5326 23.1235 20.2031 21.4937 17.1992 19.9846ZM28.387 34.7436C26.7318 34.7436 25.0766 34.5022 23.5134 34.0193C23.5747 31.7254 24.7088 29.4014 26.7318 27.2886C29.5824 29.1901 32.6782 30.9105 37.1839 32.2989C34.5479 33.8985 31.5441 34.7436 28.387 34.7436ZM47.023 32.0574C44.8161 32.5705 42.3027 32.5102 39.5747 31.8461C40.0345 31.484 40.4636 31.0916 40.8621 30.6992C42.364 29.2203 43.5594 27.4999 44.4483 25.6286C46.4406 25.2363 48.249 24.6024 49.7816 23.7272C51.1916 24.8137 52.3257 26.2323 53.1839 27.9526C52.9081 28.3752 52.5709 28.7977 52.2031 29.1901C50.9157 30.5785 49.1073 31.5745 47.023 32.0574ZM56.341 25.4777C55.8812 26.0512 55.3908 26.5945 54.9004 27.1075C56.0038 24.693 56.1571 21.9162 55.2376 19.3206C55.1149 18.9886 54.9923 18.6867 54.8697 18.3849C55.023 18.0831 55.1456 17.7511 55.2376 17.4493C56.1264 14.914 56.0038 12.1976 54.9617 9.81318C55.4828 10.3866 56.0038 10.9601 56.5249 11.5939C58.6399 14.2198 59.9579 16.8154 59.9579 18.3547C59.9272 20.0751 58.5785 22.7311 56.341 25.4777Z" fill="#AA8B4E" stroke="#AA8B4E" stroke-width="0.5"/>
</svg>
