<svg width="34" height="34" viewBox="0 0 34 34" fill="none" xmlns="http://www.w3.org/2000/svg">
<g opacity="0.7" clip-path="url(#clip0_2_2587)">
<path d="M23.349 5.88042C22.6816 4.49379 21.0107 3.90849 19.6244 4.57594C17.3939 5.64926 17.5747 8.90549 19.912 9.72428C22.26 10.5465 24.4192 8.1043 23.349 5.88042ZM20.2412 8.7841C18.7392 8.25803 18.6211 6.16424 20.0563 5.47355C20.9447 5.04616 22.0208 5.41757 22.4513 6.3124C23.1404 7.74405 21.7458 9.3111 20.2412 8.7841Z" fill="#AA8B4E"/>
<path d="M27.913 6.8341C27.0994 5.14339 24.6253 5.27521 24.0027 7.05257C23.3844 8.81838 25.2153 10.4845 26.9223 9.66301H26.9222C27.9753 9.15619 28.4197 7.88717 27.913 6.8341ZM26.4902 8.76546C25.5924 9.1975 24.6134 8.32273 24.9429 7.38188C25.2701 6.44741 26.579 6.35936 27.0154 7.26607C27.284 7.82422 27.0484 8.49684 26.4902 8.76546Z" fill="#AA8B4E"/>
<path d="M28.9575 8.01396C28.0604 8.44554 27.6836 9.52105 28.1154 10.4183C28.8107 11.8632 30.91 11.7422 31.4388 10.2326C31.9642 8.73181 30.4083 7.3155 28.9575 8.01396ZM30.0878 10.3627C29.6878 10.5552 29.2055 10.3865 29.0129 9.98636C28.7003 9.33644 29.3346 8.6427 30.0048 8.87718C30.6802 9.11365 30.7298 10.0538 30.0878 10.3627Z" fill="#AA8B4E"/>
<path d="M33.3755 11.6915C32.7839 10.4622 30.9807 10.5467 30.524 11.8508C30.1693 12.8634 30.9269 13.9082 31.9839 13.9082C33.1116 13.9083 33.8709 12.721 33.3755 11.6915ZM32.221 12.857C31.9479 12.9883 31.6196 12.8746 31.4875 12.6001C31.3559 12.3265 31.4706 11.9985 31.7445 11.8666C32.0177 11.7352 32.3459 11.8492 32.4779 12.1234V12.1235C32.6093 12.3966 32.4941 12.7255 32.221 12.857Z" fill="#AA8B4E"/>
<path d="M33.8824 14.7025C33.5981 14.1117 32.8895 13.8632 32.2985 14.1478C31.7076 14.4321 31.4593 15.1407 31.7438 15.7316C32.0274 16.3209 32.7349 16.5718 33.3276 16.2863C33.9185 16.0021 34.1668 15.2936 33.8824 14.7025ZM32.8956 15.3888C32.6687 15.4978 32.5032 15.1547 32.7304 15.0454C32.9575 14.936 33.1228 15.2792 32.8956 15.3888Z" fill="#AA8B4E"/>
<path d="M15.799 1.86762C14.9793 -0.472997 11.7214 -0.645254 10.6507 1.57995C9.75786 3.43521 11.122 5.58046 13.1608 5.58046C15.0949 5.5804 16.4319 3.6746 15.799 1.86762ZM12.3871 4.40693C11.4956 3.97795 11.1193 2.90343 11.5482 2.01179C12.2419 0.570445 14.3343 0.699207 14.8589 2.1968C15.3861 3.7021 13.8181 5.09484 12.3871 4.40693Z" fill="#AA8B4E"/>
<path d="M9.99661 2.75207C9.37293 0.971516 6.89996 0.842688 6.08642 2.53352C5.57967 3.58653 6.02413 4.85561 7.07713 5.36243C8.79167 6.18746 10.6132 4.51216 9.99661 2.75207ZM9.00849 3.93967C8.73935 4.49888 8.06878 4.73422 7.50917 4.46481C6.61302 4.03357 6.68288 2.72218 7.62492 2.39234C8.56091 2.06469 9.44398 3.03496 9.00849 3.93967Z" fill="#AA8B4E"/>
<path d="M5.96054 4.74132C5.43115 3.23025 3.32839 3.11922 2.63717 4.55565C2.42845 4.98922 2.40116 5.47817 2.5602 5.93225C3.09026 7.44552 5.18936 7.56067 5.88357 6.11793C6.09235 5.68443 6.11965 5.19554 5.96054 4.74132ZM3.91117 6.06241C3.51021 5.8695 3.34174 5.38865 3.53478 4.98762C3.8453 4.34229 4.78468 4.39741 5.02036 5.07063C5.25656 5.74512 4.55478 6.37206 3.91117 6.06241Z" fill="#AA8B4E"/>
<path d="M2.68716 6.66864C1.91738 6.29822 0.994666 6.62122 0.623986 7.39114C0.129592 8.41884 0.885162 9.60698 2.01433 9.60698C2.59001 9.60698 3.14371 9.28424 3.4096 8.73161C3.77921 7.96369 3.45508 7.03819 2.68716 6.66864ZM2.51198 8.29964C2.38056 8.57277 2.05132 8.68792 1.77839 8.55657C1.50546 8.42515 1.39018 8.09617 1.52153 7.82311C1.65288 7.55005 1.98193 7.43503 2.25506 7.56618C2.52805 7.69767 2.6434 8.02671 2.51198 8.29964Z" fill="#AA8B4E"/>
<path d="M1.70101 9.84725C1.11165 9.56363 0.401106 9.81252 0.117286 10.4019L0.117219 10.402C-0.166402 10.9916 0.0824226 11.7021 0.671977 11.9859C1.26286 12.2702 1.97135 12.0224 2.2559 11.4311C2.53945 10.8415 2.29063 10.131 1.70101 9.84725ZM1.10388 11.0883C0.876973 10.9789 1.04173 10.6362 1.2691 10.7449C1.50066 10.8564 1.32601 11.1952 1.10388 11.0883Z" fill="#AA8B4E"/>
<path d="M15.7744 22.2457C14.9565 20.4518 14.5598 18.8278 14.8391 16.8167C14.951 16.011 15.1586 15.2857 15.5012 14.5648C17.7894 9.7041 13.3487 4.7755 7.90075 6.37217C4.10662 7.48427 1.7836 11.4356 3.11784 14.927L3.26931 15.4038C3.35258 15.666 3.63282 15.8112 3.89479 15.7276C4.15689 15.6443 4.30193 15.3643 4.21859 15.1021C4.04812 14.5666 4.062 14.6072 4.05284 14.5833C2.91111 11.6151 4.94627 8.2761 8.18085 7.32809C12.7532 5.98768 16.5387 9.99822 14.6054 14.1286C14.4449 14.4302 12.6167 18.0583 14.8702 22.6641C16.4771 26.2154 13.1298 30.2259 9.60261 28.1139C8.46905 27.4352 7.63678 26.2891 7.37647 25.0479C7.3685 25.0097 6.74162 23.0438 4.92282 17.318C4.83962 17.0558 4.55958 16.911 4.29728 16.9942C4.03517 17.0775 3.89014 17.3575 3.97348 17.6197L6.40694 25.2777C6.72921 26.7762 7.73095 28.1544 9.09095 28.9686C13.4253 31.5633 17.8098 26.726 15.7744 22.2457Z" fill="#AA8B4E"/>
<path d="M31.0878 18.5759C31.9146 15.2668 29.6765 11.7214 26.0987 10.6727C22.9622 9.75326 19.7478 11.0311 18.4558 13.7112C18.3363 13.959 18.4404 14.2567 18.6881 14.3762C18.9358 14.4955 19.2336 14.3917 19.3531 14.1438C20.4326 11.9048 23.1512 10.8469 25.8186 11.6288C29.0743 12.5831 31.0814 15.9358 29.9467 18.884C29.9364 18.9105 30.0686 18.4984 27.2245 27.4473C27.1223 27.7691 27.3635 28.0964 27.6993 28.0964C27.9104 28.0964 28.1065 27.9611 28.1738 27.7491C31.3576 17.7777 31.0746 18.6284 31.0878 18.5759Z" fill="#AA8B4E"/>
<path d="M27.158 29.3426C26.894 29.265 26.6173 29.4158 26.5395 29.6797C25.8775 31.9275 23.4976 33.4534 21.5471 32.882C19.1433 32.1774 18.0708 29.3036 19.1293 26.9644C21.3829 22.3588 19.5547 18.7308 19.3942 18.4292C19.0575 17.7099 18.8869 16.9613 18.8872 16.204C18.8874 15.9288 18.6644 15.7059 18.3894 15.7057H18.3892C18.1142 15.7057 17.8913 15.9286 17.8911 16.2036C17.8908 17.2082 18.1844 18.2934 18.5124 18.8924C18.5306 18.9257 20.316 22.2796 18.2315 26.5329C17.6035 27.8081 17.507 29.5948 18.2173 31.145C19.413 33.7548 22.3799 34.89 25.0523 33.1802C26.223 32.4311 27.1134 31.2578 27.4952 29.9611C27.5729 29.6972 27.4219 29.4203 27.158 29.3426Z" fill="#AA8B4E"/>
</g>
<defs>
<clipPath id="clip0_2_2587">
<rect width="34" height="34" fill="white"/>
</clipPath>
</defs>
</svg>
