<svg width="36" height="36" viewBox="0 0 36 36" fill="none" xmlns="http://www.w3.org/2000/svg">
<g opacity="0.7" clip-path="url(#clip0_2_2634)">
<path d="M20.1784 21.5106L20.4325 21.3138C22.7927 19.481 24.2603 16.7608 24.5288 13.8296C28.0905 13.5472 30.9023 10.5588 30.9023 6.92578C30.9023 5.68188 30.5686 4.46182 29.9372 3.39736C29.7887 3.14684 29.4652 3.06422 29.2147 3.21279C28.9642 3.36136 28.8816 3.68487 29.0302 3.93539C29.5649 4.83708 29.8477 5.87109 29.8477 6.92578C29.8477 9.96187 27.5311 12.4671 24.5727 12.7668C24.5713 12.6004 24.5674 12.4338 24.5583 12.2668L24.5576 12.2577L24.2803 8.40713C24.2605 8.13129 24.0308 7.91768 23.7544 7.91768H18.191C18.1358 7.59502 18.1055 7.26398 18.1055 6.92578C18.1055 3.68845 20.7393 1.05469 23.9766 1.05469C25.327 1.05469 26.6453 1.5243 27.6888 2.37698C27.9145 2.56134 28.2467 2.5278 28.4309 2.30231C28.6151 2.07675 28.5817 1.74459 28.3562 1.5603C27.1247 0.554133 25.5694 0 23.9766 0C20.1577 0 17.0508 3.1069 17.0508 6.92578C17.0508 7.26258 17.0755 7.59361 17.1221 7.91768H11.25C10.9587 7.91768 10.7227 8.15379 10.7227 8.44502C10.7227 8.73626 10.9587 8.97237 11.25 8.97237H17.3595C18.1864 11.6403 20.5857 13.6231 23.4692 13.8329C23.3718 14.7874 23.1335 15.716 22.7669 16.5897C22.1357 15.9681 20.9751 15.1311 19.3023 15.1311C18.8937 15.1311 18.4852 15.2003 18.0779 15.317C18.0956 15.1701 18.1054 15.0214 18.1054 14.8712C18.1054 12.8357 16.4494 11.1798 14.414 11.1798C12.3786 11.1798 10.7226 12.8357 10.7226 14.8712C10.7226 14.9601 10.7266 15.0481 10.7327 15.1355C9.16566 15.1976 8.07884 15.9811 7.46655 16.5877C6.9101 15.2607 6.64882 13.8074 6.72898 12.3288L6.97071 8.97244H8.97743C9.26873 8.97244 9.50477 8.73633 9.50477 8.44509C9.50477 8.15386 9.26873 7.91775 8.97743 7.91775H6.47993C6.20339 7.91775 5.97382 8.13136 5.95399 8.4072L5.67668 12.2578L5.67605 12.2669C5.48402 15.7766 7.02633 19.1586 9.80177 21.3138L10.0559 21.5107C12.3727 23.3036 13.5356 24.2035 13.5356 28.9422V30.8173C13.5356 31.9305 12.6305 32.836 11.5181 32.836H7.29127C6.08175 32.8359 5.09766 33.8204 5.09766 35.0305C5.09766 35.565 5.53247 36 6.06691 36H18C18.2913 36 18.5273 35.7639 18.5273 35.4727C18.5273 35.1814 18.2913 34.9453 18 34.9453H6.15551C6.19917 34.3564 6.69192 33.8906 7.29134 33.8906H11.5182C13.2122 33.8906 14.5903 32.5119 14.5903 30.8172V28.9421C14.5903 26.0292 14.115 24.3631 13.2926 23.1479C13.911 23.3312 14.5245 23.4288 15.117 23.4288C15.7061 23.4288 16.318 23.3349 16.9355 23.157C16.117 24.3714 15.644 26.0364 15.644 28.9422V30.8173C15.644 32.512 17.0222 33.8907 18.7161 33.8907H22.943C23.5424 33.8907 24.0351 34.3565 24.0788 34.9454H20.2797C19.9884 34.9454 19.7524 35.1815 19.7524 35.4727C19.7524 35.764 19.9884 36.0001 20.2797 36.0001H24.1674C24.7019 36.0001 25.1366 35.5651 25.1366 35.0305C25.1366 33.8205 24.1526 32.836 22.943 32.836H18.7161C17.6037 32.836 16.6987 31.9304 16.6987 30.8173V28.9422C16.6987 24.2035 17.8616 23.3035 20.1784 21.5106ZM18.4741 8.97237H23.2635L23.5053 12.3287C23.5134 12.4786 23.5169 12.6281 23.5181 12.7773C21.2002 12.5972 19.2556 11.0666 18.4741 8.97237ZM14.4141 12.2344C15.868 12.2344 17.0508 13.4172 17.0508 14.8711C17.0508 15.1842 16.9964 15.4876 16.8905 15.776C16.3109 16.0493 15.736 16.3794 15.1693 16.7049C14.7051 16.9715 14.254 17.2306 13.827 17.4416C12.8654 17.2249 12.1256 16.5003 11.8722 15.5781C11.8692 15.5637 11.8657 15.5495 11.8614 15.5356C11.8068 15.3229 11.7773 15.1003 11.7773 14.8711C11.7773 13.4172 12.9601 12.2344 14.4141 12.2344ZM12.3531 17.938C10.7893 18.1669 9.09492 17.6662 8.2092 17.34C8.70279 16.8552 9.62128 16.186 10.9323 16.186C10.9421 16.186 10.9524 16.1869 10.9622 16.1871C11.2331 16.9032 11.7205 17.5145 12.3531 17.938ZM11.0047 20.9116C10.9052 20.8342 10.4486 20.4807 10.4486 20.4807C9.73934 19.9299 9.11967 19.29 8.59929 18.584C9.40985 18.8288 10.4427 19.0525 11.5111 19.0525C11.9638 19.0525 12.4227 19.0124 12.8738 18.9167C13.2798 18.8305 13.6951 18.6717 14.1206 18.471C14.1223 18.4702 14.124 18.4693 14.1256 18.4686C14.6336 18.2286 15.1559 17.9289 15.6946 17.6195C16.293 17.2757 16.9014 16.9265 17.4966 16.6586C17.511 16.6528 17.525 16.6466 17.5389 16.6395C18.1493 16.3686 18.7455 16.1858 19.3023 16.1858C20.8737 16.1858 21.8733 17.1338 22.2706 17.6017C21.6497 18.7017 20.8113 19.6843 19.7857 20.4808C19.7857 20.4808 19.3289 20.8344 19.2293 20.912C17.8886 21.8357 16.3908 22.3742 15.117 22.3742C13.8434 22.3741 12.3455 21.8355 11.0047 20.9116Z" fill="#AA8B4E"/>
<path d="M23.5195 2.67188V3.79688C23.5195 4.08811 23.7556 4.32422 24.0469 4.32422C24.3382 4.32422 24.5742 4.08811 24.5742 3.79688V2.67188C24.5742 2.38064 24.3382 2.14453 24.0469 2.14453C23.7556 2.14453 23.5195 2.38064 23.5195 2.67188Z" fill="#AA8B4E"/>
<path d="M22.398 4.76382C22.4875 4.76382 22.5782 4.74104 22.6612 4.69308C22.9134 4.54747 22.9998 4.22494 22.8542 3.97273L22.2917 2.99848C22.1462 2.7462 21.8234 2.65978 21.5714 2.80547C21.3192 2.95109 21.2327 3.27361 21.3784 3.52582L21.9409 4.50007C22.0385 4.66925 22.2158 4.76382 22.398 4.76382Z" fill="#AA8B4E"/>
<path d="M25.808 11.1982C25.9057 11.3674 26.083 11.462 26.2652 11.462C26.3546 11.462 26.4454 11.4392 26.5284 11.3912C26.7806 11.2456 26.867 10.9231 26.7214 10.6709L26.1589 9.69662C26.0133 9.44441 25.6906 9.358 25.4385 9.50361C25.1863 9.64923 25.0999 9.97176 25.2455 10.224L25.808 11.1982Z" fill="#AA8B4E"/>
<path d="M21.6458 5.7052C21.7915 5.45299 21.705 5.13046 21.4528 4.98485L20.4786 4.42235C20.2262 4.27666 19.9038 4.36314 19.7582 4.61535C19.6126 4.86757 19.699 5.19009 19.9512 5.33571L20.9255 5.89821C21.0086 5.94616 21.0992 5.96894 21.1887 5.96894C21.3708 5.96901 21.5482 5.87437 21.6458 5.7052Z" fill="#AA8B4E"/>
<path d="M27.8869 9.83621C28.0692 9.83621 28.2464 9.74157 28.3441 9.57247C28.4897 9.32025 28.4033 8.99773 28.1511 8.85211L27.1768 8.28961C26.9245 8.14392 26.602 8.23041 26.4565 8.48262C26.3109 8.73483 26.3973 9.05736 26.6495 9.20297L27.6237 9.76547C27.7068 9.81336 27.7975 9.83621 27.8869 9.83621Z" fill="#AA8B4E"/>
<path d="M20.7451 6.56238H19.6201C19.3288 6.56238 19.0928 6.79849 19.0928 7.08972C19.0928 7.38096 19.3288 7.61707 19.6201 7.61707H20.7451C21.0364 7.61707 21.2725 7.38096 21.2725 7.08972C21.2725 6.79849 21.0364 6.56238 20.7451 6.56238Z" fill="#AA8B4E"/>
<path d="M29.0068 7.08972C29.0068 6.79849 28.7708 6.56238 28.4795 6.56238H27.3545C27.0632 6.56238 26.8271 6.79849 26.8271 7.08972C26.8271 7.38096 27.0632 7.61707 27.3545 7.61707H28.4795C28.7708 7.61707 29.0068 7.38096 29.0068 7.08972Z" fill="#AA8B4E"/>
<path d="M26.4516 5.6979C26.5493 5.86708 26.7265 5.96165 26.9088 5.96165C26.9982 5.96165 27.089 5.93886 27.1719 5.89091L28.1462 5.32841C28.3984 5.18279 28.4848 4.86027 28.3392 4.60806C28.1937 4.35578 27.871 4.26936 27.6188 4.41505L26.6446 4.97755C26.3924 5.12317 26.306 5.44569 26.4516 5.6979Z" fill="#AA8B4E"/>
<path d="M26.5206 2.79264C26.2684 2.64695 25.9458 2.73337 25.8002 2.98565L25.2377 3.9599C25.0921 4.21211 25.1785 4.53463 25.4307 4.68025C25.5138 4.7282 25.6045 4.75098 25.6939 4.75098C25.8762 4.75098 26.0534 4.65641 26.1511 4.48724L26.7136 3.51299C26.8592 3.26078 26.7728 2.93826 26.5206 2.79264Z" fill="#AA8B4E"/>
</g>
<defs>
<clipPath id="clip0_2_2634">
<rect width="36" height="36" fill="white"/>
</clipPath>
</defs>
</svg>
