<svg width="33" height="33" viewBox="0 0 33 33" fill="none" xmlns="http://www.w3.org/2000/svg">
<g opacity="0.7" clip-path="url(#clip0_2_2655)">
<path d="M33 11.2387C32.9992 10.7377 32.8519 10.2296 32.5261 9.81078L29.9113 6.46514C29.4734 5.90904 28.807 5.6259 28.1411 5.6248C27.7448 5.6248 27.3412 5.72638 26.9847 5.94874L24.4351 7.53493C24.167 7.70593 23.7073 7.8233 23.2633 7.82027C22.9184 7.82175 22.585 7.75272 22.3649 7.64399L19.8683 6.43466C19.4656 6.24078 19.0166 6.16131 18.5652 6.16054C17.9169 6.16357 17.2603 6.32289 16.7327 6.68854L16.4413 6.89292C16.2085 6.77671 15.8526 6.59966 15.4495 6.39908C14.9661 6.16208 14.3977 6.0665 13.8236 6.06463C13.3049 6.06611 12.7864 6.14603 12.3311 6.33836L10.6306 7.06398C10.3538 7.18399 9.9136 7.26236 9.47635 7.26043C9.0391 7.2623 8.59966 7.18392 8.3229 7.06398L6.62082 6.33798C6.31035 6.20559 5.97848 6.149 5.64958 6.14861C5.27085 6.149 4.89438 6.22364 4.54446 6.36537C4.195 6.50787 3.87061 6.71825 3.61228 7.00693L0.513371 10.4775C0.169901 10.861 -0.000706784 11.3441 2.20056e-06 11.8195C-0.000706784 12.3865 0.241895 12.9553 0.709824 13.354L3.60055 15.8202L2.22924 17.2507C1.85123 17.6452 1.66302 18.1567 1.66302 18.6625C1.66231 19.2006 1.87604 19.744 2.29937 20.144L2.57755 20.4084C2.83968 20.657 3.15466 20.8152 3.48427 20.8996C3.31895 21.2036 3.22859 21.5371 3.2293 21.8711C3.22859 22.4096 3.44231 22.9526 3.86487 23.3531L3.86416 23.3527L4.14318 23.6182C4.54034 23.9947 5.05519 24.1821 5.56244 24.1818C5.83507 24.1822 6.10803 24.1274 6.36455 24.0202C6.4546 24.3854 6.64054 24.7326 6.93303 25.0101L7.21205 25.2756C7.60921 25.6521 8.12322 25.8396 8.63131 25.8392C9.02847 25.8396 9.42743 25.7226 9.7709 25.4954C9.87138 25.8186 10.0435 26.125 10.3056 26.3739L10.5846 26.6394C10.9809 27.0159 11.4958 27.2034 12.0032 27.2031C12.5435 27.2035 13.0891 26.9912 13.4922 26.5705L14.7041 25.3049L16.3507 26.8288C16.7449 27.1944 17.2508 27.3763 17.7501 27.3752C18.2988 27.3763 18.8522 27.1565 19.2561 26.7242L19.5189 26.4426C19.7458 26.1989 19.8939 25.9105 19.9798 25.6094L20.6177 26.1981C21.0125 26.5622 21.5177 26.7433 22.0164 26.7429C22.5657 26.7433 23.1207 26.5235 23.5249 26.0909L23.7863 25.8096C24.0881 25.4871 24.258 25.0877 24.3105 24.6798C24.4788 24.7229 24.6495 24.7522 24.8215 24.7522C25.3709 24.7522 25.9243 24.5328 26.329 24.1005L26.5911 23.8192C26.9575 23.4266 27.1397 22.923 27.139 22.4265C27.139 22.2724 27.1168 22.1191 27.0827 21.9675C27.5383 21.9071 27.9801 21.7039 28.316 21.3432L28.5788 21.0616C28.9452 20.6689 29.1267 20.1654 29.1267 19.6685C29.1274 19.1218 28.907 18.5701 28.472 18.1682L27.9804 17.7141L32.4172 12.8086C32.8155 12.367 32.9993 11.7985 33 11.2387ZM3.997 19.8557C3.76194 19.855 3.53203 19.771 3.3524 19.6008L3.07377 19.3364C2.88099 19.1542 2.7858 18.9116 2.78502 18.6626C2.7858 18.429 2.86939 18.201 3.04155 18.0213L5.85015 15.0905C6.03314 14.8995 6.27729 14.804 6.52775 14.8036C6.7621 14.804 6.99123 14.8884 7.17235 15.059L7.44982 15.3237C7.44982 15.3237 7.73708 15.7485 7.73779 15.9979C7.73708 16.1846 7.68082 16.3665 7.5717 16.524C7.56235 16.5334 4.54034 19.6829 4.54034 19.6829C4.37985 19.7964 4.1901 19.8549 3.997 19.8557ZM6.2401 22.7791C6.0575 22.9693 5.81374 23.0645 5.56327 23.0652C5.32821 23.0649 5.09902 22.9805 4.91868 22.8103L4.63966 22.5451L4.63895 22.5447C4.44772 22.3632 4.35168 22.1199 4.35168 21.8709C4.35168 21.6373 4.43605 21.4092 4.60737 21.2296C4.60737 21.2296 8.35119 17.3325 8.38271 17.2949C8.56163 17.1228 8.79218 17.0339 9.03027 17.0335C9.26533 17.0339 9.49453 17.1179 9.67487 17.2885L9.95389 17.554C10.1458 17.7355 10.2412 17.9785 10.2419 18.2278C10.2411 18.4614 10.1568 18.6898 9.98534 18.8694L6.2401 22.7791ZM9.30852 24.4361C9.12631 24.6267 8.88261 24.722 8.63208 24.7227C8.39702 24.7223 8.16782 24.638 7.98748 24.4674L7.70769 24.2022C7.51575 24.0203 7.41972 23.7774 7.41972 23.5283C7.41972 23.3199 7.49061 23.1177 7.62629 22.9494L10.2335 20.2281C10.4094 20.0695 10.6299 19.9859 10.8583 19.9859C11.0934 19.9862 11.3225 20.0702 11.5029 20.2408L11.7827 20.5063C11.9739 20.6878 12.0699 20.9308 12.0707 21.1798C12.0699 21.4138 11.9848 21.6422 11.8141 21.8214L9.30852 24.4361ZM14.2625 24.1489L12.6804 25.8001C12.4982 25.9905 12.2541 26.0858 12.0036 26.0865C11.7686 26.0862 11.5394 26.0018 11.359 25.8312L11.08 25.566C10.8888 25.3845 10.7927 25.1412 10.792 24.8922C10.7927 24.6581 10.8771 24.4298 11.0486 24.2509L12.6299 22.5998C12.8129 22.4094 13.057 22.3137 13.3075 22.3133C13.5419 22.3137 13.7718 22.3977 13.9521 22.5687L14.2319 22.8339C14.4231 23.0154 14.5184 23.2583 14.5192 23.5073C14.5183 23.7413 14.4339 23.9696 14.2625 24.1489ZM28.0064 19.67C28.006 19.8993 27.9239 20.1239 27.7574 20.3024L27.4953 20.5837C27.3123 20.7794 27.064 20.8784 26.8098 20.8788C26.5792 20.8784 26.3534 20.7974 26.1742 20.6317L21.7569 16.5466L20.9931 17.3645L25.7212 21.7447C25.9181 21.9269 26.0171 22.1744 26.0186 22.4272C26.0171 22.6574 25.9357 22.8816 25.7696 23.0601L25.5082 23.3414C25.3252 23.5372 25.077 23.6358 24.8228 23.6366C24.5922 23.6358 24.3657 23.5544 24.1879 23.3898L19.7695 19.3048L19.0064 20.1226L22.9276 23.7488C23.1166 23.9299 23.2134 24.171 23.2134 24.4184C23.2134 24.648 23.132 24.8725 22.9659 25.0507L22.7037 25.3319C22.5215 25.5277 22.2725 25.6267 22.0176 25.6274C21.7862 25.6267 21.5605 25.5453 21.382 25.3807L17.4687 21.7677H17.468L17.4672 21.767L16.7057 22.5863L16.7064 22.587L16.7211 22.6009L18.6811 24.4098C18.8547 24.5883 18.9447 24.817 18.9454 25.0536C18.9447 25.282 18.864 25.5054 18.6979 25.6836L18.4358 25.9652C18.2528 26.161 18.0053 26.2592 17.7518 26.26C17.5212 26.2593 17.2954 26.1783 17.1169 26.0129L15.4104 24.4327C15.5589 24.1414 15.6418 23.8253 15.6418 23.508C15.6425 22.9699 15.4288 22.4273 15.0062 22.0265L14.7264 21.761C14.3301 21.3849 13.816 21.1971 13.3087 21.1978C13.2693 21.1978 13.2296 21.2068 13.191 21.2091C13.191 21.1997 13.1932 21.1899 13.1932 21.1806C13.1939 20.6424 12.5576 19.6983 12.5576 19.6983L12.2786 19.4336C11.982 19.1523 11.6201 18.9768 11.2437 18.9063C11.3213 18.6866 11.3652 18.4579 11.3652 18.2287C11.3652 17.6906 11.1521 17.1476 10.7296 16.7472L10.4506 16.4817C10.0534 16.1053 9.53939 15.9174 9.03201 15.9178C8.97278 15.9178 8.91432 15.9298 8.85541 15.935C8.8393 15.4183 8.63118 14.902 8.22622 14.5173V14.5169L7.94797 14.2526C7.55081 13.8757 7.0368 13.6878 6.52943 13.6882C5.98828 13.6878 5.44346 13.9001 5.04043 14.3208L4.37746 15.0127L1.44059 12.5078C1.22951 12.327 1.12413 12.0773 1.12336 11.8208C1.12406 11.6059 1.19722 11.3955 1.3532 11.2209L4.45204 7.7504C4.57501 7.61241 4.7569 7.48756 4.96992 7.40087C5.18294 7.31425 5.42476 7.26668 5.65087 7.267C5.84777 7.267 6.03256 7.30265 6.18035 7.36639L7.88165 8.09233C8.36125 8.29445 8.91806 8.37734 9.47764 8.37914C10.0379 8.37727 10.594 8.29439 11.0736 8.09233L12.7742 7.36671C13.0363 7.25237 13.4318 7.18147 13.8252 7.18296C14.2602 7.18031 14.6959 7.27035 14.9486 7.39933C15.1091 7.47918 15.2613 7.55498 15.4027 7.62581L13.6684 8.84494C13.1111 9.23682 12.8108 9.86002 12.8115 10.4889C12.8108 10.9051 12.9428 11.3288 13.2113 11.6884L13.2106 11.6877L13.4396 11.9955C13.8746 12.5738 14.5529 12.8711 15.2309 12.8726C15.6138 12.8726 16.0038 12.7758 16.3514 12.5673L17.3886 11.9444C17.6001 11.8151 17.9195 11.7333 18.2498 11.7348C18.638 11.7326 19.0291 11.8474 19.2642 12.0202L22.1336 14.0773C22.7722 14.5348 23.8123 15.3834 24.3887 15.9174L27.7099 18.9881C27.9066 19.1705 28.0056 19.4169 28.0064 19.67ZM31.5845 12.0621L27.16 16.9545L25.1512 15.0976C24.522 14.5168 23.4845 13.6697 22.7885 13.1698L19.9199 11.1127C19.4335 10.7681 18.838 10.6191 18.2493 10.617C17.7483 10.6184 17.2436 10.7276 16.8079 10.987L15.7715 11.6099C15.6125 11.7055 15.4251 11.7543 15.2303 11.7547C14.8823 11.7558 14.534 11.5934 14.3398 11.329L14.1114 11.0216L14.1107 11.0208C13.9892 10.857 13.9326 10.6732 13.9317 10.4872C13.9332 10.2059 14.063 9.93298 14.3143 9.7556L17.3809 7.60093C17.646 7.40899 18.1178 7.27435 18.5659 7.2777C18.8771 7.27622 19.1744 7.3388 19.378 7.43935L21.8746 8.64869C22.3003 8.85307 22.7806 8.93666 23.2639 8.93782C23.8848 8.93479 24.5126 8.79983 25.0297 8.4822L27.58 6.89569C27.7428 6.79411 27.9381 6.74158 28.1418 6.74158C28.486 6.74087 28.831 6.89685 29.0263 7.15144L31.6411 10.4971C31.7918 10.6887 31.8792 10.959 31.8792 11.2392C31.8796 11.5525 31.7689 11.8608 31.5845 12.0621Z" fill="#AA8B4E"/>
</g>
<defs>
<clipPath id="clip0_2_2655">
<rect width="33" height="33" fill="white"/>
</clipPath>
</defs>
</svg>
