<svg width="64" height="49" viewBox="0 0 64 49" fill="none" xmlns="http://www.w3.org/2000/svg">
<rect opacity="0.2" x="14.2051" width="49" height="49" rx="2" fill="url(#paint0_linear_131_1240)"/>
<g clip-path="url(#clip0_131_1240)">
<path d="M19.3594 21.8672C17.2787 21.8672 15.5859 23.56 15.5859 25.6406C15.5859 27.7213 17.2787 29.4141 19.3594 29.4141C21.44 29.4141 23.1328 27.7213 23.1328 25.6406C23.1328 23.56 21.44 21.8672 19.3594 21.8672ZM19.3594 27.7734C18.1834 27.7734 17.2266 26.8167 17.2266 25.6406C17.2266 24.4645 18.1834 23.5078 19.3594 23.5078C20.5354 23.5078 21.4922 24.4645 21.4922 25.6406C21.4922 26.8167 20.5354 27.7734 19.3594 27.7734Z" fill="#AA8B4E"/>
<path d="M5.79688 26.461C6.24993 26.461 6.61719 26.0936 6.61719 25.6407C6.61719 18.6146 12.3333 12.8985 19.3593 12.8985C19.8124 12.8985 20.1797 12.5312 20.1797 12.0782C20.1797 11.6252 19.8124 11.2579 19.3593 11.2579C11.4286 11.2579 4.97656 17.71 4.97656 25.6407C4.97664 26.0937 5.3439 26.461 5.79688 26.461Z" fill="#AA8B4E"/>
<path d="M33.7422 25.6406C33.7422 25.1876 33.3748 24.8203 32.9218 24.8203C32.4688 24.8203 32.1015 25.1876 32.1015 25.6406C32.1015 32.6667 26.3854 38.3828 19.3594 38.3828C18.9063 38.3828 18.5391 38.75 18.5391 39.2031C18.5391 39.6561 18.9063 40.0234 19.3594 40.0234C27.2901 40.0234 33.7422 33.5713 33.7422 25.6406Z" fill="#AA8B4E"/>
<path d="M42 3.82009C42 3.56112 41.8777 3.31732 41.6701 3.16244C41.4624 3.00765 41.194 2.95999 40.9457 3.03382L31.3753 5.88203C31.0275 5.98563 30.789 6.30539 30.789 6.6683V10.0112C27.4925 7.58967 23.5267 6.28103 19.3594 6.28103C15.5311 6.28103 11.8293 7.39682 8.65421 9.50781C8.27695 9.75866 8.17441 10.2678 8.42527 10.645C8.67612 11.0224 9.18528 11.1248 9.56255 10.874C12.4676 8.94253 15.8553 7.92165 19.3594 7.92165C23.7115 7.92165 27.7014 9.49985 30.789 12.1127V15.4389C30.2361 15.084 29.5794 14.8772 28.875 14.8772C26.9149 14.8772 25.3203 16.4719 25.3203 18.4319C25.3203 18.4349 25.3206 18.4377 25.3206 18.4406C23.701 17.0974 21.6229 16.2888 19.3594 16.2888C14.2029 16.2888 10.0078 20.484 10.0078 25.6404C10.0078 30.7968 14.2029 34.992 19.3594 34.992C24.5158 34.992 28.7109 30.7968 28.7109 25.6404C28.7109 24.2925 28.4238 23.0106 27.9083 21.8519C28.2159 21.939 28.5399 21.9866 28.875 21.9866C30.8351 21.9866 32.4297 20.392 32.4297 18.4319V13.69C35.3151 16.8431 37.0781 21.0396 37.0781 25.6404C37.0781 35.4106 29.1295 43.3592 19.3594 43.3592C9.58921 43.3592 1.64062 35.4106 1.64062 25.6404C1.64062 22.1354 2.66208 18.747 4.59441 15.8414C4.84534 15.464 4.74288 14.9548 4.36562 14.704C3.98844 14.4532 3.47919 14.5556 3.22834 14.9328C1.11636 18.1085 0 21.8111 0 25.6404C0 30.8115 2.0137 35.6731 5.67025 39.3295C9.32671 42.9861 14.1883 44.9998 19.3594 44.9998C24.5305 44.9998 29.392 42.9861 33.0485 39.3295C36.705 35.6731 38.7188 30.8115 38.7188 25.6404C38.7188 23.3494 38.3227 21.1194 37.5644 19.0278C37.8462 19.0999 38.1413 19.1384 38.4453 19.1384C40.4053 19.1384 42 17.5438 42 15.5838V7.81247C42 7.80992 42 3.82009 42 3.82009ZM40.3594 4.92005V7.18747L32.4297 9.54743V7.28L40.3594 4.92005ZM19.3594 33.3513C15.1075 33.3513 11.6484 29.8923 11.6484 25.6404C11.6484 21.3886 15.1075 17.9295 19.3594 17.9295C23.6112 17.9295 27.0703 21.3886 27.0703 25.6404C27.0703 29.8923 23.6112 33.3513 19.3594 33.3513ZM28.875 20.3459C27.8196 20.3459 26.961 19.4873 26.961 18.4319C26.961 17.3765 27.8196 16.5179 28.875 16.5179C29.9304 16.5179 30.789 17.3765 30.789 18.4319C30.789 19.4873 29.9304 20.3459 28.875 20.3459ZM33.0485 11.9513C32.8461 11.7488 32.6393 11.5523 32.4297 11.36V11.2592L40.3594 8.8993V12.5908C39.8064 12.2359 39.1497 12.0291 38.4453 12.0291C36.9112 12.0291 35.6012 13.006 35.104 14.3704C34.4911 13.5178 33.8057 12.7084 33.0485 11.9513ZM38.4453 17.4977C37.3899 17.4977 36.5312 16.6391 36.5312 15.5837C36.5312 14.5283 37.3899 13.6697 38.4453 13.6697C39.5008 13.6697 40.3594 14.5283 40.3594 15.5837C40.3594 16.6392 39.5008 17.4977 38.4453 17.4977Z" fill="#AA8B4E"/>
<path d="M6.25 13.3524C6.46574 13.3524 6.67738 13.2646 6.82996 13.1112C6.98336 12.9586 7.07031 12.7478 7.07031 12.5312C7.07031 12.3155 6.98336 12.1039 6.82996 11.9514C6.67738 11.7988 6.46656 11.7109 6.25 11.7109C6.03426 11.7109 5.82262 11.7987 5.67004 11.9514C5.51746 12.1039 5.42969 12.3155 5.42969 12.5312C5.42969 12.7479 5.51746 12.9586 5.67004 13.1112C5.82344 13.2646 6.03426 13.3524 6.25 13.3524Z" fill="#AA8B4E"/>
</g>
<defs>
<linearGradient id="paint0_linear_131_1240" x1="63.0051" y1="25" x2="14.0051" y2="25" gradientUnits="userSpaceOnUse">
<stop stop-color="#AA8B4E"/>
<stop offset="1" stop-color="#AA8B4E" stop-opacity="0"/>
</linearGradient>
<clipPath id="clip0_131_1240">
<rect width="42" height="42" fill="white" transform="translate(0 3)"/>
</clipPath>
</defs>
</svg>
