<svg width="31" height="31" viewBox="0 0 31 31" fill="none" xmlns="http://www.w3.org/2000/svg">
<path d="M30.27 8.78175L15.7388 0.547375C15.5901 0.463578 15.4094 0.463578 15.2612 0.547375L0.729953 8.78175C0.577859 8.86797 0.484375 9.02878 0.484375 9.20316V30.0313C0.484375 30.2987 0.700891 30.5157 0.96875 30.5157H3.39062C3.65848 30.5157 3.875 30.2987 3.875 30.0313V20.3438C3.875 19.7897 3.68028 19.284 3.36592 18.8756C4.19953 18.8001 4.9043 18.214 5.11016 17.3891C5.52381 15.734 5.35234 14.0246 4.63111 12.5027C5.5398 12.2944 6.31286 11.7253 6.78125 10.9484C7.37509 11.9336 8.45573 12.5938 9.6875 12.5938C10.2087 12.5938 10.6994 12.4698 11.1406 12.2591V16.4688C11.1406 17.7345 12.12 18.7647 13.3586 18.8698C12.8853 19.3871 12.5938 20.0735 12.5938 20.8282V30.0313C12.5938 30.2987 12.8103 30.5157 13.0781 30.5157H17.9219C18.1897 30.5157 18.4062 30.2987 18.4062 30.0313V20.8282C18.4062 20.0735 18.1147 19.3871 17.6414 18.8698C18.88 18.7647 19.8594 17.7345 19.8594 16.4688V12.2591C20.3006 12.4698 20.7913 12.5938 21.3125 12.5938C22.5443 12.5938 23.6249 11.9336 24.2188 10.9484C24.6867 11.7253 25.4597 12.294 26.3689 12.5027C25.6477 14.0246 25.4762 15.734 25.8898 17.3891C26.0962 18.2145 26.8005 18.8001 27.6341 18.8756C27.3197 19.284 27.125 19.7897 27.125 20.3438V30.0313C27.125 30.2987 27.3415 30.5157 27.6094 30.5157H30.0312C30.2991 30.5157 30.5156 30.2987 30.5156 30.0313V9.20316C30.5156 9.02878 30.4221 8.86797 30.27 8.78175ZM15.5 1.52533L16.0682 1.84744L17.9175 9.24481C17.8948 10.5609 16.8209 11.625 15.5 11.625C14.1791 11.625 13.1053 10.5609 13.0825 9.2453L14.9318 1.84792L15.5 1.52533ZM2.90625 29.5469H1.45312V18.8907C2.25428 18.8907 2.90625 19.5426 2.90625 20.3438V29.5469ZM4.17047 17.1537C4.05712 17.6061 3.65267 17.9219 3.18622 17.9219H2.13609C2.945 17.1009 3.39062 16.0173 3.39062 14.864V14.5313H2.42188V14.864C2.42188 15.7577 2.077 16.5976 1.45312 17.2351V11.5713C2.00338 12.1336 2.74641 12.5051 3.57469 12.5783C4.34388 13.9805 4.56039 15.5935 4.17047 17.1537ZM3.875 11.625C2.63209 11.625 1.60473 10.6839 1.46814 9.47683L9.29806 5.03995L6.39375 8.91253L6.40053 8.91738C6.3395 8.99827 6.29688 9.09417 6.29688 9.20316C6.29688 10.5386 5.21042 11.625 3.875 11.625ZM7.28016 9.34556L11.4041 3.84694L13.7693 2.50667L12.1239 9.08545L12.1326 9.08739C12.1229 9.12566 12.1094 9.16247 12.1094 9.20316C12.1094 10.5386 11.0229 11.625 9.6875 11.625C8.401 11.625 7.35523 10.6137 7.28016 9.34556ZM17.4375 29.5469H13.5625V20.8282C13.5625 20.1931 13.8735 19.6337 14.3467 19.2801L14.1878 20.075C14.0943 20.5424 14.0469 21.0219 14.0469 21.4995V22.7657H15.0156V21.4995C15.0156 21.0854 15.0568 20.6698 15.1377 20.2648L15.4109 18.8999C15.4409 18.8984 15.4695 18.8907 15.5 18.8907C15.5305 18.8907 15.5591 18.8984 15.5891 18.8999L15.8623 20.2648C15.9432 20.6698 15.9844 21.0854 15.9844 21.4995V22.7657H16.9531V21.4995C16.9531 21.0219 16.9057 20.5424 16.8122 20.0745L16.6533 19.2801C17.1265 19.6337 17.4375 20.1931 17.4375 20.8282V29.5469ZM17.4375 17.9219H16.5429C17.4336 16.7119 17.9219 15.2598 17.9219 13.7287V13.0782H16.9531V13.7287C16.9531 15.3019 16.3593 16.7812 15.2864 17.9219H14.7061C14.2813 17.0718 14.0469 16.1336 14.0469 15.1818V14.5313H13.0781V15.1818C13.0781 16.1229 13.2695 17.0558 13.6313 17.9219H13.5625C12.7613 17.9219 12.1094 17.2699 12.1094 16.4688V11.5688C12.293 11.3809 12.4576 11.1746 12.5938 10.9484C13.1876 11.9336 14.2682 12.5938 15.5 12.5938C16.7318 12.5938 17.8124 11.9336 18.4062 10.9484C18.5424 11.1746 18.707 11.3809 18.8906 11.5688V16.4688C18.8906 17.2699 18.2387 17.9219 17.4375 17.9219ZM21.3125 11.625C19.9771 11.625 18.8906 10.5386 18.8906 9.20316C18.8906 9.16247 18.8771 9.12566 18.8674 9.08788L18.8761 9.08594L17.2312 2.50667L19.5964 3.84694L23.7203 9.34556C23.6448 10.6137 22.599 11.625 21.3125 11.625ZM24.7031 9.20316C24.7031 9.09417 24.6605 8.99827 24.5995 8.91738L24.6062 8.91253L21.7019 5.03995L29.5319 9.47683C29.3953 10.6839 28.3679 11.625 27.125 11.625C25.7896 11.625 24.7031 10.5386 24.7031 9.20316ZM29.5469 29.5469H28.0938V20.3438C28.0938 19.5426 28.7457 18.8907 29.5469 18.8907V29.5469ZM29.5469 17.2346C28.923 16.5971 28.5781 15.7572 28.5781 14.8636V14.5313H27.6094V14.864C27.6094 16.0173 28.055 17.1014 28.8639 17.9219H27.8138C27.3473 17.9219 26.9429 17.6061 26.8295 17.1537C26.4396 15.5935 26.6566 13.9805 27.4258 12.5788C28.2541 12.5056 28.9971 12.1341 29.5474 11.5717V17.2346H29.5469Z" fill="#AA8B4E"/>
</svg>
