<svg xmlns="http://www.w3.org/2000/svg" width="60" height="49" viewBox="0 0 60 49" fill="none">
<rect opacity="0.2" x="10.2002" width="49" height="49" rx="2" fill="url(#paint0_linear)"/>
<g clip-path="url(#clip0)">
<path d="M39.4183 27.856C39.6258 27.4655 39.4774 26.9807 39.0869 26.7731C34.5999 24.3887 29.1263 24.9606 25.238 28.1558L23.9442 26.8619L26.0572 24.7489C26.3699 24.4362 26.3699 23.9292 26.0572 23.6164C25.7445 23.3037 25.2376 23.3037 24.9247 23.6164L22.8117 25.7294L17.6562 20.5739C18.8289 19.0013 19.5666 17.154 19.7992 15.1871C20.0673 12.9196 19.6407 10.6515 18.5654 8.62814C18.3579 8.2376 17.873 8.0893 17.4825 8.29678C17.092 8.50434 16.9437 8.98913 17.1511 9.37967C18.8759 12.6252 18.6059 16.4791 16.51 19.4277L13.1125 16.0302C12.6358 15.5535 11.9582 15.3557 11.2998 15.5007C10.6414 15.6459 10.1098 16.1105 9.87776 16.7435L0.122679 43.3559C-0.14374 44.0828 0.0307496 44.8744 0.578242 45.4218C0.956289 45.7999 1.45061 46.0001 1.95982 46.0001C2.18805 46.0001 2.41923 45.9598 2.64417 45.8774L29.2564 36.1222C29.8894 35.8902 30.354 35.3586 30.4992 34.7003C30.6443 34.0419 30.4465 33.3643 29.9698 32.8876L26.3775 29.2952C29.761 26.5954 34.468 26.1324 38.3354 28.1875C38.7259 28.395 39.2107 28.2466 39.4183 27.856ZM12.7545 40.4655L5.53458 33.2456L7.53508 27.7882L18.2119 38.465L12.7545 40.4655ZM8.84131 41.8999L4.10014 37.1587L4.92703 34.903L11.097 41.073L8.84131 41.8999ZM2.09291 44.3736C1.90313 44.4432 1.77204 44.3506 1.71062 44.2894C1.64928 44.228 1.55679 44.0968 1.62638 43.9071L3.49251 38.8162L7.18378 42.5075L2.09291 44.3736ZM28.9352 34.3554C28.9192 34.428 28.868 34.5588 28.7053 34.6184L23.7824 36.423L19.2278 31.8683C18.9151 31.5555 18.408 31.5556 18.0953 31.8682C17.7826 32.1809 17.7826 32.688 18.0953 33.0007L22.1249 37.0305L19.8692 37.8573L8.14263 26.1308L8.96951 23.875L12.9993 27.9047C13.1556 28.0611 13.3606 28.1393 13.5655 28.1393C13.7704 28.1393 13.9754 28.061 14.1317 27.9047C14.4444 27.592 14.4444 27.085 14.1316 26.7723L9.57707 22.2177L11.3816 17.2947C11.4413 17.132 11.572 17.0808 11.6448 17.0647C11.6669 17.0599 11.6953 17.0557 11.7276 17.0557C11.8011 17.0557 11.8949 17.0775 11.9801 17.1628L28.8373 34.0199C28.9598 34.1425 28.9512 34.2827 28.9352 34.3554Z" fill="#AA8B4E"/>
<path d="M24.1514 11.3906C24.5936 11.3906 24.9521 11.0321 24.9521 10.5898C24.9521 9.91915 25.4978 9.37358 26.1685 9.37358C27.7221 9.37358 28.9862 8.10954 28.9862 6.55579C28.9862 6.11351 28.6277 5.755 28.1855 5.755C27.7433 5.755 27.3847 6.11351 27.3847 6.55579C27.3847 7.22644 26.839 7.77201 26.1685 7.77201C24.6147 7.77201 23.3506 9.03605 23.3506 10.5898C23.3506 11.0321 23.7092 11.3906 24.1514 11.3906Z" fill="#AA8B4E"/>
<path d="M31.2559 18.9493C32.8605 18.9493 34.1661 17.6438 34.1661 16.0391C34.1661 15.3176 34.753 14.7306 35.4746 14.7306C35.9168 14.7306 36.2754 14.3721 36.2754 13.9298C36.2754 13.4875 35.9168 13.129 35.4746 13.129C33.87 13.129 32.5645 14.4345 32.5645 16.0391C32.5645 16.7607 31.9774 17.3477 31.2559 17.3477C30.8137 17.3477 30.4551 17.7062 30.4551 18.1485C30.4551 18.5908 30.8137 18.9493 31.2559 18.9493Z" fill="#AA8B4E"/>
<path d="M35.875 20.4939C35.875 21.9069 37.0245 23.0564 38.4375 23.0564C39.8505 23.0564 41 21.9069 41 20.4939C41 19.0809 39.8505 17.9314 38.4375 17.9314C37.0245 17.9314 35.875 19.0809 35.875 20.4939ZM38.4375 19.533C38.9674 19.533 39.3984 19.964 39.3984 20.4939C39.3984 21.0238 38.9674 21.4548 38.4375 21.4548C37.9076 21.4548 37.4766 21.0238 37.4766 20.4939C37.4766 19.964 37.9076 19.533 38.4375 19.533Z" fill="#AA8B4E"/>
<path d="M25.2334 18.6016C26.6464 18.6016 27.7959 17.452 27.7959 16.0391C27.7959 14.6261 26.6464 13.4766 25.2334 13.4766C23.8204 13.4766 22.6709 14.6261 22.6709 16.0391C22.6709 17.452 23.8205 18.6016 25.2334 18.6016ZM25.2334 15.0781C25.7633 15.0781 26.1943 15.5092 26.1943 16.0391C26.1943 16.5689 25.7633 17 25.2334 17C24.7035 17 24.2725 16.5689 24.2725 16.0391C24.2725 15.5092 24.7035 15.0781 25.2334 15.0781Z" fill="#AA8B4E"/>
<path d="M10.25 10.125C11.663 10.125 12.8125 8.97548 12.8125 7.5625C12.8125 6.14952 11.663 5 10.25 5C8.83702 5 7.6875 6.14952 7.6875 7.5625C7.6875 8.97548 8.83702 10.125 10.25 10.125ZM10.25 6.60156C10.7799 6.60156 11.2109 7.03262 11.2109 7.5625C11.2109 8.09238 10.7799 8.52344 10.25 8.52344C9.72012 8.52344 9.28906 8.09238 9.28906 7.5625C9.28906 7.03262 9.72012 6.60156 10.25 6.60156Z" fill="#AA8B4E"/>
<path d="M36.2357 33.112C35.9231 32.7993 35.4162 32.7993 35.1032 33.1119C34.7905 33.4246 34.7905 33.9317 35.1032 34.2444L35.8582 34.9993C36.0145 35.1557 36.2195 35.2339 36.4244 35.2339C36.6293 35.2339 36.8342 35.1556 36.9906 34.9993C37.3033 34.6866 37.3033 34.1796 36.9906 33.8669L36.2357 33.112Z" fill="#AA8B4E"/>
<path d="M40.0106 36.8869C39.6978 36.5742 39.1909 36.5742 38.8781 36.8869C38.5654 37.1996 38.5654 37.7066 38.8781 38.0194L39.6331 38.7744C39.7894 38.9308 39.9944 39.0089 40.1993 39.0089C40.4042 39.0089 40.6091 38.9308 40.7655 38.7744C41.0782 38.4617 41.0782 37.9546 40.7655 37.6419L40.0106 36.8869Z" fill="#AA8B4E"/>
<path d="M39.6331 33.112L38.8781 33.867C38.5654 34.1797 38.5654 34.6867 38.8781 34.9994C39.0345 35.1558 39.2394 35.234 39.4443 35.234C39.6492 35.234 39.8542 35.1557 40.0105 34.9994L40.7655 34.2445C41.0782 33.9318 41.0782 33.4247 40.7655 33.112C40.4528 32.7992 39.9458 32.7993 39.6331 33.112Z" fill="#AA8B4E"/>
<path d="M35.8582 36.8869L35.1032 37.6419C34.7905 37.9546 34.7905 38.4616 35.1032 38.7744C35.2596 38.9308 35.4645 39.0089 35.6694 39.0089C35.8744 39.0089 36.0792 38.9308 36.2356 38.7744L36.9906 38.0194C37.3033 37.7067 37.3033 37.1997 36.9906 36.8869C36.6778 36.5742 36.1709 36.5742 35.8582 36.8869Z" fill="#AA8B4E"/>
<path d="M39.4444 7.35652C39.6493 7.35652 39.8543 7.27836 40.0106 7.12197L40.7656 6.36699C41.0783 6.05429 41.0783 5.54723 40.7656 5.23453C40.4528 4.92182 39.9458 4.92182 39.6331 5.23453L38.8781 5.98951C38.5654 6.30221 38.5654 6.80927 38.8781 7.12197C39.0346 7.27836 39.2394 7.35652 39.4444 7.35652Z" fill="#AA8B4E"/>
<path d="M35.6695 11.1314C35.8745 11.1314 36.0793 11.0532 36.2357 10.8968L36.9907 10.1419C37.3034 9.82915 37.3034 9.32209 36.9907 9.00931C36.6779 8.6966 36.171 8.6966 35.8582 9.00931L35.1032 9.76429C34.7905 10.077 34.7905 10.584 35.1032 10.8968C35.2597 11.0532 35.4646 11.1314 35.6695 11.1314Z" fill="#AA8B4E"/>
<path d="M40.0106 9.00943C39.6978 8.69673 39.1909 8.69673 38.8781 9.00943C38.5654 9.32214 38.5654 9.82919 38.8781 10.142L39.6331 10.897C39.7894 11.0533 39.9944 11.1315 40.1993 11.1315C40.4042 11.1315 40.6091 11.0533 40.7655 10.897C41.0782 10.5842 41.0782 10.0772 40.7655 9.76441L40.0106 9.00943Z" fill="#AA8B4E"/>
<path d="M35.8582 7.12197C36.0146 7.27836 36.2195 7.35652 36.4245 7.35652C36.6294 7.35652 36.8343 7.27836 36.9907 7.12197C37.3034 6.80927 37.3034 6.30221 36.9907 5.98951L36.2357 5.23453C35.9231 4.92182 35.4162 4.92182 35.1032 5.23453C34.7905 5.54723 34.7905 6.05429 35.1032 6.36699L35.8582 7.12197Z" fill="#AA8B4E"/>
<path d="M16.1133 29.0858C15.9027 29.0858 15.6961 29.1715 15.5471 29.3204C15.3982 29.4694 15.3125 29.676 15.3125 29.8866C15.3125 30.0972 15.3982 30.3038 15.5471 30.4527C15.6961 30.6017 15.9027 30.6874 16.1133 30.6874C16.3239 30.6874 16.5305 30.6017 16.6794 30.4527C16.8284 30.3038 16.9141 30.0972 16.9141 29.8866C16.9141 29.676 16.8284 29.4694 16.6794 29.3204C16.5305 29.1715 16.3239 29.0858 16.1133 29.0858Z" fill="#AA8B4E"/>
<path d="M27.7965 20.7445L27.216 21.3251C26.9033 21.6378 26.9033 22.1449 27.216 22.4576C27.3724 22.614 27.5773 22.6922 27.7822 22.6922C27.9871 22.6922 28.192 22.614 28.3484 22.4576L28.929 21.8771C29.2417 21.5644 29.2417 21.0573 28.929 20.7445C28.6162 20.4318 28.1093 20.4318 27.7965 20.7445Z" fill="#AA8B4E"/>
</g>
<defs>
<linearGradient id="paint0_linear" x1="59.0002" y1="25" x2="10.0002" y2="25" gradientUnits="userSpaceOnUse">
<stop stop-color="#AA8B4E"/>
<stop offset="1" stop-color="#AA8B4E" stop-opacity="0"/>
</linearGradient>
<clipPath id="clip0">
<rect width="41" height="41" fill="white" transform="translate(0 5)"/>
</clipPath>
</defs>
</svg>