<svg width="32" height="32" viewBox="0 0 32 32" fill="none" xmlns="http://www.w3.org/2000/svg">
<g opacity="0.7">
<path d="M25.2418 4.90664H24.7353V1.90032C24.7353 1.29894 24.4599 0.746381 23.9799 0.384256C23.4997 0.02213 22.8928 -0.0908077 22.3145 0.0743176L5.31752 4.93095C5.31752 4.93108 5.31759 4.9312 5.31759 4.93133C5.05259 5.00689 4.8584 5.25039 4.8584 5.53958V31.3669C4.8584 31.7165 5.14177 31.9999 5.4914 31.9999H25.2417C26.2888 31.9999 27.1408 31.148 27.1408 30.1009V6.80564C27.1409 5.75858 26.2889 4.90664 25.2418 4.90664ZM22.6623 1.29163C22.855 1.23644 23.0574 1.27419 23.2175 1.39495C23.3775 1.51563 23.4693 1.69988 23.4693 1.90026V4.90658H10.011L22.6623 1.29163ZM25.8748 30.1009C25.8748 30.45 25.5908 30.7339 25.2418 30.7339H6.12446V6.1727H25.2418C25.5908 6.1727 25.8748 6.4567 25.8748 6.80571V30.1009H25.8748Z" fill="#AA8B4E"/>
<path d="M18.1925 20.1621H13.5715C13.2219 20.1621 12.9385 20.4455 12.9385 20.7951C12.9385 21.1446 13.2219 21.4281 13.5715 21.4281H18.1925C18.5422 21.4281 18.8255 21.1446 18.8255 20.7951C18.8255 20.4456 18.5422 20.1621 18.1925 20.1621Z" fill="#AA8B4E"/>
<path d="M21.7841 24.2767H10.216C9.86638 24.2767 9.58301 24.5602 9.58301 24.9097C9.58301 25.2593 9.86638 25.5427 10.216 25.5427H21.7841C22.1337 25.5427 22.4171 25.2592 22.4171 24.9097C22.4172 24.5602 22.1337 24.2767 21.7841 24.2767Z" fill="#AA8B4E"/>
<path d="M20.6116 27.3153H13.8889C13.5392 27.3153 13.2559 27.5988 13.2559 27.9483C13.2559 28.2978 13.5392 28.5813 13.8889 28.5813H20.6115C20.9611 28.5813 21.2445 28.2978 21.2445 27.9483C21.2445 27.5988 20.9612 27.3153 20.6116 27.3153Z" fill="#AA8B4E"/>
<path d="M11.8365 27.5008C11.7187 27.383 11.5554 27.3153 11.3889 27.3153C11.2224 27.3153 11.0591 27.3829 10.9414 27.5008C10.8236 27.6185 10.7559 27.7818 10.7559 27.9483C10.7559 28.1148 10.8236 28.2781 10.9414 28.3958C11.0591 28.5136 11.2224 28.5814 11.3889 28.5814C11.5554 28.5814 11.7187 28.5136 11.8365 28.3958C11.9542 28.2781 12.022 28.1148 12.022 27.9483C12.022 27.7818 11.9542 27.6185 11.8365 27.5008Z" fill="#AA8B4E"/>
<path d="M18.1176 9.26054C17.3557 9.26054 16.6138 9.51798 16.008 9.98117C15.4021 9.51798 14.6603 9.26054 13.8983 9.26054C11.948 9.26054 10.3613 10.897 10.3613 12.9086C10.3613 14.2704 11.2821 15.7216 13.098 17.2216C14.3833 18.2832 15.6512 18.9799 15.7045 19.0089C15.7991 19.0606 15.9035 19.0864 16.008 19.0864C16.1124 19.0864 16.2168 19.0606 16.3113 19.0089C16.3647 18.9798 17.6326 18.2832 18.9178 17.2216C20.7338 15.7216 21.6545 14.2704 21.6545 12.9086C21.6546 10.897 20.0679 9.26054 18.1176 9.26054ZM16.008 17.7249C14.55 16.865 11.6274 14.7587 11.6274 12.9085C11.6274 11.5951 12.6462 10.5265 13.8983 10.5265C14.5241 10.5265 15.1071 10.7881 15.5401 11.2631C15.66 11.3947 15.8299 11.4697 16.008 11.4697C16.186 11.4697 16.3559 11.3947 16.4758 11.2631C16.9088 10.7882 17.4918 10.5265 18.1176 10.5265C19.3698 10.5265 20.3885 11.5951 20.3885 12.9085C20.3885 14.7589 17.4656 16.8652 16.008 17.7249Z" fill="#AA8B4E"/>
</g>
</svg>
