<svg width="33" height="33" viewBox="0 0 33 33" fill="none" xmlns="http://www.w3.org/2000/svg">
<g opacity="0.7" clip-path="url(#clip0_2_2496)">
<path d="M32.6556 19.1702C32.0283 16.5949 30.5025 14.3208 28.3596 12.7671C26.3197 11.2881 23.8359 10.5392 21.3368 10.6428C20.1848 8.17053 18.1791 6.21708 15.6552 5.12048C15.4074 5.01297 15.1195 5.12647 15.0118 5.3741C14.9042 5.62179 15.0177 5.90984 15.2654 6.01747C17.6662 7.06052 19.5534 8.95196 20.5796 11.3433C20.8043 11.8667 20.9863 12.412 21.1208 12.964C21.1565 13.1106 21.1894 13.2614 21.2215 13.425C21.2215 13.4251 21.2215 13.4253 21.2215 13.4253C21.7111 15.9242 21.2505 18.501 19.9244 20.6813C18.6708 22.7423 16.7467 24.2798 14.4754 25.0453C14.4344 24.9521 14.3952 24.858 14.3577 24.7631C14.3573 24.7621 14.3569 24.761 14.3565 24.7599C14.2845 24.5774 14.2195 24.3918 14.1609 24.2039C14.1562 24.1888 14.1515 24.1737 14.1469 24.1586C14.1198 24.0698 14.0939 23.9806 14.0698 23.8908C14.0692 23.8885 14.0687 23.8863 14.0681 23.884C18.3402 22.4502 20.9238 18.002 19.9905 13.5448C19.9905 13.5448 19.9905 13.5447 19.9905 13.5446C19.9675 13.4347 19.9468 13.3426 19.9254 13.255C19.7632 12.589 19.5259 11.9435 19.2202 11.3363C19.2196 11.335 19.2188 11.3338 19.2182 11.3325C19.2161 11.3285 19.214 11.3245 19.2118 11.3205C18.3142 9.54667 16.8243 8.10247 15.0144 7.25304C14.1468 6.84582 13.2207 6.58382 12.2768 6.47084L15.7504 3.24212C15.9265 3.07841 15.9575 2.81099 15.8235 2.61138L15.8211 2.60797C15.8211 2.6079 15.8211 2.60784 15.821 2.60777L14.2152 0.216369C14.1244 0.0811465 13.9722 0 13.8093 0H8.60471C8.44177 0 8.2896 0.0811465 8.19872 0.216369L6.59042 2.61151C6.45642 2.81112 6.48736 3.07854 6.66351 3.24225L10.1368 6.47071C9.7831 6.51292 9.43112 6.57589 9.08301 6.66065C4.27565 7.83183 1.31738 12.6958 2.48843 17.5031C2.97125 19.4851 4.12696 21.2587 5.74267 22.4974C7.22709 23.6355 9.04441 24.2857 10.9004 24.3493C10.9093 24.3876 10.9183 24.4257 10.9275 24.4635C10.9493 24.553 10.9723 24.6418 10.9962 24.7302C11.0017 24.7507 11.0076 24.7712 11.0133 24.7917C11.0327 24.8624 11.0528 24.9328 11.0735 25.0028C11.0793 25.0221 11.0851 25.0413 11.091 25.0606C11.1137 25.1356 11.1371 25.2101 11.1612 25.2843C11.1653 25.297 11.1694 25.3098 11.1736 25.3225C11.2026 25.4103 11.2323 25.4976 11.2632 25.5842C9.11247 25.5951 6.9937 24.9214 5.23239 23.6508C3.26664 22.2327 1.86755 20.1528 1.29302 17.7943C0.719514 15.4401 1.00304 12.9537 2.09153 10.7931C3.16796 8.65625 4.96311 6.95978 7.14639 6.01618C7.39428 5.909 7.50836 5.62121 7.40124 5.37333C7.29405 5.12551 7.00621 5.01123 6.75838 5.11848C4.36518 6.15289 2.39761 8.01191 1.21819 10.3531C0.025289 12.7212 -0.285504 15.4461 0.342914 18.0258C0.972556 20.6104 2.5059 22.8897 4.66031 24.4439C6.57244 25.8233 8.86948 26.5624 11.2045 26.5624C11.3565 26.5624 11.5086 26.5583 11.6609 26.552C13.4964 30.4823 17.4787 33.0001 21.7918 33C22.6653 33 23.5527 32.8967 24.4382 32.681C30.4287 31.2216 34.115 25.1608 32.6556 19.1702ZM20.76 21.1895C22.1074 18.9741 22.6388 16.3847 22.2812 13.8361C23.8724 13.9347 25.4231 14.5155 26.6934 15.4998C28.1358 16.6175 29.127 18.1475 29.5599 19.9245C30.6034 24.208 27.9675 28.5417 23.684 29.5852C21.6091 30.0908 19.4614 29.7579 17.6367 28.6481C16.5073 27.9612 15.5856 27.0273 14.9271 25.9234C17.356 25.0691 19.412 23.4059 20.76 21.1895ZM13.8718 22.9171C13.6219 21.1375 13.9762 19.3357 14.8972 17.7678C15.8609 16.1273 17.3493 14.9039 19.1258 14.2786C19.6497 18.0259 17.4401 21.6586 13.8718 22.9171ZM8.86529 0.977947H13.5486L14.4978 2.39153H7.91616L8.86529 0.977947ZM8.23674 3.36948H14.1771L11.2069 6.13033L8.23674 3.36948ZM10.7164 23.3606C9.13973 23.2636 7.60272 22.6912 6.33776 21.7213C4.87758 20.6019 3.87514 19.0632 3.43873 17.2716C2.39523 12.9882 5.0311 8.65438 9.31459 7.61082C11.1061 7.17434 12.9335 7.35687 14.5991 8.1385C16.0422 8.81571 17.2558 9.91734 18.0682 11.273C15.5591 12.1553 13.4603 13.8915 12.1153 16.2132C10.8525 18.3931 10.3695 20.894 10.7164 23.3606ZM24.2067 31.7308C23.3983 31.9278 22.5893 32.022 21.7919 32.0219C17.7316 32.0216 13.9922 29.5761 12.394 25.793C12.3765 25.7515 12.359 25.7102 12.3421 25.6685C12.3353 25.6517 12.3287 25.6347 12.3219 25.6179C12.3011 25.566 12.2805 25.5139 12.2606 25.4616C12.2576 25.4538 12.2548 25.4459 12.2518 25.438C12.229 25.3778 12.2065 25.3173 12.1849 25.2566C12.1842 25.2547 12.1835 25.2527 12.1828 25.2507C12.1594 25.1852 12.1367 25.1194 12.1146 25.0533C12.1145 25.0529 12.1144 25.0526 12.1142 25.0522C12.0919 24.9853 12.0702 24.9181 12.0493 24.8507C12.0478 24.846 12.0464 24.8411 12.045 24.8364C12.0256 24.7736 12.0066 24.7107 11.9884 24.6477C11.9825 24.6271 11.977 24.6063 11.9711 24.5855C11.9576 24.5378 11.9442 24.4901 11.9314 24.4422C11.9128 24.3725 11.8949 24.3024 11.8778 24.232C11.8604 24.1606 11.8441 24.0892 11.8283 24.0176C11.8221 23.9898 11.8161 23.9613 11.8102 23.9329C11.8033 23.9003 11.7966 23.8678 11.79 23.8352C11.7857 23.8138 11.7814 23.7927 11.7771 23.7709C11.7765 23.7679 11.7756 23.7652 11.775 23.7623C11.3026 21.3398 11.7176 18.8509 12.9616 16.7034C14.212 14.5448 16.1762 12.941 18.5228 12.1508C18.6875 12.5253 18.8238 12.9139 18.9302 13.3116C16.8787 13.9988 15.1591 15.3913 14.0542 17.2723C12.9168 19.2083 12.5498 21.4621 13.0082 23.6507C13.0082 23.6508 13.0083 23.651 13.0083 23.6511C13.0085 23.6522 13.0087 23.6531 13.0089 23.6542C13.017 23.693 13.0253 23.7316 13.0339 23.7703C13.0472 23.8306 13.0602 23.8868 13.0733 23.9408C13.0926 24.0201 13.1132 24.099 13.1345 24.1775C13.1398 24.1967 13.1454 24.2158 13.1508 24.235C13.1678 24.296 13.1853 24.3568 13.2034 24.4172C13.2089 24.4354 13.2147 24.4535 13.2203 24.4717C13.24 24.5354 13.2603 24.5989 13.2812 24.6621C13.2855 24.6748 13.2897 24.6874 13.294 24.7C13.3186 24.7729 13.3441 24.8454 13.3704 24.9174C13.3714 24.92 13.3723 24.9225 13.3733 24.9251C14.0696 26.8224 15.3765 28.4178 17.1288 29.4836C18.5523 30.3494 20.1507 30.7938 21.7754 30.7938C22.4879 30.7938 23.2057 30.7082 23.9157 30.5352C28.7231 29.3641 31.6814 24.5002 30.5103 19.6928C30.0244 17.6986 28.9118 15.9813 27.2926 14.7266C25.8029 13.5723 23.9692 12.9111 22.0983 12.8469C22.0894 12.8084 22.0804 12.7703 22.0711 12.7324C21.9791 12.3544 21.8666 11.9793 21.7351 11.6112C23.8938 11.5983 26.0211 12.2794 27.7856 13.5587C29.7409 14.9764 31.1329 17.0515 31.7055 19.4016C33.0371 24.8683 29.6733 30.3991 24.2067 31.7308Z" fill="#AA8B4E"/>
</g>
<defs>
<clipPath id="clip0_2_2496">
<rect width="33" height="33" fill="white"/>
</clipPath>
</defs>
</svg>
