<svg width="34" height="28" viewBox="0 0 34 28" fill="none" xmlns="http://www.w3.org/2000/svg">
<path d="M31.1667 0.400036H6.8C5.23597 0.401909 3.96854 1.66934 3.96667 3.23337V14H2.83333C1.2693 14.0019 0.00187347 15.2693 0 16.8334V24.7667C0.00187347 26.3307 1.2693 27.5982 2.83333 27.6H18.7C20.264 27.5982 21.5315 26.3307 21.5333 24.7667V21.9334H31.1667C32.7307 21.9315 33.9981 20.6641 34 19.1V3.23337C33.9981 1.66934 32.7307 0.401909 31.1667 0.400036ZM1.13333 17.9667L2.04 18.6467C2.1822 18.7541 2.26605 18.9218 2.26667 19.1V22.5C2.26614 22.6783 2.18227 22.846 2.04 22.9534L1.13333 23.6334V17.9667ZM1.15997 25.0296L2.72 23.86C3.14702 23.5381 3.39867 23.0348 3.4 22.5V19.1C3.39849 18.5653 3.14688 18.0621 2.72 17.74L1.15997 16.5704C1.28911 15.7455 1.9983 15.1364 2.83333 15.1334H16.4333C17.3722 15.1334 18.1333 15.8945 18.1333 16.8334V24.7667C18.1333 25.7056 17.3722 26.4667 16.4333 26.4667H2.83333C1.9983 26.4637 1.28911 25.8546 1.15997 25.0296ZM20.4 24.7667C20.4 25.7056 19.6389 26.4667 18.7 26.4667H18.6853C19.0603 25.9792 19.2646 25.3818 19.2667 24.7667V16.8334C19.2646 16.2183 19.0603 15.6209 18.6853 15.1334H18.7C19.6389 15.1334 20.4 15.8945 20.4 16.8334V24.7667ZM31.1667 20.8H21.5333V19.1H27.7667C28.0796 19.1 28.3333 18.8463 28.3333 18.5334C28.3333 18.2204 28.0796 17.9667 27.7667 17.9667H21.5333V16.8334C21.5315 15.2693 20.264 14.0019 18.7 14H5.1V3.23337C5.1 2.29449 5.86112 1.53337 6.8 1.53337H31.1667C32.1055 1.53337 32.8667 2.29449 32.8667 3.23337V17.9667H30.0333C29.7204 17.9667 29.4667 18.2204 29.4667 18.5334C29.4667 18.8463 29.7204 19.1 30.0333 19.1H32.8667C32.8667 20.0389 32.1055 20.8 31.1667 20.8Z" fill="#AA8B4E"/>
<path d="M19.2669 7.20014C18.9539 7.20014 18.7002 7.45384 18.7002 7.7668C18.7002 8.07977 18.9539 8.33347 19.2669 8.33347C23.6464 8.33816 27.1955 11.8873 27.2002 16.2668C27.2002 16.5798 27.4539 16.8335 27.7669 16.8335C28.0798 16.8335 28.3335 16.5798 28.3335 16.2668C28.3276 11.2619 24.2718 7.20607 19.2669 7.20014Z" fill="#AA8B4E"/>
<path d="M19.2669 9.4666C18.9539 9.4666 18.7002 9.7203 18.7002 10.0333C18.7002 10.3462 18.9539 10.5999 19.2669 10.5999C22.395 10.6034 24.9301 13.1384 24.9335 16.2666C24.9335 16.5796 25.1872 16.8333 25.5002 16.8333C25.8132 16.8333 26.0669 16.5796 26.0669 16.2666C26.0628 12.5127 23.0207 9.47066 19.2669 9.4666Z" fill="#AA8B4E"/>
<path d="M19.2669 11.7333C18.9539 11.7333 18.7002 11.987 18.7002 12.3C18.7002 12.6129 18.9539 12.8666 19.2669 12.8666C21.1439 12.8685 22.665 14.3896 22.6669 16.2666C22.6669 16.5796 22.9206 16.8333 23.2335 16.8333C23.5465 16.8333 23.8002 16.5796 23.8002 16.2666C23.7974 13.7641 21.7694 11.7361 19.2669 11.7333Z" fill="#AA8B4E"/>
<path d="M10.7667 16.2667C8.26304 16.2667 6.2334 18.2963 6.2334 20.8C6.2334 23.3037 8.26304 25.3334 10.7667 25.3334C13.2704 25.3334 15.3001 23.3037 15.3001 20.8C15.2973 18.2975 13.2693 16.2695 10.7667 16.2667ZM10.7667 24.2C8.88896 24.2 7.36673 22.6778 7.36673 20.8C7.36673 18.9223 8.88896 17.4 10.7667 17.4C12.6445 17.4 14.1667 18.9223 14.1667 20.8C14.1649 22.677 12.6437 24.1982 10.7667 24.2Z" fill="#AA8B4E"/>
<path d="M12.6143 20.0407L10.4043 18.6654C10.1359 18.4982 9.7979 18.4898 9.52145 18.6433C9.23936 18.8024 9.0653 19.1015 9.06641 19.4253V22.1748C9.06564 22.499 9.2404 22.7982 9.52315 22.9568C9.79966 23.1101 10.1375 23.1017 10.406 22.9347L12.616 21.5594C12.8765 21.3948 13.0345 21.1082 13.0345 20.8001C13.0345 20.4919 12.8765 20.2053 12.616 20.0407H12.6143ZM10.1997 21.7277V19.8724L11.6901 20.8001L10.1997 21.7277Z" fill="#AA8B4E"/>
</svg>
