<svg width="20" height="26" viewBox="0 0 20 26" fill="none" xmlns="http://www.w3.org/2000/svg">
<path d="M9.99974 26C9.43221 26 8.92399 25.7057 8.64033 25.2127C8.63733 25.2075 8.63444 25.2023 8.63154 25.197L2.18426 13.3962C0.645279 10.5793 0.689407 7.2358 2.30232 4.45237C3.88025 1.72928 6.68297 0.0656348 9.79961 0.00205664C9.93276 -0.000685547 10.0666 -0.000685547 10.1997 0.00205664C13.3164 0.0656348 16.1191 1.72928 17.6971 4.45237C19.31 7.2358 19.3541 10.5792 17.8151 13.3962L11.3678 25.197C11.3649 25.2023 11.3621 25.2075 11.3591 25.2127C11.0754 25.7056 10.5673 26 9.99974 26ZM9.99969 1.62503C9.94388 1.62503 9.88823 1.62558 9.83267 1.6267C7.28858 1.6786 4.99906 3.03949 3.70825 5.26711C2.3825 7.55506 2.34584 10.3027 3.61024 12.617L9.99969 24.3119L16.3891 12.617C17.6535 10.3027 17.6169 7.55506 16.291 5.26711C15.0002 3.03954 12.7107 1.6786 10.1666 1.6267C10.1112 1.62558 10.0555 1.62503 9.99969 1.62503Z" fill="#AA8B4E" stroke="black" stroke-width="0.3"/>
<path d="M10 11.7813C7.98393 11.7813 6.34375 10.1411 6.34375 8.125C6.34375 6.10893 7.98393 4.46875 10 4.46875C12.0161 4.46875 13.6562 6.10893 13.6562 8.125C13.6562 10.1411 12.0161 11.7813 10 11.7813ZM10 6.09375C8.87997 6.09375 7.96875 7.00497 7.96875 8.125C7.96875 9.24503 8.87997 10.1563 10 10.1563C11.12 10.1563 12.0312 9.24503 12.0312 8.125C12.0312 7.00497 11.12 6.09375 10 6.09375Z" fill="#AA8B4E" stroke="black" stroke-width="0.3"/>
</svg>
