<svg width="24" height="24" viewBox="0 0 24 24" fill="none" xmlns="http://www.w3.org/2000/svg">
<g clip-path="url(#clip0_2_2884)">
<path d="M10.8979 18.2962C10.715 18.4789 10.715 18.7757 10.8979 18.9588C11.0812 19.1417 11.3779 19.1417 11.5606 18.9588C11.7439 18.7757 11.7439 18.4789 11.5606 18.2962C11.3779 18.1129 11.0812 18.1129 10.8979 18.2962V18.2962Z" fill="#AA8B4E"/>
<path d="M22.919 17.4824L19.3601 14.4562C19.3436 14.4423 19.3262 14.4294 19.3081 14.4179C18.3745 13.8235 17.1757 13.9552 16.3929 14.7378L14.4525 16.678C14.3181 16.8126 14.1176 16.8523 13.9418 16.7798C11.7508 15.8734 9.95088 14.5089 8.59206 12.7246C7.55586 11.3639 7.18233 10.2827 7.13307 10.1303C7.12721 10.0977 7.11788 10.0653 7.10469 10.0336C7.032 9.85785 7.07173 9.65772 7.2065 9.52332L9.14668 7.58259C9.92946 6.79981 10.0609 5.60102 9.46657 4.66736C9.46181 4.65986 9.45686 4.65253 9.45174 4.64521L6.88167 1.07374C6.07308 -0.180719 4.31178 -0.370233 3.25472 0.686651L2.86617 1.0752L2.86525 1.07612L1.47804 2.46332C-0.176131 4.11768 -0.44676 6.60352 0.695634 9.65259C1.67415 12.2644 3.63301 15.1229 6.21132 17.7012C8.8506 20.3405 11.7863 22.3356 14.4776 23.319C17.1414 24.2922 19.975 24.4122 21.9805 22.4064L23.2888 21.0983C24.3411 20.0458 24.1575 18.2961 22.919 17.4824ZM18.7793 15.1926L22.335 18.2162C22.3513 18.2302 22.3687 18.243 22.3869 18.2545C23.1464 18.7381 23.2614 19.8001 22.6258 20.4355L22.5288 20.5327L16.4641 15.9921L17.0557 15.4006C17.5181 14.9381 18.2227 14.8544 18.7793 15.1926ZM6.09853 1.58881C6.10329 1.59632 6.10823 1.60383 6.11336 1.61097L8.68233 5.18116C9.03133 5.73981 8.95058 6.45301 8.48384 6.91974L7.91054 7.49323L3.80751 1.45954L3.91756 1.34949C4.55568 0.711371 5.61678 0.832037 6.09853 1.58881ZM14.7991 22.4385C12.2335 21.501 9.41896 19.5831 6.87416 17.0383C4.38832 14.5527 2.50581 11.8129 1.57326 9.32373C0.873247 7.45533 0.403581 4.86347 2.14089 3.12635L3.13277 2.13428L7.2358 8.16797L6.54384 8.8603C6.15016 9.25324 6.02638 9.83478 6.22286 10.3526C6.3708 10.9598 7.05159 12.2201 7.73842 13.1488C8.74916 14.5155 10.5837 16.405 13.5835 17.6461C14.1107 17.8641 14.7118 17.7444 15.1154 17.341L15.7945 16.6617L21.8591 21.2023L21.3177 21.7436C19.4553 23.6061 16.745 23.1495 14.7991 22.4385Z" fill="#AA8B4E"/>
<path d="M10.018 17.1775C9.52287 16.7434 8.66649 15.9967 8.2155 15.5327C7.10954 14.3962 5.94921 13.0185 5.25926 12.0231C5.11186 11.8104 4.81981 11.7573 4.60704 11.9049C4.39427 12.0523 4.34136 12.3443 4.48876 12.5571C5.35887 13.8124 6.63732 15.2549 7.5435 16.1862C8.01958 16.6762 8.88329 17.4295 9.39983 17.8823C9.5941 18.0526 9.89018 18.0339 10.0614 17.8389C10.232 17.6445 10.2126 17.3482 10.018 17.1775Z" fill="#AA8B4E"/>
</g>
<defs>
<clipPath id="clip0_2_2884">
<rect width="24" height="24" fill="white"/>
</clipPath>
</defs>
</svg>
