<svg width="36" height="36" viewBox="0 0 36 36" fill="none" xmlns="http://www.w3.org/2000/svg">
<g clip-path="url(#clip0_2_2386)">
<path d="M30.9678 21.219L18.7488 33.4395V0.750023C18.7488 0.335813 18.413 0 17.9988 0C17.5846 0 17.2488 0.335813 17.2488 0.750023V33.4395L5.02983 21.219C4.73191 20.9312 4.25709 20.9395 3.9693 21.2374C3.68862 21.5281 3.68862 21.9888 3.9693 22.2794L17.4693 35.7794C17.7618 36.0727 18.2367 36.0733 18.53 35.7808C18.5304 35.7803 18.5309 35.7799 18.5313 35.7794L32.0313 22.2794C32.3191 21.9815 32.3108 21.5067 32.0129 21.2189C31.7222 20.9381 31.2614 20.9381 30.9708 21.2189L30.9678 21.219Z" fill="#AA8B4E"/>
<path d="M17.9994 36.0001C17.8003 36.0005 17.6093 35.9217 17.4684 35.7811L3.96835 22.2811C3.68057 21.9832 3.68886 21.5083 3.98678 21.2206C4.27745 20.9399 4.73821 20.9399 5.02881 21.2206L17.9993 34.1896L30.9683 21.2206C31.2662 20.9328 31.741 20.9411 32.0288 21.239C32.3096 21.5296 32.3096 21.9904 32.0288 22.2811L18.5288 35.7811C18.3883 35.9213 18.1979 36 17.9994 36.0001Z" fill="#AA8B4E"/>
<path d="M17.9991 36C17.5848 36 17.249 35.6642 17.249 35.25V0.750023C17.2491 0.335813 17.5848 0 17.9991 0C18.4133 0 18.7491 0.335813 18.7491 0.750023V35.25C18.7491 35.6642 18.4133 36 17.9991 36Z" fill="#AA8B4E"/>
</g>
<defs>
<clipPath id="clip0_2_2386">
<rect width="36" height="36" fill="white"/>
</clipPath>
</defs>
</svg>
