<svg width="29" height="30" viewBox="0 0 29 30" fill="none" xmlns="http://www.w3.org/2000/svg">
<g clip-path="url(#clip0_2_2441)">
<path d="M14.2856 21.9922C13.9774 21.9922 13.7275 22.2545 13.7275 22.5781C13.7275 22.5789 13.7275 22.5797 13.7275 22.5805C13.7275 22.5812 13.7275 22.582 13.7275 22.5828V22.5875C13.7275 22.9111 13.9774 23.1734 14.2856 23.1734C14.5938 23.1734 14.8436 22.9111 14.8436 22.5875C14.8436 22.5867 14.8436 22.586 14.8436 22.5852C14.8436 22.5843 14.8436 22.5836 14.8436 22.5828C14.8436 22.582 14.8436 22.5812 14.8436 22.5805C14.8436 22.5797 14.8436 22.5789 14.8436 22.5781C14.8436 22.2545 14.5938 21.9922 14.2856 21.9922Z" fill="#AA8B4E"/>
<path d="M23.1027 0H5.46875C2.45324 0 0 2.5759 0 5.74219V24.2578C0 27.4241 2.45324 30 5.46875 30H14.2857C14.5939 30 14.8438 29.7377 14.8438 29.4141V24.873C14.8438 24.5494 14.5939 24.2871 14.2857 24.2871C13.9775 24.2871 13.7277 24.5494 13.7277 24.873V28.8281H5.46875C3.06869 28.8281 1.11607 26.7779 1.11607 24.2578V5.74219C1.11607 3.22213 3.06869 1.17188 5.46875 1.17188H23.1027C25.5027 1.17188 27.4554 3.22213 27.4554 5.74219V24.2578C27.4554 26.7779 25.5027 28.8281 23.1027 28.8281H19.5312V18.4864H22.7668C23.0534 18.4864 23.2934 18.2585 23.322 17.9591L23.7233 13.7723C23.7391 13.6075 23.6878 13.4434 23.582 13.3206C23.4762 13.1978 23.3258 13.1277 23.1681 13.1277H19.5312V10.9292C19.5312 10.5313 19.652 10.3833 19.9766 10.3833H23.143C23.4512 10.3833 23.7011 10.121 23.7011 9.7974V5.71576C23.7011 5.39215 23.4512 5.12982 23.143 5.12982H18.9847C16.6285 5.12982 15.379 6.2165 14.7456 7.12811C13.8599 8.40299 13.7276 9.90861 13.7276 10.6926V13.1539H10.9932C10.685 13.1539 10.4352 13.4163 10.4352 13.7399V17.9004C10.4352 18.224 10.685 18.4863 10.9932 18.4863H13.7276V20.1562C13.7276 20.4799 13.9775 20.7422 14.2857 20.7422C14.5939 20.7422 14.8437 20.4799 14.8437 20.1562V17.9004C14.8437 17.5768 14.5939 17.3145 14.2857 17.3145H11.5513V14.3258H14.2857C14.5939 14.3258 14.8437 14.0634 14.8437 13.7398V10.6925C14.8437 9.3723 15.2472 6.30164 18.9847 6.30164H22.585V9.21141H19.9766C19.2563 9.21141 18.4152 9.66129 18.4152 10.9291V13.7136C18.4152 14.0372 18.665 14.2995 18.9732 14.2995H22.5511L22.2621 17.3145H18.9732C18.665 17.3145 18.4152 17.5768 18.4152 17.9004V29.4141C18.4152 29.7377 18.665 30 18.9732 30H23.1027C26.1182 30 28.5714 27.4241 28.5714 24.2578V5.74219C28.5714 2.5759 26.1182 0 23.1027 0Z" fill="#AA8B4E"/>
<path d="M3.23675 6.00586C2.92854 6.00586 2.67871 6.26818 2.67871 6.5918V11.4844C2.67871 11.808 2.92854 12.0703 3.23675 12.0703C3.54495 12.0703 3.79478 11.808 3.79478 11.4844V6.5918C3.79478 6.26818 3.54495 6.00586 3.23675 6.00586Z" fill="#AA8B4E"/>
<path d="M3.23675 13.4404C2.92854 13.4404 2.67871 13.7028 2.67871 14.0264V14.0333C2.67871 14.3569 2.92854 14.6192 3.23675 14.6192C3.54495 14.6192 3.79478 14.3569 3.79478 14.0333V14.0264C3.79478 13.7028 3.54495 13.4404 3.23675 13.4404Z" fill="#AA8B4E"/>
</g>
<defs>
<clipPath id="clip0_2_2441">
<rect width="28.5714" height="30" fill="white"/>
</clipPath>
</defs>
</svg>
