<svg width="133" height="78" viewBox="0 0 133 78" fill="none" xmlns="http://www.w3.org/2000/svg">
<path opacity="0.9" d="M47.803 75.5536C51.8502 76.8842 56.0998 77.6161 60.4168 77.6161C65.6782 77.6161 70.7372 76.6181 75.5264 74.6222C78.0222 73.5577 80.383 72.2937 82.609 70.7635C82.8114 70.83 83.0137 70.8965 83.2161 70.8965C87.1959 71.961 90.9732 72.4933 94.5483 72.4933C97.1115 72.4933 99.5398 72.2271 101.901 71.6949C104.127 71.1627 106.218 70.4308 108.174 69.4329C112.693 67.57 118.629 62.5803 123.688 56.393C129.017 49.8065 132.12 43.5527 132.12 39.2283C132.12 35.1699 129.219 29.2488 124.093 22.8619C119.169 16.7411 113.233 11.6183 108.241 9.1567C106.285 8.15875 104.194 7.36039 101.901 6.82815C96.3021 5.56408 90.0289 5.8302 83.2161 7.55998C83.0137 7.62651 82.7439 7.69304 82.5416 7.75957C80.3156 6.22938 78.0222 4.96531 75.5264 3.90083C70.7372 1.90493 65.6782 0.906979 60.4168 0.906979C56.2347 0.906979 52.0526 1.57228 48.1403 2.83635L47.7355 3.10247C47.6006 3.169 47.5332 3.30206 47.4657 3.43512L47.3308 3.96736C47.2634 7.36039 48.1403 10.7534 49.9615 14.1464C51.1757 16.475 52.862 18.737 54.8856 20.866C53.6715 21.7309 52.3898 22.5958 51.1757 23.3941C46.1167 26.9202 40.9228 30.5128 34.3123 33.8393C34.1099 33.9059 33.9076 34.0389 33.7727 34.1054C24.9363 27.4525 17.7862 20.2007 11.9852 14.346C10.7036 13.0154 9.48942 11.8179 8.27525 10.6204C7.93799 10.2877 7.46581 10.0881 6.92618 10.0881C6.45401 10.0881 5.98183 10.2877 5.64457 10.6869C4.49786 11.951 1.73227 15.344 0.585555 19.8015C-0.0889749 22.3962 -0.0215312 24.9243 0.585555 27.3859C1.395 30.3132 3.08133 33.174 5.71202 35.7687C5.71202 35.7687 7.87054 37.8311 12.1201 39.0952C7.87054 40.3593 5.71202 42.4217 5.71202 42.4217C3.08133 45.0164 1.395 47.8772 0.585554 50.8045C-0.0889763 53.2661 -0.0889764 55.8608 0.585554 58.3889C1.73227 62.9129 4.49786 66.306 5.64457 67.5035C5.98183 67.8362 6.45401 68.1023 6.92618 68.1023C7.39835 68.1023 7.87053 67.9027 8.27525 67.57C9.42196 66.439 10.6361 65.175 11.9852 63.8444C17.7187 57.9897 24.8688 50.7379 33.7727 44.0849C33.975 44.1515 34.1774 44.2845 34.3123 44.3511C40.9902 47.6776 46.1841 51.2702 51.1757 54.7963C52.3898 55.6612 53.604 56.4595 54.8182 57.3244C52.862 59.4534 51.2431 61.6489 49.9615 63.9774C48.2077 67.3039 47.3308 70.7635 47.3308 74.1565L47.3308 74.6887C47.3308 74.8218 47.3983 74.8883 47.4657 74.9549L47.803 75.5536ZM117.213 36.434C117.213 36.5005 117.145 36.5671 117.145 36.5671C115.257 33.5067 112.626 30.8455 109.455 28.7165C109.725 28.5169 109.995 28.2508 110.265 28.0512C112.626 25.9223 114.649 23.3941 116.336 20.5333C118.697 25.39 119.034 31.1116 117.213 36.434ZM117.213 42.089C119.101 47.4114 118.697 53.0665 116.403 57.9232C114.717 54.9959 112.693 52.4012 110.265 50.3388C110.063 50.1392 109.793 49.9396 109.59 49.74C112.693 47.611 115.257 45.0164 117.145 41.956C117.145 41.956 117.145 42.0225 117.213 42.089ZM109.455 46.9457C108.848 47.4115 108.241 47.8106 107.634 48.2098C105.543 46.8127 103.317 45.6817 100.889 44.8168C100.282 44.6172 99.6073 44.4176 98.9328 44.218C99.1351 42.6213 99.27 40.958 99.27 39.2948C99.27 37.565 99.1351 35.8352 98.9328 34.172C99.6073 33.9724 100.282 33.7728 100.889 33.5732C103.317 32.7083 105.543 31.6438 107.567 30.2467C108.241 30.6459 108.916 31.1116 109.523 31.5773C112.289 33.7063 114.515 36.3009 116.066 39.2283C114.447 42.1556 112.221 44.8168 109.455 46.9457ZM82.1368 68.1688C71.749 65.2415 64.7338 61.3827 58.3257 57.1914C58.3932 57.1248 58.4607 57.1248 58.4607 57.0583C60.2819 55.395 62.373 53.7983 64.6664 52.4677C72.3561 54.5967 80.3156 55.6612 88.4775 55.6612C89.9614 55.6612 91.4454 55.5946 92.9294 55.5281C91.1756 58.9211 88.9496 61.9815 86.1166 64.7758C84.9024 65.9733 83.5534 67.1709 82.1368 68.1688ZM93.8063 53.133C84.7675 53.6653 75.9986 52.8669 67.5669 50.738C71.3443 48.7421 75.3915 47.2119 79.5061 46.2804C85.3746 44.9498 91.1082 44.8168 96.2346 45.8813C95.7624 48.3429 95.0205 50.7379 94.0761 53.0665C94.0086 53.133 93.9412 53.133 93.8063 53.133ZM86.184 13.8138C88.9496 16.5415 91.2431 19.6019 92.9294 22.9949C83.2835 22.5292 73.8401 23.5937 64.8687 26.0553C62.5753 24.6582 60.4168 23.0615 58.5281 21.3317L58.4607 21.2652C64.8013 17.0738 71.8165 13.2816 82.0694 10.3542C83.5534 11.3522 84.9024 12.5497 86.184 13.8138ZM93.8063 25.3235C93.8737 25.3235 93.9412 25.3235 94.0761 25.39C95.0205 27.652 95.7624 29.9806 96.2346 32.4422C91.1082 33.5067 85.4421 33.3736 79.5736 32.043C75.5264 31.1116 71.4792 29.6479 67.8367 27.7186C76.1335 25.5896 84.9024 24.7913 93.8063 25.3235ZM96.7742 25.9223C99.8771 26.6541 102.71 27.652 105.206 28.9161C103.587 29.9141 101.901 30.7124 100.012 31.3777C99.4724 31.5773 99.0002 31.7104 98.4606 31.8434C98.1233 29.8475 97.5162 27.8516 96.7742 25.9223ZM67.0947 29.9141C70.9396 31.8434 74.9193 33.3071 79.034 34.2385C82.4741 35.0369 85.9142 35.436 89.152 35.436C91.7152 35.436 94.211 35.1699 96.5719 34.7042C96.7742 36.2344 96.8417 37.7646 96.8417 39.2948C96.8417 40.7585 96.7742 42.2221 96.5719 43.6858C91.1756 42.5548 85.1722 42.7544 78.9665 44.1515C74.8519 45.0829 70.8047 46.5466 67.0273 48.4759C66.0829 48.9416 65.206 49.4739 64.3291 49.9396C62.8451 49.4739 61.2937 49.0082 59.8097 48.4759C53.3342 46.2139 47.061 43.1535 40.9227 39.2283C47.1285 35.303 53.3342 32.2426 59.8097 29.9806C61.3612 29.4484 62.9126 28.9161 64.464 28.5169C65.3409 28.9826 66.2178 29.4483 67.0947 29.9141ZM98.528 46.48C99.0677 46.6131 99.5398 46.8127 100.079 46.9457C101.968 47.611 103.789 48.4759 105.408 49.4739C102.845 50.8045 100.012 51.869 96.8417 52.5343C97.5837 50.6049 98.1233 48.5425 98.528 46.48ZM101.361 9.09017C105.948 10.1547 109.928 12.3501 112.828 15.477C113.638 16.3419 114.312 17.2068 114.919 18.1382C112.963 21.9305 110.467 25.0574 107.364 27.4525C103.992 25.5231 100.079 24.126 95.695 23.3276C93.7388 19.2027 91.1081 15.477 87.8704 12.2171C86.926 11.2857 85.9817 10.4208 84.9699 9.62241C90.9058 8.15875 96.437 7.95916 101.361 9.09017ZM49.6242 4.83225C53.0644 3.76777 56.7069 3.23553 60.3494 3.23553C67.2296 3.23553 73.8401 5.09837 79.5736 8.62446C69.7254 11.6183 62.98 15.4105 56.7069 19.5354C52.3224 15.0113 49.8266 9.822 49.6242 4.83225ZM52.4573 25.3235C53.8064 24.3921 55.1554 23.4606 56.5045 22.5292C56.6394 22.6623 56.8418 22.7953 56.9767 22.9284C58.5281 24.3255 60.147 25.5896 61.9682 26.7872C61.0239 27.0533 60.0796 27.3859 59.1352 27.7186C52.1875 30.1802 45.5096 33.5067 38.8991 37.7646C37.8873 37.0993 36.8081 36.3675 35.7963 35.6356C42.3393 32.3757 47.4657 28.7831 52.4573 25.3235ZM2.81152 20.4668C3.68841 16.8742 5.77948 14.0799 6.99364 12.7493C8.00545 13.8138 9.08469 14.8783 10.2314 16.0758C15.83 21.7309 22.7103 28.7831 31.2769 35.303C28.3089 36.5005 25.4084 37.2989 22.7103 37.6981C19.8098 38.0972 16.9768 38.0307 14.4135 37.4985C9.75923 36.5005 7.46581 34.3716 7.39835 34.305C3.08133 30.0471 1.52991 25.39 2.81152 20.4668ZM10.2314 62.4472C9.08469 63.5782 8.00544 64.7093 6.99364 65.7737C5.84693 64.4431 3.75587 61.6489 2.81152 58.0562C1.59735 53.133 3.08133 48.4759 7.3309 44.218C7.39836 44.1515 9.69178 42.0225 14.3461 41.0246C16.9093 40.4923 19.7424 40.4258 22.6429 40.825C25.4084 41.2242 28.2415 42.0225 31.2094 43.2201C22.7103 49.8065 15.83 56.7922 10.2314 62.4472ZM33.368 41.6233C31.0071 40.5589 28.7137 39.7605 26.4877 39.2283C28.7137 38.696 31.0071 37.8977 33.368 36.8332C34.5147 37.6315 35.6614 38.4299 36.7406 39.2283C35.5939 40.0266 34.5147 40.825 33.368 41.6233ZM35.7288 42.7543C36.7406 42.0225 37.8199 41.2907 38.8317 40.6254C45.4421 44.8833 52.12 48.2098 59.0677 50.6714C59.9446 51.0041 60.8215 51.2702 61.7659 51.5363C60.0121 52.7338 58.3932 53.9979 56.9092 55.3285C56.7069 55.5281 56.5045 55.6612 56.3696 55.8608C55.0205 54.9959 53.7389 54.0644 52.4573 53.133C47.4657 49.6735 42.3393 46.0808 35.7288 42.7543ZM60.3494 75.2875C56.7069 75.2875 53.0644 74.7553 49.6242 73.6908C49.7592 68.6345 52.2549 63.5117 56.7069 58.8546C62.98 63.046 69.7928 66.8382 79.7085 69.8986C73.9075 73.4247 67.2971 75.2875 60.3494 75.2875ZM101.361 69.3664C96.5044 70.4974 90.9732 70.3643 84.9699 68.9006C85.9817 68.1023 86.926 67.2374 87.8029 66.3725C91.1082 63.1125 93.7388 59.3203 95.695 55.1955C100.079 54.3306 104.059 52.9334 107.432 51.0041C110.535 53.3992 113.031 56.5261 114.919 60.3183C114.312 61.2497 113.57 62.1811 112.761 63.046C109.928 66.1064 105.948 68.3019 101.361 69.3664ZM121.867 54.8628C120.855 56.1269 119.776 57.3244 118.697 58.4554C121.125 53.133 121.462 47.0123 119.439 41.2907C119.169 40.5589 118.899 39.8936 118.629 39.2283C118.966 38.563 119.236 37.8311 119.439 37.1658C121.395 31.5773 121.125 25.5896 118.832 20.3337C119.978 21.5978 121.125 22.8619 122.272 24.259C126.926 30.0471 129.826 35.7687 129.826 39.1617C129.759 42.9539 126.791 48.8086 121.867 54.8628Z" fill="#AA8B4E"/>
</svg>
