<svg width="320" height="318" viewBox="0 0 320 318" fill="none" xmlns="http://www.w3.org/2000/svg">
<path d="M85.4402 63.5175C84.0773 61.6846 83.5332 59.9112 83.8078 58.1974C84.0811 56.4924 85.152 54.9453 87.0203 53.5561L90.0962 51.2689L98.3525 62.3727L94.95 64.9027C93.2234 66.1865 91.5259 66.7057 89.8574 66.4603C88.1889 66.2149 86.7165 65.2339 85.4402 63.5175ZM86.7734 62.4554C87.8501 63.9035 89.026 64.7236 90.301 64.9156C91.571 65.1114 92.9224 64.6766 94.3553 63.6111L96.2313 62.2163L89.6353 53.3454L88.0631 54.5144C86.5239 55.6589 85.6474 56.8964 85.4337 58.2268C85.2237 59.5623 85.6703 60.9719 86.7734 62.4554Z" fill="#1F2338"/>
<path d="M68.2445 69.7126L78.415 79.0945L77.3241 80.2771L67.1536 70.8952L68.2445 69.7126Z" fill="#1F2338"/>
<path d="M63.8395 97.9149L62.8976 99.3684L53.9977 87.6582L54.8623 86.3238L69.1714 89.6863L68.245 91.116L59.0019 88.916C57.9398 88.6638 56.9427 88.3636 56.0106 88.0152C56.7449 88.7617 57.4388 89.5647 58.0923 90.4242L63.8395 97.9149Z" fill="#1F2338"/>
<path d="M41.5036 112.136L44.3683 104.974L57.2156 110.113L54.3509 117.274L53.024 116.744L55.2911 111.076L51.1522 109.42L49.0222 114.745L47.7041 114.218L49.8341 108.893L45.1065 107.002L42.8393 112.67L41.5036 112.136Z" fill="#1F2338"/>
<path d="M41.9165 130.92L36.2794 129.764L36.6026 128.188L50.1575 130.968L49.3951 134.686C49.0541 136.348 48.4842 137.51 47.6853 138.171C46.8851 138.837 45.8453 139.04 44.5659 138.777C42.7734 138.41 41.7483 137.253 41.4905 135.306L34.6443 137.738L35.0265 135.874L41.3366 133.748L41.9165 130.92ZM43.2701 131.198L42.8271 133.358C42.5989 134.471 42.651 135.332 42.9834 135.941C43.322 136.551 43.9332 136.947 44.8171 137.128C45.7133 137.312 46.4137 137.179 46.9183 136.728C47.4216 136.284 47.7931 135.478 48.0326 134.31L48.4528 132.261L43.2701 131.198Z" fill="#1F2338"/>
<path d="M37.0101 156.245C35.793 156.206 34.858 155.734 34.2053 154.829C33.5526 153.924 33.2506 152.715 33.2992 151.202C33.3519 149.562 33.6037 148.308 34.0546 147.438L35.606 147.488C35.3481 148.048 35.139 148.66 34.9788 149.324C34.8186 149.988 34.7279 150.648 34.7069 151.304C34.6724 152.376 34.8483 153.189 35.2344 153.745C35.6269 154.3 36.1858 154.59 36.911 154.613C37.3903 154.628 37.7844 154.543 38.0934 154.357C38.4085 154.178 38.7026 153.866 38.9758 153.42C39.2487 152.981 39.564 152.306 39.9215 151.396C40.4232 150.124 40.9983 149.221 41.6467 148.686C42.295 148.158 43.1268 147.91 44.1421 147.942C45.2079 147.977 46.0432 148.404 46.6481 149.225C47.253 150.047 47.5343 151.116 47.4919 152.434C47.4477 153.809 47.1548 155.065 46.6132 156.203L45.2294 155.657C45.7453 154.531 46.0206 153.429 46.0553 152.35C46.0826 151.499 45.9211 150.828 45.5708 150.337C45.2204 149.846 44.7204 149.59 44.0709 149.569C43.5916 149.553 43.1946 149.629 42.8799 149.796C42.5716 149.962 42.2814 150.25 42.0095 150.658C41.7436 151.072 41.4423 151.706 41.1056 152.56C40.5418 153.994 39.9549 154.973 39.3446 155.496C38.7342 156.026 37.956 156.275 37.0101 156.245Z" fill="#1F2338"/>
<path d="M35.383 179.312L39.4671 176.934L38.6151 171.453L34.0048 170.446L33.7547 168.837L48.3238 172.109L48.5317 173.446L35.6388 180.958L35.383 179.312ZM40.8209 176.215L44.8102 173.967C45.3144 173.678 45.9392 173.364 46.6846 173.024C46.0648 172.98 45.3765 172.886 44.6198 172.742L40.1332 171.792L40.8209 176.215ZM49.6917 173.946C49.65 173.678 49.6654 173.407 49.7379 173.134C49.8166 172.86 49.9052 172.588 50.0036 172.317C50.1092 172.051 50.2002 171.795 50.2765 171.546C50.3601 171.304 50.3854 171.076 50.3525 170.864C50.304 170.552 50.1737 170.33 49.9614 170.197C49.7501 170.07 49.4476 169.993 49.0537 169.965L48.9112 169.048C49.6782 169.012 50.3013 169.139 50.7805 169.428C51.2669 169.723 51.5542 170.154 51.6424 170.721C51.687 171.008 51.6709 171.295 51.5941 171.581C51.5236 171.867 51.4355 172.142 51.3299 172.408C51.2305 172.672 51.1391 172.926 51.0555 173.169C50.9782 173.411 50.955 173.631 50.986 173.831C51.0335 174.136 51.1593 174.35 51.3633 174.471C51.5737 174.592 51.8793 174.669 52.2804 174.702L52.4244 175.628C51.6574 175.664 51.0311 175.538 50.5457 175.25C50.0675 174.966 49.7828 174.532 49.6917 173.946Z" fill="#1F2338"/>
<path d="M49.761 203.468C47.6858 204.242 45.8579 204.324 44.2773 203.714C42.6989 203.111 41.5616 201.875 40.8652 200.006C40.1535 198.097 40.186 196.405 40.9629 194.93C41.7479 193.459 43.2046 192.327 45.3331 191.533C47.4437 190.747 49.2724 190.658 50.819 191.266C52.3716 191.873 53.5048 193.134 54.2188 195.049C54.9129 196.912 54.8638 198.587 54.0714 200.074C53.2789 201.561 51.8422 202.692 49.761 203.468ZM45.9103 193.136C44.1543 193.791 42.96 194.66 42.3271 195.745C41.7024 196.833 41.6556 198.089 42.1866 199.514C42.7221 200.951 43.5787 201.867 44.7566 202.263C45.9344 202.659 47.4042 202.528 49.1661 201.872C50.9102 201.222 52.095 200.363 52.7204 199.295C53.3539 198.23 53.4041 196.983 52.8708 195.552C52.3353 194.115 51.4724 193.191 50.2821 192.78C49.0999 192.372 47.6426 192.491 45.9103 193.136Z" fill="#1F2338"/>
<path d="M62.7989 230.467L63.9167 229.561L66.8418 233.172L65.7239 234.078L62.7989 230.467Z" fill="#1F2338"/>
<path d="M92.8611 263.632L86.3838 259.444L93.897 247.825L100.374 252.013L99.5983 253.213L94.4721 249.898L92.0516 253.642L96.8679 256.756L96.097 257.948L91.2808 254.834L88.516 259.11L93.6422 262.424L92.8611 263.632Z" fill="#1F2338"/>
<path d="M120.078 261.655L121.687 262.297L111.927 273.301L110.451 272.712L110.971 258.022L112.553 258.654L112.19 268.148C112.148 269.239 112.048 270.275 111.887 271.257C112.476 270.392 113.129 269.555 113.846 268.747L120.078 261.655Z" fill="#1F2338"/>
<path d="M138.365 280.804L130.784 279.385L133.33 265.784L140.912 267.204L140.649 268.609L134.649 267.485L133.828 271.867L139.466 272.922L139.205 274.318L133.567 273.262L132.63 278.267L138.63 279.39L138.365 280.804Z" fill="#1F2338"/>
<path d="M165.816 282.425L163.981 282.457L156.217 270.978L156.141 270.979C156.266 272.34 156.338 273.588 156.358 274.724L156.495 282.587L155.01 282.613L154.768 268.779L156.585 268.747L164.329 280.179L164.405 280.178C164.389 280.008 164.351 279.462 164.291 278.542C164.231 277.615 164.203 276.953 164.209 276.556L164.07 268.616L165.575 268.59L165.816 282.425Z" fill="#1F2338"/>
<path d="M185.632 279.72L184.056 280.046L181.545 267.895L177.254 268.782L176.965 267.382L187.123 265.283L187.412 266.682L183.121 267.569L185.632 279.72Z" fill="#1F2338"/>
<path d="M209.62 264.516C210.462 266.564 210.605 268.388 210.049 269.988C209.498 271.586 208.301 272.764 206.457 273.522C204.572 274.297 202.88 274.321 201.38 273.594C199.884 272.858 198.704 271.44 197.84 269.34C196.983 267.256 196.833 265.432 197.39 263.866C197.944 262.294 199.167 261.119 201.058 260.341C202.896 259.586 204.571 259.579 206.084 260.321C207.597 261.064 208.776 262.462 209.62 264.516ZM199.423 268.709C200.135 270.442 201.044 271.607 202.149 272.203C203.257 272.791 204.514 272.796 205.921 272.218C207.339 271.635 208.226 270.748 208.583 269.558C208.939 268.367 208.76 266.903 208.045 265.164C207.337 263.442 206.439 262.287 205.35 261.697C204.265 261.1 203.017 261.091 201.605 261.672C200.187 262.255 199.292 263.148 198.92 264.352C198.552 265.547 198.72 266.999 199.423 268.709Z" fill="#1F2338"/>
<path d="M229.529 256.632C230.201 257.648 230.356 258.684 229.996 259.739C229.635 260.795 228.823 261.741 227.561 262.577C226.192 263.482 225.023 264.002 224.054 264.137L223.197 262.842C223.803 262.729 224.423 262.546 225.057 262.292C225.692 262.039 226.282 261.731 226.83 261.369C227.724 260.777 228.286 260.163 228.516 259.527C228.742 258.885 228.655 258.262 228.255 257.657C227.99 257.257 227.693 256.985 227.362 256.84C227.034 256.687 226.609 256.628 226.087 256.663C225.571 256.694 224.838 256.827 223.889 257.062C222.561 257.388 221.492 257.441 220.681 257.222C219.875 256.998 219.191 256.463 218.631 255.616C218.042 254.727 217.908 253.798 218.228 252.83C218.548 251.861 219.258 251.013 220.358 250.285C221.505 249.526 222.699 249.039 223.941 248.822L224.295 250.267C223.078 250.498 222.02 250.911 221.12 251.506C220.41 251.976 219.956 252.496 219.758 253.066C219.56 253.636 219.64 254.192 219.999 254.733C220.263 255.133 220.555 255.414 220.873 255.574C221.187 255.729 221.589 255.799 222.079 255.785C222.571 255.763 223.263 255.642 224.154 255.422C225.65 255.053 226.788 254.966 227.568 255.161C228.353 255.353 229.006 255.843 229.529 256.632Z" fill="#1F2338"/>
<path d="M251.598 235.452L250.478 234.549L253.394 230.931L254.514 231.834L251.598 235.452Z" fill="#1F2338"/>
<path d="M119.114 47.2823L118.629 45.9279L123.004 44.3615L123.489 45.7159L119.114 47.2823Z" fill="#1F2338"/>
<path d="M270.305 198.193L271.901 193.768L278.231 196.051C278.202 196.819 278.116 197.579 277.972 198.332C277.828 199.085 277.586 199.931 277.248 200.868C276.537 202.839 275.399 204.162 273.834 204.839C272.263 205.513 270.421 205.469 268.308 204.707C266.955 204.218 265.868 203.521 265.048 202.615C264.224 201.701 263.729 200.637 263.563 199.423C263.391 198.208 263.552 196.914 264.047 195.543C264.548 194.154 265.27 192.953 266.213 191.938L267.336 193.007C266.414 194.002 265.757 195.043 265.365 196.129C264.793 197.714 264.819 199.122 265.441 200.352C266.064 201.583 267.212 202.5 268.886 203.104C270.643 203.738 272.129 203.791 273.346 203.264C274.564 202.731 275.473 201.633 276.073 199.971C276.398 199.069 276.612 198.15 276.715 197.215L272.708 195.77L271.658 198.681L270.305 198.193Z" fill="#1F2338"/>
<path d="M284.344 170.382L279.751 171.494L279.002 176.989L283.132 179.272L282.912 180.885L269.885 173.587L270.068 172.246L284.57 168.731L284.344 170.382ZM278.249 171.795L273.783 172.81C273.217 172.943 272.529 173.066 271.718 173.178C272.299 173.397 272.932 173.684 273.616 174.039L277.644 176.231L278.249 171.795Z" fill="#1F2338"/>
<path d="M281.031 147.001C282.248 146.939 283.218 147.332 283.944 148.18C284.669 149.027 285.07 150.207 285.147 151.72C285.231 153.358 285.084 154.629 284.706 155.533L283.156 155.612C283.367 155.032 283.524 154.405 283.629 153.73C283.734 153.055 283.769 152.39 283.736 151.735C283.682 150.663 283.439 149.867 283.008 149.346C282.571 148.825 281.99 148.582 281.265 148.619C280.786 148.644 280.401 148.761 280.108 148.972C279.809 149.177 279.542 149.512 279.307 149.979C279.071 150.44 278.813 151.138 278.532 152.075C278.137 153.384 277.639 154.332 277.037 154.918C276.435 155.499 275.626 155.815 274.612 155.866C273.547 155.92 272.679 155.563 272.008 154.795C271.337 154.027 270.968 152.984 270.901 151.667C270.831 150.293 271.019 149.017 271.465 147.838L272.889 148.268C272.468 149.433 272.285 150.554 272.34 151.632C272.383 152.483 272.6 153.138 272.99 153.598C273.379 154.059 273.899 154.272 274.548 154.239C275.027 154.215 275.416 154.107 275.716 153.915C276.01 153.723 276.275 153.412 276.512 152.983C276.743 152.548 276.99 151.891 277.255 151.012C277.698 149.537 278.202 148.513 278.767 147.941C279.331 147.363 280.086 147.049 281.031 147.001Z" fill="#1F2338"/>
<path d="M281.775 128.158L282.128 129.728L270.022 132.447L270.982 136.723L269.588 137.036L267.314 126.915L268.709 126.602L269.669 130.877L281.775 128.158Z" fill="#1F2338"/>
<path d="M271.22 113.367L276.558 111.217L277.159 112.709L264.324 117.88L262.906 114.36C262.272 112.785 262.105 111.502 262.406 110.51C262.705 109.513 263.46 108.77 264.671 108.281C266.369 107.598 267.862 107.996 269.152 109.476L273.516 103.667L274.227 105.432L270.141 110.69L271.22 113.367ZM269.938 113.884L269.114 111.838C268.69 110.785 268.171 110.096 267.557 109.772C266.938 109.45 266.21 109.458 265.373 109.795C264.524 110.137 264.014 110.635 263.842 111.289C263.668 111.937 263.804 112.814 264.25 113.921L265.031 115.861L269.938 113.884Z" fill="#1F2338"/>
<path d="M256.33 87.8652C258.196 86.6713 259.965 86.2055 261.639 86.4678C263.309 86.7247 264.681 87.6929 265.756 89.3722C266.855 91.0887 267.18 92.7497 266.732 94.355C266.275 95.9585 265.09 97.3725 263.177 98.597C261.279 99.8112 259.511 100.284 257.87 100.015C256.225 99.7501 254.851 98.7566 253.749 97.0348C252.678 95.3608 252.372 93.7133 252.833 92.0924C253.294 90.4715 254.46 89.0624 256.33 87.8652ZM262.274 97.1519C263.853 96.1417 264.837 95.0399 265.226 93.8465C265.608 92.6512 265.388 91.4131 264.569 90.1324C263.742 88.841 262.711 88.1261 261.476 87.9875C260.242 87.8489 258.832 88.2864 257.249 89.3C255.681 90.3034 254.704 91.3931 254.318 92.5691C253.923 93.7431 254.138 94.9732 254.961 96.2593C255.787 97.5506 256.826 98.2719 258.076 98.423C259.318 98.5722 260.717 98.1485 262.274 97.1519Z" fill="#1F2338"/>
<path d="M245.571 65.0555L246.862 66.3608L243.924 79.9038L243.978 79.9576C244.876 78.9274 245.728 78.0129 246.536 77.2142L252.127 71.683L253.172 72.7394L243.335 82.4705L242.057 81.1786L244.974 67.6824L244.921 67.6286C244.809 67.7574 244.441 68.1614 243.817 68.8406C243.189 69.5243 242.729 70.0014 242.437 70.272L236.792 75.8564L235.734 74.7866L245.571 65.0555Z" fill="#1F2338"/>
<path d="M219.695 54.167C220.909 52.3148 222.333 51.1661 223.967 50.721C225.597 50.2725 227.245 50.5947 228.913 51.6876C230.617 52.8048 231.593 54.1875 231.841 55.8358C232.079 57.486 231.576 59.2609 230.331 61.1607C229.096 63.0447 227.675 64.1994 226.069 64.625C224.459 65.0559 222.799 64.7111 221.089 63.5905C219.427 62.501 218.474 61.1224 218.232 59.4548C217.99 57.7872 218.477 56.0246 219.695 54.167ZM228.916 60.2111C229.944 58.6437 230.391 57.2358 230.259 55.9874C230.118 54.7407 229.411 53.7006 228.14 52.8671C226.857 52.0266 225.624 51.7957 224.441 52.1742C223.257 52.5527 222.15 53.5283 221.119 55.1009C220.099 56.6577 219.653 58.0515 219.782 59.2825C219.902 60.5154 220.6 61.5503 221.877 62.3873C223.16 63.2277 224.402 63.4612 225.605 63.0878C226.799 62.7162 227.903 61.7573 228.916 60.2111Z" fill="#1F2338"/>
<path d="M205.011 39.3976L205.384 52.5257L205.456 52.5508C205.694 51.6046 206.034 50.5003 206.476 49.238L209.388 40.9315L210.79 41.423L206.213 54.4811L203.927 53.6797L203.567 41.4587L203.495 41.4337L195.549 50.7434L193.28 49.9482L197.857 36.8901L199.375 37.4223L196.427 45.8359C196.088 46.8006 195.679 47.8339 195.2 48.9361L195.271 48.9611L203.788 38.9687L205.011 39.3976Z" fill="#1F2338"/>
<path d="M177.314 32.1392L175.569 45.8656L173.973 45.6627L175.718 31.9363L177.314 32.1392Z" fill="#1F2338"/>
<path d="M150.385 31.1166L152.298 35.4381L157.839 35.1959L159.349 30.7248L160.975 30.6537L156.116 44.7731L154.764 44.8321L148.721 31.1893L150.385 31.1166ZM152.862 36.8629L154.657 41.0759C154.889 41.6089 155.132 42.2646 155.387 43.0429C155.499 42.4317 155.669 41.758 155.896 41.0218L157.335 36.6674L152.862 36.8629Z" fill="#1F2338"/>
</svg>
