<svg width="68" height="51" viewBox="0 0 68 51" fill="none" xmlns="http://www.w3.org/2000/svg">
<rect opacity="0.2" x="18.2002" y="1" width="49" height="49" rx="2" fill="url(#paint0_linear_417_147)"/>
<g clip-path="url(#clip0_417_147)">
<path d="M41.875 39.1523V40.9314C41.875 41.344 42.2094 41.6784 42.6221 41.6784C43.0348 41.6784 43.3691 41.344 43.3691 40.9314V39.1523C43.3691 38.7397 43.0348 38.4053 42.6221 38.4053C42.2094 38.4053 41.875 38.7397 41.875 39.1523Z" fill="#AA8B4E"/>
<path d="M50.2529 32.8922H39.6674C39.0389 32.8922 38.5277 33.4036 38.5277 34.0321V34.7444H35.3432C34.5259 34.7444 33.8386 35.3032 33.6381 36.0581L30.1398 35.0779C29.8765 35.0042 29.7082 34.7445 29.748 34.4741L30.4602 29.6447C30.5187 29.2486 30.4724 28.8499 30.3334 28.4843H36.3306C37.8963 28.4843 39.17 27.2106 39.17 25.645V23.4609C39.17 23.0482 38.8356 22.7139 38.4229 22.7139H36.3108V21.6037C36.3108 13.5365 29.9173 6.93553 21.9314 6.59905V6.15499C21.9314 4.86127 20.8788 3.80859 19.585 3.80859C18.2912 3.80859 17.2386 4.86117 17.2386 6.15499V6.59905C15.1919 6.68362 13.2231 7.1733 11.3776 8.06072C11.0057 8.23952 10.8493 8.68587 11.0281 9.05771C11.2069 9.42955 11.6531 9.58584 12.025 9.40724C13.8586 8.5256 15.8279 8.07855 17.8784 8.07855H21.2916C28.7494 8.07855 34.8167 14.1459 34.8167 21.6036V22.7138H4.35333V21.6036C4.35333 17.3835 6.27151 13.4807 9.61599 10.8959C9.94241 10.6436 10.0026 10.1744 9.75036 9.84791C9.49805 9.52149 9.02889 9.46143 8.70237 9.71354C4.98894 12.5835 2.85919 16.9171 2.85919 21.6035V22.7137H0.74707C0.334389 22.7137 0 23.048 0 23.4607V25.6448C0 27.2104 1.27371 28.4841 2.83937 28.4841H8.11876C7.88727 29.2274 8.07464 30.015 8.63215 30.5818L12.2901 34.3006C14.652 36.7018 17.3681 38.701 20.363 40.2422C23.358 41.7835 26.5632 42.832 29.8902 43.3585L33.6186 43.9485C33.7914 44.7423 34.4986 45.3388 35.3434 45.3388H38.5279V46.0512C38.5279 46.6798 39.0392 47.1911 39.6676 47.1911H43.2712C43.6839 47.1911 44.0183 46.8567 44.0183 46.444C44.0183 46.0313 43.6839 45.6969 43.2712 45.6969H40.0221V34.3864H49.5059V45.6973H46.258C45.8453 45.6973 45.5109 46.0317 45.5109 46.4444C45.5109 46.8571 45.8453 47.1915 46.258 47.1915H50.2529C50.6656 47.1915 51 46.8571 51 46.4444V33.6393C51 33.2266 50.6656 32.8922 50.2529 32.8922ZM19.585 5.30293C20.055 5.30293 20.4373 5.68523 20.4373 6.15519V6.58471H18.7328V6.15519C18.7327 5.68523 19.115 5.30293 19.585 5.30293ZM1.49414 25.6451V24.2081H37.6758V25.6451C37.6758 26.3868 37.0723 26.9903 36.3306 26.9903H23.0407C22.6281 26.9903 22.2937 27.3247 22.2937 27.7374C22.2937 28.15 22.6281 28.4844 23.0407 28.4844H25.9459L23.3741 32.5269C23.0108 33.0981 22.26 33.2922 21.6655 32.9686L13.4212 28.4844H20.0537C20.4663 28.4844 20.8007 28.15 20.8007 27.7374C20.8007 27.3247 20.4663 26.9903 20.0537 26.9903H2.83937C2.09767 26.9903 1.49414 26.3868 1.49414 25.6451ZM21.0467 38.9139C18.1933 37.4455 15.6055 35.5409 13.3551 33.253L9.69717 29.5342C9.20371 29.0325 9.80595 28.2188 10.4319 28.5594L20.9516 34.2812C22.2334 34.9783 23.8515 34.5601 24.6349 33.3287L27.4746 28.8653C27.9489 28.1199 29.1108 28.5537 28.9821 29.4266L28.2699 34.2562C28.1206 35.2685 28.7512 36.2403 29.7367 36.5165L33.5773 37.5927V42.4294L30.1236 41.8829C26.9539 41.3815 23.9001 40.3824 21.0467 38.9139ZM35.3432 43.845C35.1933 43.845 35.0714 43.723 35.0714 43.5732V36.5106C35.0714 36.3606 35.1934 36.2387 35.3432 36.2387H38.5277V43.8451H35.3432V43.845Z" fill="#AA8B4E"/>
</g>
<defs>
<linearGradient id="paint0_linear_417_147" x1="67.0002" y1="26" x2="18.0002" y2="26" gradientUnits="userSpaceOnUse">
<stop stop-color="#AA8B4E"/>
<stop offset="1" stop-color="#AA8B4E" stop-opacity="0"/>
</linearGradient>
<clipPath id="clip0_417_147">
<rect width="51" height="51" fill="white"/>
</clipPath>
</defs>
</svg>
