<svg width="55" height="49" viewBox="0 0 55 49" fill="none" xmlns="http://www.w3.org/2000/svg">
<rect opacity="0.3" x="5.20508" width="49" height="49" rx="2" fill="url(#paint0_linear_2_5169)"/>
<g clip-path="url(#clip0_2_5169)">
<path d="M37.6409 18.9036H38.2374C38.658 18.9036 38.9991 18.5625 38.9991 18.1419V15.095C38.9991 14.6744 38.658 14.3333 38.2374 14.3333H36.3079L36.3077 5.76172C36.3077 5.3411 35.9666 5 35.546 5H19.9308C19.5102 5 19.1691 5.3411 19.1691 5.76172V14.3333H17.2394C16.8187 14.3333 16.4776 14.6744 16.4776 15.095V18.1419C16.4776 18.5625 16.8187 18.9036 17.2394 18.9036H17.8363V34.855C17.8363 34.8565 17.8361 34.8579 17.8361 34.8594V37.1445H17.2394C17.149 37.1493 17.0509 37.1652 17.0128 37.1759C16.9562 37.1919 14.9799 37.8368 14.9799 37.8368V32.2969H16.1222C16.5429 32.2969 16.8839 31.9559 16.8839 31.5352C16.8839 31.1146 16.5429 30.7735 16.1222 30.7735H14.2182C14.1949 30.7735 14.1717 30.7749 14.1486 30.777C14.1404 30.7778 14.1322 30.7789 14.1241 30.7799C14.1095 30.7817 14.0951 30.7839 14.0807 30.7865C14.0711 30.7883 14.0617 30.79 14.0524 30.7922C14.039 30.7951 14.0258 30.7987 14.0127 30.8024C14.0037 30.8049 13.9947 30.8071 13.986 30.8098C13.9852 30.8101 13.9845 30.8102 13.9838 30.8105L3.20782 34.2976C3.2015 34.2995 3.19533 34.3016 3.18908 34.3037L0.526344 35.1654C0.126137 35.2948 -0.0933141 35.7244 0.0362542 36.1247C0.140534 36.4469 0.439356 36.652 0.760801 36.652C0.838573 36.652 0.917639 36.64 0.995563 36.6148L2.66525 36.0745V41.8215L0.52642 42.5135C0.169783 42.629 -0.04982 42.9867 0.00852767 43.357C0.0669515 43.7271 0.386112 43.9999 0.760953 43.9999H17.2394H38.2374C38.658 43.9999 38.9991 43.6588 38.9991 43.2382V37.9062C38.9991 37.4855 38.658 37.1445 38.2374 37.1445H37.6409V29.608C37.6409 29.1875 37.2989 28.8463 36.8792 28.8463C36.4587 28.8463 36.1175 29.1875 36.1175 29.608V34.0977H34.0225V21.1888C34.0225 20.7682 33.6814 20.4271 33.2608 20.4271H22.216C21.7954 20.4271 21.4543 20.7682 21.4543 21.1888V34.0977H19.3598V18.9037H36.1175V22.7525C36.1175 23.1722 36.4587 23.5143 36.8792 23.5143C37.2989 23.5143 37.6409 23.1722 37.6409 22.7525V18.9036ZM34.7843 14.3128H33.3038C33.2525 13.7917 33.1513 13.2787 33.0036 12.7893H34.7843V14.3128H34.7843ZM31.77 14.3311H23.7958C24.0691 12.4229 25.3412 10.1416 27.7384 10.1416C30.533 10.1416 31.5476 12.5681 31.77 14.3311ZM22.2622 14.3128H20.6928V12.7893H22.5988C22.4352 13.2857 22.3209 13.8001 22.2622 14.3128ZM34.7843 6.52344V11.2659H32.3468C32.2637 11.1237 32.1764 10.9857 32.084 10.8535C31.0621 9.39108 29.5595 8.61816 27.7384 8.61816C26.0868 8.61816 24.6076 9.4089 23.5736 10.8446C23.4762 10.9797 23.384 11.1208 23.2959 11.2658H20.6926V6.52344H34.7843ZM18.0011 15.8567H37.4756V17.3801H18.0011V15.8567ZM4.18869 35.5814L13.4564 32.5824V38.3298L4.18869 41.3285V35.5814ZM16.4776 38.9533V42.4766H5.58926L16.4776 38.9533ZM37.4756 42.4766H18.0011V38.668H18.5978H18.598H36.879H36.8792H37.4756V42.4766ZM36.1173 35.6211V37.1445H34.0225V35.6211H36.1173ZM22.9777 21.9505H32.4991V34.8594V37.1445H22.9777V34.8594V21.9505ZM21.4543 35.6211V37.1445H19.3598V35.6211H21.4543Z" fill="#AA8B4E"/>
<path d="M36.8799 25.4187C36.4593 25.4187 36.1182 25.76 36.1182 26.1804C36.1182 26.6001 36.4593 26.9421 36.8799 26.9421C37.2996 26.9421 37.6416 26.6001 37.6416 26.1804C37.6416 25.76 37.2996 25.4187 36.8799 25.4187Z" fill="#AA8B4E"/>
<path d="M25.251 31.3196H26.7744C27.195 31.3196 27.5361 30.9785 27.5361 30.5579C27.5361 30.1372 27.195 29.7961 26.7744 29.7961H25.251C24.8304 29.7961 24.4893 30.1372 24.4893 30.5579C24.4893 30.9785 24.8303 31.3196 25.251 31.3196Z" fill="#AA8B4E"/>
</g>
<defs>
<linearGradient id="paint0_linear_2_5169" x1="54.0051" y1="25" x2="5.00506" y2="25" gradientUnits="userSpaceOnUse">
<stop stop-color="#AA8B4E"/>
<stop offset="1" stop-color="#AA8B4E" stop-opacity="0"/>
</linearGradient>
<clipPath id="clip0_2_5169">
<rect width="39" height="39" fill="white" transform="translate(0 5)"/>
</clipPath>
</defs>
</svg>
