<svg width="55" height="49" viewBox="0 0 55 49" fill="none" xmlns="http://www.w3.org/2000/svg">
<rect opacity="0.3" x="5.20508" width="49" height="49" rx="2" fill="url(#paint0_linear_2_5157)"/>
<g clip-path="url(#clip0_2_5157)">
<path d="M20.5078 19.8984C20.9609 19.8984 21.3281 19.5312 21.3281 19.0781C21.3281 18.6251 20.9609 18.2578 20.5078 18.2578C20.0548 18.2578 19.6875 18.6251 19.6875 19.0781C19.6875 19.5312 20.0548 19.8984 20.5078 19.8984Z" fill="#AA8B4E"/>
<path d="M29.896 13.8991C28.5258 13.2024 24.6708 13.6781 23.9118 13.7805C23.6448 13.8165 23.4124 13.9815 23.2902 14.2217C23.1681 14.4618 23.1718 14.7467 23.3 14.9837C23.6643 15.6571 25.5509 19.0519 26.9211 19.7486C28.5338 20.5685 30.5132 19.9242 31.3333 18.3113C32.1534 16.6984 31.5086 14.7191 29.896 13.8991ZM29.8709 17.5676C29.4609 18.374 28.4713 18.6961 27.6647 18.2861C27.1807 18.04 26.2027 16.684 25.3533 15.2705C26.9963 15.124 28.6685 15.1154 29.1524 15.3615C29.9587 15.7715 30.281 16.7612 29.8709 17.5676Z" fill="#AA8B4E"/>
<path d="M20.5078 42.0469C20.9609 42.0469 21.3281 41.6796 21.3281 41.2266C21.3281 40.7735 20.9609 40.4062 20.5078 40.4062C20.0548 40.4062 19.6875 40.7735 19.6875 41.2266C19.6875 41.6796 20.0548 42.0469 20.5078 42.0469Z" fill="#AA8B4E"/>
<path d="M0.820312 42.0469H16.8164C17.2695 42.0469 17.6367 41.6796 17.6367 41.2266C17.6367 40.7735 17.2695 40.4062 16.8164 40.4062H1.64062V28.4938C4.16407 33.5331 9.33893 37.0227 15.3246 37.1217C15.4116 37.1238 16.8164 37.125 16.8164 37.125C18.1722 37.125 19.4808 36.6321 20.5146 35.7507C21.5637 36.6121 22.9707 37.125 24.3633 37.125C25.7589 37.125 27.169 36.6098 28.2188 35.7452C29.2685 36.6098 30.6786 37.125 32.0742 37.125C33.4698 37.125 34.8799 36.6098 35.9297 35.7452C36.9794 36.6098 38.3896 37.125 39.7852 37.125C39.9626 37.125 40.1592 37.1143 40.3594 37.0956V40.4062H24.1992C23.7462 40.4062 23.3789 40.7735 23.3789 41.2266C23.3789 41.6796 23.7462 42.0469 24.1992 42.0469H41.1797C41.6327 42.0469 42 41.6796 42 41.2266C42 40.369 42 27.1445 42 26.287C42 26.0331 41.8825 25.7936 41.6817 25.6382C41.4809 25.4829 41.2195 25.4292 40.9738 25.493C40.6439 25.5785 40.144 25.6406 39.7852 25.6406C38.5708 25.6406 37.2999 25.0845 36.5472 24.2238C36.3914 24.0456 36.1663 23.9435 35.9297 23.9435C35.693 23.9435 35.4679 24.0457 35.3122 24.2238C34.5595 25.0845 33.2886 25.6406 32.0742 25.6406C30.8598 25.6406 29.5889 25.0845 28.8363 24.2238C28.6805 24.0456 28.4554 23.9435 28.2188 23.9435C27.9821 23.9435 27.757 24.0457 27.6012 24.2238C26.8486 25.0845 25.5777 25.6406 24.3633 25.6406C23.1489 25.6406 21.878 25.0845 21.1253 24.2238C20.9696 24.0456 20.7444 23.9435 20.5078 23.9435C20.2712 23.9435 20.046 24.0458 19.8903 24.2239C18.6416 25.6523 16.2541 26.1331 14.2131 25.3666C12.479 24.7156 11.4844 23.3205 11.4844 21.5391C11.4844 19.2966 13.2393 17.4956 15.4749 17.439C18.3303 17.3837 20.0977 15.2417 20.0977 12.9258C20.0977 12.7045 20.0817 12.4852 20.0502 12.2689C21.669 11.8618 23.1338 10.9653 24.2427 9.68858C24.5694 9.31239 24.4876 8.73415 24.0705 8.46295C21.5453 6.82102 18.6114 5.95312 15.5859 5.95312C6.99185 5.95312 0 12.945 0 21.5391V41.2266C0 41.6796 0.367254 42.0469 0.820312 42.0469ZM40.3594 35.4461C40.1584 35.47 39.9558 35.4844 39.7852 35.4844C38.5708 35.4844 37.2999 34.9282 36.5472 34.0675C36.3914 33.8894 36.1663 33.7872 35.9297 33.7872C35.693 33.7872 35.4679 33.8894 35.3122 34.0675C34.5595 34.9282 33.2886 35.4844 32.0742 35.4844C30.8598 35.4844 29.5889 34.9282 28.8363 34.0675C28.6805 33.8894 28.4554 33.7872 28.2188 33.7872C27.9821 33.7872 27.757 33.8894 27.6012 34.0675C26.8486 34.9282 25.5777 35.4844 24.3633 35.4844C23.1489 35.4844 21.878 34.9282 21.1253 34.0675C20.9696 33.8894 20.7445 33.7872 20.5078 33.7872C20.2712 33.7872 20.0461 33.8894 19.8903 34.0675C19.1029 34.968 17.9826 35.4872 16.8164 35.4872C16.8164 35.4872 15.4352 35.4856 15.3599 35.4844C12.3199 35.4101 9.63473 33.8371 8.05375 31.4443C8.30009 31.5544 8.55586 31.647 8.81992 31.7189C10.3689 32.1408 11.9295 31.8081 13.1215 30.8316C14.1547 31.7112 15.462 32.2031 16.8164 32.2031C18.1722 32.2031 19.4808 31.7102 20.5146 30.8289C21.5637 31.6902 22.9707 32.2031 24.3633 32.2031C25.7589 32.2031 27.1689 31.688 28.2188 30.8233C29.2685 31.688 30.6786 32.2031 32.0742 32.2031C33.4698 32.2031 34.8799 31.688 35.9297 30.8233C36.9794 31.688 38.3896 32.2031 39.7852 32.2031C39.9626 32.2031 40.1592 32.1925 40.3594 32.1737V35.4461ZM13.6364 26.9025C14.8811 27.3698 16.297 27.4871 17.6231 27.2325C18.739 27.0183 19.7224 26.5641 20.5113 25.9042C21.5606 26.7672 22.9692 27.2812 24.3633 27.2812C25.7589 27.2812 27.169 26.7661 28.2188 25.9014C29.2685 26.7661 30.6786 27.2812 32.0742 27.2812C33.4698 27.2812 34.8799 26.7661 35.9297 25.9014C36.9794 26.7661 38.3896 27.2812 39.7852 27.2812C39.9627 27.2812 40.1591 27.2709 40.3594 27.2522V30.5243C40.1584 30.5482 39.9558 30.5626 39.7852 30.5626C38.5708 30.5626 37.2999 30.0064 36.5472 29.1457C36.3914 28.9676 36.1663 28.8654 35.9297 28.8654C35.693 28.8654 35.4679 28.9676 35.3122 29.1457C34.5595 30.0063 33.2886 30.5625 32.0742 30.5625C30.8598 30.5625 29.5889 30.0063 28.8363 29.1457C28.6805 28.9676 28.4554 28.8654 28.2188 28.8654C27.9821 28.8654 27.757 28.9676 27.6012 29.1457C26.8486 30.0063 25.5777 30.5625 24.3633 30.5625C23.1489 30.5625 21.878 30.0063 21.1253 29.1457C20.9696 28.9676 20.7445 28.8654 20.5078 28.8654C20.2712 28.8654 20.0461 28.9676 19.8903 29.1457C19.1029 30.0461 17.9826 30.5625 16.8164 30.5625C15.6503 30.5625 14.5299 30.0461 13.7425 29.1457C13.5873 28.9682 13.3633 28.8661 13.1276 28.8654C12.7997 28.8615 12.6154 29.0285 12.441 29.22C11.6163 30.1296 10.4537 30.4635 9.25107 30.136C7.76409 29.7309 6.5625 28.4817 6.5625 26.4609C6.5625 23.4373 8.07606 20.7422 10.3845 19.1017C10.0308 19.8555 9.84375 20.6837 9.84375 21.5391C9.84375 24.0058 11.2616 26.0109 13.6364 26.9025ZM15.5859 7.59375C17.9489 7.59375 20.2493 8.1852 22.2978 9.31214C21.3459 10.1223 20.1803 10.6474 18.933 10.8159C18.6854 10.8494 18.4665 10.9938 18.3385 11.2082C18.2104 11.4226 18.187 11.6837 18.2749 11.9175C18.3958 12.2389 18.457 12.5781 18.457 12.9258C18.457 14.5089 17.1691 15.7969 15.5859 15.7969C15.5404 15.7969 15.4874 15.7978 15.438 15.7988C8.15891 17.35 4.92188 20.7388 4.92188 26.4609C4.92188 28.4285 5.46312 30.4188 6.58481 32.1811C3.56278 29.6211 1.64062 25.8007 1.64062 21.5391C1.64062 13.8496 7.89649 7.59375 15.5859 7.59375Z" fill="#AA8B4E"/>
</g>
<defs>
<linearGradient id="paint0_linear_2_5157" x1="54.0051" y1="25" x2="5.00506" y2="25" gradientUnits="userSpaceOnUse">
<stop stop-color="#AA8B4E"/>
<stop offset="1" stop-color="#AA8B4E" stop-opacity="0"/>
</linearGradient>
<clipPath id="clip0_2_5157">
<rect width="42" height="42" fill="white" transform="translate(0 3)"/>
</clipPath>
</defs>
</svg>
