<svg width="258" height="47" viewBox="0 0 258 47" fill="none" xmlns="http://www.w3.org/2000/svg">
    <path d="M101.799 16.5081C101.614 15.9973 101.337 15.9509 100.874 15.9509H100.596V14.3257H101.383C102.679 14.3257 103.095 14.6043 103.511 15.858L108 28.2096C108.323 29.1382 108.694 30.5777 108.694 30.5777H108.74C108.74 30.5777 109.11 29.1382 109.434 28.2096L113.922 15.858C114.385 14.5579 114.801 14.3257 116.097 14.3257H116.883V15.9509H116.652C116.143 15.9509 115.912 16.0438 115.726 16.5081L109.711 32.6673H107.768L101.799 16.5081Z" fill="#AA8B4E"/>
    <path d="M128.867 31.0885H130.579V15.9509H128.867V14.3257H134.141V15.9509H132.383V31.0885H134.141V32.7137H128.867V31.0885Z" fill="#AA8B4E"/>
    <path d="M148.531 16.5081C148.531 16.1366 148.346 15.9509 147.976 15.9509H146.865V14.3257H148.809C149.919 14.3257 150.382 14.79 150.382 15.9045V30.4848C150.382 30.8563 150.567 31.042 150.937 31.042H156.998C157.368 31.042 157.554 30.8563 157.554 30.4848V29.2775H159.266V31.0885C159.266 32.2029 158.803 32.6673 157.692 32.6673H150.104C148.994 32.6673 148.531 32.2029 148.531 31.0885V16.5081Z" fill="#AA8B4E"/>
    <path d="M171.897 16.5081C171.897 16.1366 171.712 15.9509 171.342 15.9509H170.231V14.3257H172.175C173.285 14.3257 173.748 14.79 173.748 15.9045V30.4848C173.748 30.8563 173.933 31.042 174.303 31.042H180.364C180.734 31.042 180.919 30.8563 180.919 30.4848V29.2775H182.631V31.0885C182.631 32.2029 182.169 32.6673 181.058 32.6673H173.47C172.36 32.6673 171.897 32.2029 171.897 31.0885V16.5081Z" fill="#AA8B4E"/>
    <path d="M193.921 31.0885H194.245C194.708 31.0885 194.985 30.9956 195.17 30.5313L201.185 14.3257H203.128L209.097 30.4848C209.282 30.9956 209.56 31.042 210.023 31.042H210.346V32.6673H209.514C208.218 32.6673 207.802 32.3886 207.339 31.1349L205.766 26.8165H198.502L196.882 31.1349C196.419 32.3886 196.049 32.6673 194.754 32.6673H193.875V31.0885H193.921ZM205.303 25.2378L202.897 18.6905C202.573 17.8083 202.203 16.3224 202.203 16.3224H202.157C202.157 16.3224 201.787 17.8547 201.463 18.6905L199.057 25.2378H205.303Z" fill="#AA8B4E"/>
    <path d="M241.393 16.5081C241.393 16.1366 241.208 15.9509 240.838 15.9509H239.727V14.3257H241.67C242.781 14.3257 243.244 14.79 243.244 15.9045V22.6839H253.747V15.9045C253.747 14.79 254.209 14.3257 255.32 14.3257H257.263V15.9509H256.153C255.783 15.9509 255.597 16.1366 255.597 16.5081V32.6673H253.793V24.2626H243.29V32.6673H241.485V16.5081H241.393Z" fill="#AA8B4E"/>
    <path d="M28.6101 45.7363C31.0364 46.5516 33.584 47 36.172 47C39.3262 47 42.3591 46.3886 45.2302 45.1657C46.7264 44.5134 48.1418 43.7389 49.4762 42.8014C49.5975 42.8422 49.7188 42.8829 49.8402 42.8829C52.226 43.5351 54.4906 43.8612 56.6338 43.8612C58.1704 43.8612 59.6262 43.6982 61.0416 43.3721C62.376 43.046 63.6296 42.5976 64.8023 41.9861C67.5117 40.8448 71.0702 37.7875 74.1031 33.9965C77.2977 29.961 79.1579 26.1292 79.1579 23.4796C79.1579 20.9931 77.4191 17.3651 74.3457 13.4519C71.3938 9.70165 67.8352 6.56288 64.8428 5.05464C63.67 4.44319 62.4165 3.95403 61.0416 3.62793C57.6852 2.85343 53.9244 3.01648 49.8402 4.07632C49.7188 4.11709 49.5571 4.15785 49.4358 4.19861C48.1013 3.26106 46.7264 2.48656 45.2302 1.83435C42.3591 0.611448 39.3262 0 36.172 0C33.6649 0 31.1577 0.407633 28.8123 1.18213L28.5696 1.34519C28.4888 1.38595 28.4483 1.46748 28.4079 1.549L28.327 1.87511C28.2866 3.95403 28.8123 6.03296 29.9041 8.11188C30.632 9.5386 31.6429 10.9245 32.8561 12.229C32.1282 12.7589 31.3599 13.2888 30.632 13.778C27.5991 15.9384 24.4854 18.1396 20.5224 20.1778C20.4011 20.2186 20.2798 20.3001 20.1989 20.3409C14.9015 16.2645 10.615 11.8213 7.13735 8.23417C6.36902 7.41891 5.64114 6.68517 4.91325 5.95143C4.71106 5.74761 4.42799 5.62533 4.10448 5.62533C3.82141 5.62533 3.53835 5.74762 3.33616 5.9922C2.64871 6.7667 0.990737 8.84562 0.303287 11.5768C-0.101096 13.1665 -0.0606574 14.7155 0.303287 16.2238C0.788546 18.0173 1.7995 19.7702 3.37659 21.3599C3.37659 21.3599 4.67062 22.6236 7.21823 23.3981C4.67062 24.1726 3.37659 25.4363 3.37659 25.4363C1.7995 27.026 0.788546 28.7788 0.303287 30.5724C-0.101096 32.0807 -0.101096 33.6704 0.303287 35.2194C0.990737 37.9913 2.64871 40.0703 3.33616 40.804C3.53835 41.0078 3.82141 41.1709 4.10448 41.1709C4.38755 41.1709 4.67062 41.0486 4.91325 40.8448C5.6007 40.1518 6.32859 39.3773 7.13735 38.562C10.5746 34.9748 14.8611 30.5317 20.1989 26.4553C20.3202 26.4961 20.4415 26.5776 20.5224 26.6184C24.5258 28.6566 27.6396 30.8578 30.632 33.0182C31.3599 33.5481 32.0878 34.0373 32.8157 34.5672C31.6429 35.8716 30.6724 37.2168 29.9041 38.6435C28.8527 40.6817 28.327 42.8014 28.327 44.8803V45.2064C28.327 45.2879 28.3674 45.3287 28.4079 45.3695L28.6101 45.7363ZM70.221 21.7676C70.221 21.8083 70.1806 21.8491 70.1806 21.8491C69.0483 19.974 67.4712 18.3435 65.5706 17.039C65.7324 16.9167 65.8941 16.7537 66.0559 16.6314C67.4712 15.327 68.6844 13.778 69.6953 12.0252C71.1107 15.0009 71.3129 18.5065 70.221 21.7676ZM70.221 25.2324C71.3533 28.4935 71.1107 31.9584 69.7358 34.9341C68.7248 33.1405 67.5117 31.5507 66.0559 30.2871C65.9346 30.1648 65.7728 30.0425 65.6515 29.9202C67.5117 28.6158 69.0483 27.026 70.1806 25.1509C70.1806 25.1509 70.1806 25.1917 70.221 25.2324ZM65.5706 28.2082C65.2067 28.4935 64.8428 28.7381 64.4788 28.9827C63.2252 28.1266 61.8908 27.4337 60.435 26.9037C60.071 26.7814 59.6667 26.6592 59.2623 26.5369C59.3836 25.5585 59.4645 24.5395 59.4645 23.5204C59.4645 22.4605 59.3836 21.4007 59.2623 20.3816C59.6667 20.2593 60.071 20.137 60.435 20.0147C61.8908 19.4848 63.2252 18.8326 64.4384 17.9766C64.8428 18.2212 65.2471 18.5065 65.6111 18.7918C67.2691 20.0963 68.6035 21.686 69.5336 23.4796C68.5631 25.2732 67.2286 26.9037 65.5706 28.2082ZM49.1931 41.2116C42.9657 39.418 38.7601 37.0538 34.9184 34.4857C34.9589 34.4449 34.9993 34.4449 34.9993 34.4042C36.0912 33.3851 37.3447 32.4068 38.7196 31.5915C43.3296 32.8959 48.1013 33.5481 52.9943 33.5481C53.884 33.5481 54.7736 33.5074 55.6633 33.4666C54.6119 35.5455 53.2774 37.4206 51.579 39.1327C50.8511 39.8664 50.0424 40.6002 49.1931 41.2116ZM56.189 31.9991C50.7702 32.3252 45.5133 31.8361 40.4585 30.5317C42.723 29.3088 45.1493 28.3712 47.6161 27.8005C51.1342 26.9853 54.5714 26.9037 57.6447 27.5559C57.3617 29.0642 56.9169 30.5317 56.3507 31.9584C56.3103 31.9991 56.2698 31.9991 56.189 31.9991ZM51.6194 7.90807C53.2774 9.57936 54.6523 11.4545 55.6633 13.5334C49.8806 13.2481 44.2192 13.9003 38.841 15.4085C37.4661 14.5525 36.172 13.5742 35.0398 12.5143L34.9993 12.4735C38.8005 9.90546 43.0061 7.58196 49.1527 5.78838C50.0424 6.39983 50.8511 7.13357 51.6194 7.90807ZM56.189 14.9601C56.2294 14.9601 56.2698 14.9601 56.3507 15.0009C56.9169 16.3868 57.3617 17.8135 57.6447 19.3218C54.5714 19.974 51.1746 19.8925 47.6565 19.0772C45.2302 18.5065 42.8039 17.6097 40.6202 16.4276C45.5941 15.1232 50.8511 14.634 56.189 14.9601ZM57.9683 15.327C59.8284 15.7754 61.5268 16.3868 63.023 17.1613C62.0525 17.7728 61.0416 18.2619 59.9093 18.6696C59.5858 18.7918 59.3027 18.8734 58.9792 18.9549C58.777 17.732 58.4131 16.5091 57.9683 15.327ZM40.1754 17.7728C42.4804 18.9549 44.8663 19.8517 47.333 20.4224C49.3953 20.9115 51.4577 21.1561 53.3987 21.1561C54.9354 21.1561 56.4316 20.9931 57.8469 20.7077C57.9683 21.6453 58.0087 22.5828 58.0087 23.5204C58.0087 24.4172 57.9683 25.314 57.8469 26.2108C54.6119 25.5178 51.0129 25.6401 47.2925 26.4961C44.8258 27.0668 42.3995 27.9636 40.135 29.1457C39.5688 29.4311 39.0431 29.7572 38.5174 30.0425C37.6278 29.7572 36.6977 29.4718 35.8081 29.1457C31.926 27.7598 28.1653 25.8846 24.4854 23.4796C28.2057 21.0746 31.926 19.1995 35.8081 17.8135C36.7382 17.4874 37.6682 17.1613 38.5983 16.9167C39.124 17.2021 39.6497 17.4874 40.1754 17.7728ZM59.0196 27.9228C59.3432 28.0043 59.6262 28.1266 59.9497 28.2082C61.082 28.6158 62.1738 29.1457 63.1443 29.7572C61.6077 30.5724 59.9093 31.2246 58.0087 31.6323C58.4535 30.4501 58.777 29.1865 59.0196 27.9228ZM60.7181 5.01388C63.4679 5.66609 65.8537 7.01128 67.5926 8.92715C68.0778 9.45707 68.4822 9.98699 68.8461 10.5577C67.6734 12.8812 66.1772 14.7971 64.3171 16.2645C62.2951 15.0824 59.9497 14.2264 57.3212 13.7372C56.1485 11.2099 54.5714 8.92715 52.6304 6.92975C52.0643 6.35906 51.4981 5.82914 50.8916 5.33998C54.4501 4.44319 57.7661 4.3209 60.7181 5.01388ZM29.7019 2.40503C31.7643 1.75282 33.9479 1.42671 36.1316 1.42671C40.2563 1.42671 44.2192 2.56808 47.6565 4.72854C41.7525 6.56288 37.7087 8.88638 33.9479 11.4137C31.3194 8.6418 29.8232 5.46227 29.7019 2.40503ZM31.4003 14.9601C32.2091 14.3894 33.0178 13.8187 33.8266 13.248C33.9075 13.3296 34.0288 13.4111 34.1097 13.4926C35.0398 14.3487 36.0103 15.1232 37.1021 15.8569C36.536 16.0199 35.9698 16.2238 35.4037 16.4276C31.2386 17.9358 27.2352 19.974 23.2722 22.5828C22.6656 22.1752 22.0186 21.7268 21.4121 21.2784C25.3346 19.281 28.4079 17.0798 31.4003 14.9601ZM1.63775 11.9844C2.16345 9.78318 3.41703 8.07112 4.14492 7.25586C4.7515 7.90807 5.39851 8.56028 6.08596 9.29402C9.44233 12.7589 13.567 17.0798 18.7027 21.0746C16.9234 21.8083 15.1846 22.2975 13.567 22.5421C11.8282 22.7866 10.1298 22.7459 8.59313 22.4198C5.80289 21.8083 4.42799 20.5039 4.38755 20.4631C1.7995 17.8543 0.869421 15.0009 1.63775 11.9844ZM6.08596 37.706C5.39851 38.399 4.7515 39.0919 4.14492 39.7442C3.45747 38.9289 2.20388 37.2168 1.63775 35.0156C0.909859 31.9991 1.7995 29.1457 4.34711 26.5369C4.38755 26.4961 5.76245 25.1917 8.55269 24.5802C10.0893 24.2541 11.7878 24.2134 13.5266 24.4579C15.1846 24.7025 16.883 25.1917 18.6623 25.9254C13.567 29.961 9.44233 34.2411 6.08596 37.706ZM19.9563 24.9471C18.5409 24.2949 17.166 23.8057 15.8316 23.4796C17.166 23.1535 18.5409 22.6644 19.9563 22.0121C20.6437 22.5013 21.3312 22.9905 21.9782 23.4796C21.2907 23.9688 20.6437 24.4579 19.9563 24.9471ZM21.3716 25.6401C21.9782 25.1917 22.6252 24.7433 23.2318 24.3356C27.1947 26.9445 31.1981 28.9827 35.3633 30.4909C35.889 30.6947 36.4147 30.8578 36.9808 31.0208C35.9294 31.7546 34.9589 32.5291 34.0692 33.3443C33.9479 33.4666 33.8266 33.5481 33.7457 33.6704C32.937 33.1405 32.1686 32.5698 31.4003 31.9991C28.4079 29.8794 25.3346 27.6782 21.3716 25.6401ZM36.1316 45.5733C33.9479 45.5733 31.7643 45.2472 29.7019 44.595C29.7828 41.497 31.279 38.3582 33.9479 35.5048C37.7087 38.0729 41.7929 40.3964 47.7374 42.2715C44.2597 44.4319 40.2967 45.5733 36.1316 45.5733ZM60.7181 41.9454C57.8065 42.6383 54.4906 42.5568 50.8916 41.66C51.4981 41.1709 52.0643 40.6409 52.59 40.111C54.5714 38.1136 56.1485 35.7901 57.3212 33.2628C59.9497 32.7329 62.3356 31.8768 64.3575 30.6947C66.2177 32.1622 67.7139 34.0781 68.8461 36.4016C68.4822 36.9722 68.0374 37.5429 67.5521 38.0729C65.8537 39.948 63.4679 41.2932 60.7181 41.9454ZM73.0113 33.059C72.4047 33.8335 71.7577 34.5672 71.1107 35.2602C72.5665 31.9991 72.7687 28.2489 71.5555 24.7433C71.3938 24.2949 71.232 23.8873 71.0703 23.4796C71.2724 23.072 71.4342 22.6236 71.5555 22.216C72.7282 18.7918 72.5665 15.1232 71.1916 11.9029C71.879 12.6774 72.5665 13.4519 73.2539 14.3079C76.0442 17.8543 77.783 21.3599 77.783 23.4389C77.7426 25.7624 75.9633 29.3495 73.0113 33.059Z" fill="#AA8B4E"/>
</svg>
